<mxfile host="Electron" agent="Mozilla/5.0 (Windows NT 10.0; Win64; x64) AppleWebKit/537.36 (KHTML, like Gecko) draw.io/24.7.17 Chrome/128.0.6613.36 Electron/32.0.1 Safari/537.36" version="24.7.17">
  <diagram name="Страница — 1" id="WLfuDG5afICjgv46a0s4">
    <mxGraphModel dx="941" dy="644" grid="1" gridSize="10" guides="1" tooltips="1" connect="1" arrows="1" fold="1" page="1" pageScale="1" pageWidth="827" pageHeight="1169" math="0" shadow="0">
      <root>
        <mxCell id="0" />
        <mxCell id="1" parent="0" />
        <mxCell id="7zlPPUElvvNQ2gCsmIP--1" value="Начало&lt;span style=&quot;color: rgba(0, 0, 0, 0); font-family: monospace; font-size: 0px; text-align: start; text-wrap: nowrap;&quot;&gt;%3CmxGraphModel%3E%3Croot%3E%3CmxCell%20id%3D%220%22%2F%3E%3CmxCell%20id%3D%221%22%20parent%3D%220%22%2F%3E%3CmxCell%20id%3D%222%22%20value%3D%22int%20i%20%3D%200%3B%20i%20%26amp%3Blt%3B%20ints.Length%3B%20i%2B%2B%22%20style%3D%22strokeWidth%3D2%3Bhtml%3D1%3Bshape%3Dmxgraph.flowchart.loop_limit%3BwhiteSpace%3Dwrap%3B%22%20vertex%3D%221%22%20parent%3D%221%22%3E%3CmxGeometry%20x%3D%22210%22%20y%3D%22230%22%20width%3D%22120%22%20height%3D%2270%22%20as%3D%22geometry%22%2F%3E%3C%2FmxCell%3E%3C%2Froot%3E%3C%2FmxGraphModel%3E&lt;/span&gt;" style="strokeWidth=2;html=1;shape=mxgraph.flowchart.terminator;whiteSpace=wrap;" vertex="1" parent="1">
          <mxGeometry x="220" y="70" width="100" height="60" as="geometry" />
        </mxCell>
        <mxCell id="7zlPPUElvvNQ2gCsmIP--2" value="Конец" style="strokeWidth=2;html=1;shape=mxgraph.flowchart.terminator;whiteSpace=wrap;" vertex="1" parent="1">
          <mxGeometry x="220" y="880" width="100" height="60" as="geometry" />
        </mxCell>
        <mxCell id="7zlPPUElvvNQ2gCsmIP--3" value="Ввод K" style="shape=parallelogram;perimeter=parallelogramPerimeter;whiteSpace=wrap;html=1;fixedSize=1;" vertex="1" parent="1">
          <mxGeometry x="210" y="150" width="120" height="60" as="geometry" />
        </mxCell>
        <mxCell id="7zlPPUElvvNQ2gCsmIP--4" value="" style="shape=image;verticalLabelPosition=bottom;labelBackgroundColor=default;verticalAlign=top;aspect=fixed;imageAspect=0;image=data:image/png,iVBORw0KGgoAAAANSUhEUgAAAzoAAAGaCAYAAADHMjZzAAAAAXNSR0IArs4c6QAAAARnQU1BAACxjwv8YQUAAAAJcEhZcwAAHYcAAB2HAY/l8WUAAP+lSURBVHhe7N0FfBPnGwfwX7RJ6kJd8RZ33dDhssGQDWdDhw63jcHGcIch/42xwQQd7jIGw50CpUBdqFvaNE2T/3vJVWmhlKZA93w/n4Pm8iY5ee/ufe6VE7i7u+tACCGEEEIIIWWIkP+fEEIIIYQQQsoMCnQIIYQQQgghZQ4FOoQQQgghhJAyhwIdQgghhBBCSJlDgQ4hhBBCCCGkzKFAhxBCCCGEEFLmUKBDCCGEEEIIKXMo0CGEEEIIIYSUORToEEIIIYQQQsocCnQIIYQQQgghZQ4FOoQQQgghhJAyhwIdQgghhBBCSJlDgQ4hhBBCCCGkzKFAhxBCCCGEEFLmUKBDCCGEEEIIKXMo0CGEEEIIIYSUORToEEIIIYQQQsocCnQIIYQQQgghZQ4FOoQQQgghhJAyhwIdQgghhBBCSJlDgQ4hhBBCCCGkzKFAhxBCCCGEEFLmUKBDCCGEEEIIKXME7u7uOv7v/wy5TzcM79cBDb1dYSFJwvUVgzH3tIZ/93VJ4fXBYAzs0hTVPW0hS3uIbeOn4M9n/NuEEPJW+wRL93yKKoIURAf44tiva7DjZiIKvVA0nIqfZr6HchnxCHpyDQdWrsWxSC3/JiGEEPLmlEqNjmX5gfiiyQewF/AzXkiOKvW+xtqxR3F43t84zk1zT2Br11Yw4VMUnxyNJm3GjtUT0L1JVThZmcHUVA6ZhH/7dUl98PnK37Bhel+0qOEOW3NTmCpkMBHx7xfEpicaTJiBCtb8ayMRtP0D404H4qtdv6MiP+/d9h7m7zyN06dzT7vwXUv+7TKnIkZuPMTW8RA2ja7Mz/sPsf0YDcdPR3kr/rWRCNv9qT9O5uz8rYwcJ8VhApmCnbssHeBZuzVGLPkN2+Z/BLvCzt8SGeSmLL2tK3wafohpv+7GutE1UVKnVUIIIaS4jF+j470If/ZtDGuBFlHX52HovjNQ8289T46WXbdiagMHiNmrzHQlVPqKFgFCL/fF2LOJ3ItiKz9yA1b3qgyFQIOER8exZelPOPg4rvA7lVatMGZmL/hIQ3B69ffY9ZSfXyAn9F6yBsPq2UCUmYLA879jzYbduPms8LWFYDh6/jUT1cwBbeQpbP30M4Twb5U0LtAZO7MxrOIu4rePP8Fjfv67qzFmb52FRjbc3wJI5ApIhXG4OO9jzDqrT/BukFjDq6oHLJGE4IdPEZfBz38OF+isQu9KwONdEzF8/SN+fsmSVumGYb2bopKDBdueLF+qkxD1+BJ2/e8v3FfxiXJxer8/+rWpC/dyMv0xq1HFIOTWafz261mEldSZRTQSPfdM1x8nmREnsLXfMITyb5U0LtAZM70RLGP/xe+9Pi0Dx0kWEZy6fYQB3avDzUbB9pUGqsQI3N23G9v2hhd4Trb0aIfeYwehZx0nSAXpCDw4AyOW30LBWVQGh/qd8NmwQWhVyRwibTyu/zACU3fHFH5+JYQQQoysFPvoCCF82a9ZDEPv2lyQo0LAP1PQe0EnfLSImzq+dpADeT+M71KJBTlaxF1ZjUGjluLAi4KcVyRtPxof12ZBji4Zvr+Nx7Bvfn9xkJOPUPiiah/yvEv4dlBXdO3KTYtwNZ6f/a7x6IPpC5dj+cLp6OvFz3tTnHpi0pgOqObEghytCkplKjRiCzj6tMPnwz+AnE+WRdp0BMb3bYryLMgRqlNZehYJyezg1fhjfN6vCgs/S55QyIVT5NWI4DH4c0wa0hBetmwvprN9lQ6YWLmhwcBhGDvIhaV4XmLQcWye/BlmnQhmwY0JPNuPw1ifwra/Cs+u7cGCEeOw5XY8tEJr1Os/Dd1M+bcJIYSQN8D4gc6Dufhq5+/Yf+RbTPjrRbU5gGO9uvDi2jvE3cT2M1eQXIK3Al2Gt4a3ghW9Um7j9zkHS/S7AVv06lQLtqy0kOZ/CEu3BCCTf+eFdJuwf9b3OLl/I7aPGmy02pxSIXFArY6DMWnyp6jBzyLvlprt68CVK/HG38SWqV9iypTJmPrnXaSwWbLKNdE6T2lYig8aV4cF+0sdeALfT5zM0n+J78+GQcdOKw5Vm6J6SZ1dMjfgwOyFOLVvAztOhhitNqfElGuJIWM/Q5e6ziXQ3LYE2DdEl9blYSrQIOrSDsztPxeT+y7ABhbApAlMUfGDDmjlxKd9jgrXF67AmTB2RpN4otEnjV+yTkH4bcYu3FWyE6xlTXTsb+Q2uYQQQsgLlEKNThr87m3A2osnEPWS4KKCman+LnBS+FVcLamxAfTk+LCah75pTfStPfir0OZBxSRthXpeZmzZE+F3cg+71Bddxr2N+Hfl93jyjtZISBxqoePgSZi/cA5GdG2ICjZy/XYm7x43G2v98Rf/9Bqu883U1P/8gKmjR2P0mGU4lCd6r4pyNobTR9jD/dnN1CJ2fIcvuPSzt+BuCfZHV9/dgAurFuJpAj/jbSaUwcqjHjp9PguLFkzFZ13qwvkNRjzWzb3haSGALt4Xh9ddR6z+3JqCOxtP414s23Fm7qjV1l6ftmC38fPlQHAfK1e+JSq97ABX/Y4T9xKghQSu1bvog2FCCCHkTTBOH50K87FtwPuwzxNGJeDajr6YeS+Nf/28Zl13Yk4DeyTdXYaBO/ejgC4BxfQhluwbi3rmSbi2ojemHihipCOtjsGzR6OhxUv66DSfg9++agXH9AfYNuoL/PSiW86CPui2axFq57vRGX9xCtbM2sm/yiJApQU38UljKwT99QnuOC5Bq/quMGMFDa06GeGXVuL3uT+yUDI3cziO+AUfdqwGOwsphFo1kkP/wZE/TdFuSkn10ZHAoVZbdGzbFDW8bCHX72ct0uNC4X/nLHbtuIQo2KP9hKnoXlmh/0ThEnB980z8eJN/WSzcwATfoJltEfroyLzx6cwv8WFtN9iYse2j00CVFImHZ7bgu9VnEMsn41QcuRGreleC6sparI9shWHtvGEvE0KnSUX0g8NYMn09rufZ+DLUGTYfEzvVgLOlYdsnhV7D71vD0Xryx6iUdhHzPp6Fs9n9bfI3Bssr7fEuTBy+HobeOLn66OxZg6sVBqN7tXJQsLygSY3Gg8NLMH399Xx54dV0mLAG3SqLkHhzC2Ztvsr26Iv4YOC8L9DYToDAE5OxeG8qP7+EiD5F9x0LUCvPcaJD3L+TsXb2bv51FjEqf38NfRtZInBvf9xzXoRW9Vxhqj9OkhB+cQV+/2ZLvm1jAaeRv6B7B+44kRj2Vcg5HN1ljnaTXrOPjrw8Wvf+CK1qesHWcHCwPJOC8LvncOTQCdwIT9fPM3BAh4lT0K1SEY6TTew4ucW/fAU1pk3H6CY2SL63F9/PvoiceypyNPl6EgbWsUDijT8wb94NFLoXG87G9u9aw0n7CH/2HYmNL7sx0381jgytDpPoC/hq4Bycz73KhBBCSCkxTo1OpgppqUooldyUivQ3PtKoPcxN9feqEXn+FaqK1IlIL0pMZGOhL1QhJRp3IgyzCpeOjFSuP4NhSlUXbeNY1fwe7zV2hpTrC6HKhFBqDtf3Z2Hg7LZ8Co4Adl/sw8A+dWDPghyo06BMy4SJaxt06u3Cp3kNWc3T5i/EnBFd0bCCLUwy4hB48yR+WzEDU2YvxHp9kMPRIoPrC6DPAy+a0qAu0dq7F5BUw+iVi/FZ8wqwMxVCzf1+mhZSS1fU/nAG1s7rAEs+aW5yt04Y8oEPbFhRWZmqhk6sgH2Nnvhq8SC48Wm44K/a6JWY17ceXFmQA24/pWkgc22KfkMbwobNysGCq7Ss9VdBw91q4AKuPNtFidQ09p7hA3koavbDhzVtIGTbN1Wtg1hhjxo9v8LiQTlLUxxXg0L1TS4tvZugzYtjMOY+HoYk6/9yr9kDVUq8Q46KbcKc4yStiMeJda0FaN7IGZLs48QCri1mY+Cs1nwKjhDlxu7DgN612XEiyT5OZG4seP/YmU/zGtKe4vTWZZgzdTqW/H4W98KSkSkyg0udTvh81hIsnjUsV7M2dpyoinKcsPNokdrD5ucAj3KGnalOjkO82JrllQ/wUb9acBSn4dmzJH1zYqm5FV44oN2VUMRzvy+Rw1J/Ln2JgBgkcOlNTOFAw68RQgh5Q4wT6AR+h2GLswYS+B6X4worpDTBlGEHsXfaYf00pZadfoEsqo7C7/w8/TRgTAk1f9BCk1aMCqyMRDwrSgcaVlh9aWFE9xeODPDBsq7cVA37biTxb7yYpacFglY0xsIu7HOdamPHFa4NjxAONQcjuw+7oDeati4PGfsz/s5K/NDBm/2GNxb2/g5PzVxeXJApgiqfjDY0T7MWIiHwJk7+tgIzpszG4s17cN4/OV+hPAanf/gKU6ZMeck0H7/e5T9iZK6fjkKHyqaA8jH2Te2OTtxABl26YtDqi3iWIYZDvR7oV8DIzTJHB6Qen4runQzpx+9+zEIeAcy9mqBjeT6RpBn6tqwEU0Em4m/9jJFdu6ArNw1ajbtiJ33/rRyB+HlCb8NAChP3I4CrulQF4uCkrMEVDFOv8T/h+UpEOZyc0nCcX/4uXcdj9+M0tu/N4dWkI7IWpzhiz97EY+6WvqwqOn7RDS7Z5dmaGPztOqxfPwXdcq3HrXO+iGSHk9ChMQYMbaDPdwad8eW69Vj/3WeoU9wzTOaeXMdJTey7WZTjRABLDzMELW/EHyd1sfMqd5yIYF9zSM5xIuqLpi292PLqEH97Rc5x0vd7BJbAcZItMwUB/+xg22EaJs3bhANXniBWJYSZSx10+nwyxnVzZYmicapIx8m32PZax0ka4sPj4fxpHwwZ8AHa9eqDz0d6QMUCd+6UJTWzgJkh4UtYoFy9l9U+5WJhDY+cjEEIIYSUKuMEOkUmgYncFKbcMxjYpODGs2WEEkX2PP0kM9H3HXhjdCxAKul+Pa9I+/QYDh8w1JUAyfA7+RD67gpCUc6ISTXbw1nf1CcUvktX5jTDituMw0f9XzgQxKvQpscjMiwUQU+DkVxatTGvzRHv13Vjhbl0BJ9eg1XZbc4yEPbXZpx6ykr48nKoUO35Oh1d3B38md0sLAO+x24glHshEEKc1V+hdjOUt2a5VB2OS7/8gsd8fskI+ws/sG3PdegvKQm+u7A+a/kzfHHsRqh+2QRCcfH7Rzl1xsSZ3VCFL8PKyrfDqOzgxRlWlty6pfPbgBWM6w7CzC+awFF/YAphU+8TjOnmYjhOfWwNwQJLn1TyDWNfKPPpURw+GM2/SoTfKb/njhNBrXaG40QXintLV+UcJzEbcfjY4xI7TnLLiHmMh09CEBGf9pImgcYlMRHzJ30BhLmGwRSyjFzsvEMIIYS8pd5woHMO365uhXZftdBP31yN0hcCEu4uQzd+nn7avIwVWUoCK5jKjRgyCcQvfjjoa0iMvlHI8ytyCMopoG8hFReC4Hz9hDKC4gtvf19ET4/tx/HbYVBKHODTrCs+45rhzBmDfh3rvdHO1kXjBi87rhRvAo+uq/I9aPQnfKov4Uth7uSgT52bKj4MIS/b+DIZpNy+TwnF1Xz9KEKfxrPwqqSkITY48KV54dV4oM/QDqhkKkTyo4P4Hyvsp+mDlwGYOYQFO57WMOfOFCnJ+hoc4H18/mkj2IvVeHblN2y7GsOOWxnKt5uIiVyw42gBc3aYaVPiEViqgY6uaMeJnVz/MEsdO05CwgzzsmQEv/5xkpvEobZhsI7FCzHlk5ao7qxg2yUC98/tx94zkXyq0iCDpYMlgrbswI4Tt3Dj5F78vCkAIpFQH5yqEuIMAeFLJSH6+itsoaR4BJVcZ0tCCCHklbzhQKe0RCGZG+4U1nBs/ir3LeNx7+JxHP/7xotHUotLgpKr2TArh5qFDtP67st4dh1/bfwO0ybNw4/HbyMsBTB18kGzrp9h1pLF+HriYHStl9X3gBuMYCnWr1//kmkBPquj/4CRpUOVwTXSyUB88CP4+fkVPD18Zkj+X2JbH+WdWZSmfoTTGw/jxr61WHWUC3bEsGvwCSb2raKvuVGGP4YvdyeiqTc8ubiQBRV/bj2Pf7csxi/XWLAjVKBiu1GY1thdnwciQl42oEEZJbJBtfYDMf6rRVj21XB0bVgBtjItUiLu49yOFZg1cz7W/nEWj/XVodxgBEU8Tmobvv7VPENQtL6+D1KFORSaKPy77jdsXnsFwSoR7Jws9bV2mvS07Nq6AjV0hTUXyGs1SC9K818vO1hx6TMzkPafzASEEELeBv+RQOcqIuK4i7Ml3OrVKvDheAVLwd2Tf+GvQ1cQzs8p0INAxHLtXUyd4FP3zT03QqfWGgqWVvZwzNeZXOJhjVdoWf9iGc9w/a+N+G7aJMz78Thu852tHSo1RMeeHeGjT/QmBiOQwbZyYb1UohCRyNWrCKEO2I5xo0Zh1HPTl1h2uph1h1q27bksJi8Hn3z9fFzLW7/k2SOMyASmJbaDXpGDqeFhoGlKxOmrntQI3r8W268Yamrc3O1ZMTkZj29eMOQvC7khvTIZwfoybwqu/PQDjnB9hYQ2cHc1Y9sjBH5no0vsgbwliTtOuOUSsOPEIf9x4l4Cx4ldQ7T7oDGqOJpDlJmCiPvnsGPFLMycvxZ/nH2cr7mnsQcjAEL9o/RNJy28vFHD3DBPT1wB1d253o/piAsMzjUa2/McG3qgHHfijA3H9SK0w+xUzUVfa5YR/RQXS7KKjBBCCHkF/5FAJwzH/SP1hTQH725oXNRIR+aNHl9+i4VzvkCXKi8YOij2H9zTd9qwQoWWbWBnmFv6/jmLCG4gLGEF1Pl+AmwNcwGbYejUoZKhWVuJysCz639ho76z9Y/6Zm3J+iHEOKU5GEEUIhO49jFyOFRtBNfsXSWDtXVWSTYSB08+RLxOBIdmE7BqShdUyFfIfS13ryEwga273AttRg5ERX4ZJC4fYhTb9oV29I4KR5J+2Csn1OvdI9eyl6L7oYjilsHSGy26e/FBmRo3du3HLe45K/qXSUhM5HPQg2eGZ2K510O/xlkl5wic2HcOT7IKtYlJiHkT61IEun/+Rjh3nIgqoO6C8TnHid0IdGpfsQSOEx00Sq552p9YMmUq5q/9A2cf5x+sI4vxByOIv/QIwck6CKyrodPoWjDsMQkqDmmLOo7sZJgWirsn87Xhy8MDH9dy0/fhiX1yFtde1g5T1hnvVbJkF5cMBN3dX8QmcYQQQkjJM8JzdLiR1GahKf8wQa7JhFiugIlQC3VaGjL4ZgyJD1djxL6jefouGO85OozLCGzY3AeVZWoEHpyIz5c/MNydfgGrVmMws5cPK6TqkHzrF0zbdJl/53m2vZZg04h6sNZG4NzCkZh72jD0bl4ClP/qX3zUIKfDu0Ai0w/CoFWnIS2D3xXxl7Bn4FAEsPRZz9HJ/5wdQds/MHZm/uficMNLn8LQnoaR1wzfyYo0cjnUQUFQe3nApkSeo/P2yXrmjZwrZKoMd79FJgqkXp2Pj7MfrGODzvPXYVwzB/3dZraBkMo2ELfVBRI5tP5bMWLsr6zIbpD1ncjzPBum4khsXNUbldhW3DVxONbr3+CGl16DhT0rgxt9V6tOzd72qSEhEHi4w5Jte8NzdHKToPGsLfimjbN+mQyf45ZIxAKOYOwaPxKb9EOv5XqOzq6JGG74Ub1Cl/MV1Bw0D8MbGUY91KiUbPux3zeV6Qu3Go0GYm7UBdVTHF22DPvDbNBhwkx0q8xFiuy4TmXHNVt6uULKPq9l6cHSs7/irmPrtz/i6isfyCJU+Po8Pqyfc5wI2XEiz3+cxP2LPYM+Z8dJznN08j9nR9juT4yZnv+5ONzw0qcw5CNu5LW8x0k6O0407Dixep3n6Lx1RPAY/DnGdq/A8iZ3fKSx864UCpkYAp0Sj//6H1ZuDdOPvlYQj8/WYs2n7DyoC8PJCUOw4N6LqmBlaPX1T5jewhES5V1s/nQ8fi/oVEgIIYSUAiPU6OQdSc3UlAtyuPlCSPOMsCZlxfJSFLYRi08GsYu5FJ6dlmDr94NQ6yXPg0jyfYDAhEzo1DF4dP8BP7dgsTuXY/8DJXRiJ7w3ZTNWjnkf9gXUHIlkcv02yZqyR5qT5pqvkL9C87rcdIhZ1x079vkiiqsm4L5TLkJ66CkcGncJRRvI+t30+MdF2HohGIncc2VkXB6TQ6hOgUpoh5xuU3E4NGcIJmw4jjuhCVBpJVDw+VEuVEMjskDxGx5mwHf9TCz76xZCE7ltz/ajXAxV8Bls3BVSyN18TgYuLZ6GpfvY5xJU0GaPOCiFViuGeYmNdfxid7Z+izVHfRHB8o1Qv/3E0CRG4v65bVg+aymOcs3SZOXRbtRQNJDF4ujKpfjj36eIVmnZqrL0LGJQxQTg2uFNmDXzF1yL0UJoUw+fjMk9THVRCZ47Trggh5P7OFEoFMU8TrSIXvMhdu7njhMW4fDHiSrkJA5PvFwGj5NMBP38E1b/ehUBsWw/mrDtJxMiIzEEV3/ZjDWFBTkyB7QcswbL+rAgR6BF/PWdWPWiIMeyFvp9swFfvs+CHBZKPT25ATspyCGEEPIGGaFG521mhc7zf8i5o889uFEZhSsrBmPu6RfdpSwi02aYsnoGOngpDEFcphqpsXfx6/gp+PM/2MedGNSc9DMWd3YHQo5g+qAlKMbD7QkpRZ9g6Z5+qGau4EeRZEHOve2YO2kL7hY0pF3DqfhpZku4mssg1p/40hF6einGf3cK8f+hqwshhJC3jxFqdN5mCTg05xP0mbsP14OjoVQLITOVQ1ZSfQmUF7Dksz6YvP0CHkcmscu9BAqFzGhDTpO3nQzlO0/HuJZukLLcEHHrKAU55B1gAplCAUlmKhKf3ceZjVMwdHwhQQ6Ha1ZoKoNArURswFX8tWgIBn9LQQ4hhJA37z9Wo0OI8TSevRWzGtnwr0QwYUGu4Q63Dsqnh7Fw0jJcKJkHQhFCCCGEkJf4j9XoEGI8qWk6SPg+P6ZyIdSpSiRE+OHCn/MxahQFOYQQQgghpYlqdAghhBBCCCFlDtXoEEIIIYQQQsocCnQIIYQQQgghZQ4FOoQQQgghhJAyhwIdQgghhBBCSJlDgQ4hhBBCCCGkzKFAhxBCCCGEEFLmlMLw0jJU7ToWI3o3RgUrKQRIwq21n2HOMRX/PiGEEEIIIYSULKPX6DgNWYLFEzqilos1zPQPU5RBwr9HCCGEEEIIIcZg5EDHCb2aV4WZAFAFHMa07m3QunVPTKfaHEIIIYQQQogRlVofnagH23At2cit5AghhBBCCCGEMXKgE4FzT54hk/3lVKErzAwzCSGEEEIIIcSojF6jc+vwfTxjkY6kfH30txfwcwkhhBBCCCHEeIzfdO3WHYRxTdYk5eDVUMbPJIQQQgghhBDjMXKgI4Nj16bwtOBqctRQxXKN2AghhBBCCCHEuIz0HJ0OmLa2L+p4OaOcXAydOh5PTq7B1GVnkUjjERBCCCGEEEKMzEg1Os7wqOwOexbkKCP9cf/mWezbeRVJFOQQQgghhBBCSoGRanQMLD3bo8/IT9GtgRsU6U+wd8JIrHlEzdcIIYQQQgghxmXUPjqJgcewafpvuB2vBWS2cKss5d8hhBBCCCGEEOMx/qhr3rXgZsl+RpuCuMdqfiYhhBBCCCGEGI/RAx3vrtXhJGJxTvh9/OVPzdYIIYQQQgghxmfkQEeG98s7gsU5iPTbB4pzCCGEEEIIIaXByIGOFywV3DN0AKnCAWL9X4QQQgghhBBiXEYddY1Te9ovWNTeFRKtGvHhgYhSp+PJ5ilYepn66xBCCCGEEEKMw+h9dG6tWoA/bkZDBSmsXSujSvkKcK8o4d8lhBBCCCGEkJJn9BqdbDJHVK3iCFlKCO48iYWWn00IIYQQQgghJa30Ah1CCCGEEEIIKSVGb7pGCCGEEEIIIaWNAh1CCCGEEEJImUOBDiGEEEIIIaTMoUCHEEIIIYQQUuZQoEMIIYQQQggpcyjQIYQQQgghhJQ5Rh9e2tLSElZWVggKCuLnEELKHhHKNe6Lz3q2RO1KjjDNDMWxr0dh7T3+bUIIIYT8x/TH8r19UAnJiArwxdFfVmPXrWSU5nNtjB7o1KpVCxUrVsTu3bv5OeRtIe42CpUHeEPKv+ZkhpyB/5d7oeJfl2UCCw/0+LQ80s+ex8GHGfzcd4UAjh+8j9724di63R+J/Nw3QuSM7nMXY0RTZ8gE/Dx1MA5PH4ylt/jXZYiplTM61XBFDVcb2Jpbwt5SAUnsbUz+6QYe82kIIcYkgq2zGzpXdYaPkwUsLWxhby5D+pNTGL07EAl8KkLImzYU64/3R1Ux/1KbhvALmzB27j7El1K0Q4FOYcxcYDGoBxzrukJmLoeQFeB0GalQhT9C9K69iLsUzyd8d4k6DEX5vpUgYX8LhFKI5RJo30igI0S12V9iTWtHZDzYj/ZfnOPn52Ux4HP8NqQqTJ5dwtxPduECP79YxC6YsWU8PnARQpd8Fxv7bMWOAldaANuK7nAz0yIhIASBJRZRmOHLLXPRxSMTz/7+EZ9884ifXzTmfYfit+E+MEUGQo7+gEGLg/l3SpsZWsz6ATPauECqUyHyxl/YuPo3/B2Swr+fi3NdbBrUAO7SGJzeuBuLLZtje+9qsBXyryP5dFmk5TCoUxO0r2IPa5kIAp0GKbHhuPrPBSy/k8TWvJSxwHjSh03R0tMCkqyATk+L9OAbmLLlOl5tLxJCXpXU0Rtff9QIde1N2Nk5F3Z+iPX9GxN2P0Y0P4sQYgxeWDCpHeqapcL30G5MeloBa4Y1RSUZ//paKp8uh6Vne/QZOwg9ajtCKlAhYP80jFh5Fxr+fWOiPjoFcWkJ1xWTUb5lJSgsZIA6FWplKrRCBeQeteE+YTyc2yr4xO+uzKM/wX/wDNxnk9+ux6VfcMymRWSq2vCnUAS2xQskKacAt9W1cVGvF+TkJxRCxP/5PFMMmjUWy5ePxpSP+FlvFSG3+G+MyGc4Br1nCHKCjn6DwVM2FRzkFCQ5FcrCznKmnpgztCv61nKCjUzADkGWVi2AqZ07Wn30MTZ0cGYhVikSuWPOgLZo62UBoSoej25dwc9/7MWXq7eg8zeb0Z2CHEKMr1x1LOn/HurZS6FJisTNK/9i/dbdGLtsMzrM+xH9KMghpPTFpSD5JRFLYuAxbJo0FHNOhbCypgxeHSZgTOXCS14liQKd/BQ+sJ/cBXZWIugSHiJ4wRzc7T+dBQPTcXf0Dwjxi0Pq7ZOIOvl8xEqKL+1xgr75ldDKFvUMs/IRo6o1F+booFalG2a9Dk0YFk35Bdv2HcKKKdvw+zvWVi/5z9/x1bqj+OvH/2HMwjdVmyNHs74N4SFlmzPyAjYtuQw+XH01mgykZfJ/64nQ/P16aOggYSsahP2/bkOPJb+i58KtmPdvBFQ6CVzq1sMQhzz3c42qYdv6aGgnRkbELXy/agfG7buJP/yicD9ejTyLTggxEhn6tqmDyqZAkt8/GLNqH2YcuYv9gTHwT9HyaQghb44GqrwX83xUuLpgBf4OZ2mkXmjcv6G+RZGxGT3Qych4t/o+iLu0gb0rK7mpQhC+dhPibibldJqKe4DY2XPx6PvzpVLd9l+ifpICLnQUmJjAipthUgFjl47ED+s+xZCq3AwRbGXcIaFFSlLJNBvURt7DT6vOvIP9cxhdGm7uPonVb7J/jsgbrSrZQ4B0BF/ciYv87FeWnoaYPLGrM1pXsmEnQBUeX7mIjU/T+GAiAxdPXMaFZ+zokzihbh3bF9TElSQntC7PLU8y7l+6jfMlEGcTQl6RqScauisg0DzDv2cfIohiG0LeMmokxr7sAnkLW64E66/p9uVboUIpXMSN3kdHIpHop9TUd6EGxA7WC6bCo5IUqqvb4Lf4WtFGhhBaw2xkfzg38ITcTAKBLhOa+DDEndqDyB1PWdE8R9YAAII7e/D0cSW4dPCBmYLt6cw0pD3+FyEL9rFtxSfmCVwbwHZAc9hUdMzuL2SgQ8bj43g84xArauZiXx/24zvCzssOUq4zAftuVegDPNvyB+J9C666yFou0Uv76Aghqt8ODp80gY2TFcTs+w19lx7i2cZtSPAvZgho2wlbdraGR4Yffmm/GT9btcGGPzuisiQDD36ZgS9+zurTkv81/3nucx13QTl/CAY2dIapiG2bxGBc+vV3fL0nhk+U7zO8gvoF2X45Dju7uPOvCpG1rPxLjtCxJibPbo8mFexgacL2qzYdKdEhuLxzF77LXg7Oq/fRUXQbiO0TasKSf62XGYW/5y7GN/nb8inqYsn2T1FP4Y8dMx7Aa0Ib1HU1ZYGBFukJwfhn449YcCyNT8wTyFFvcHeM7lQNLtZySIU6aNIS8OzhZayadRLX8mcKj1HY9EMvVBSF4tisgVh0jZ9fKL5dryQEuzcdxmYZ32cn4ym2bjqB35P4ZG71sXlAPbhp+XRx/HxenbYfYl4zBwhCr2LCj9wAAFnthfm+PkLD99oEnsWY3/1Qv2d/jKluipRHhtdcV6Au/LyIyzsx5GjWD8jwUc+PMKy6BYTPbmHihst4wM22qWFof6wNwLYf2TmhZQt8VLUczFjez0yLwb1/z2P++WfIabCXr/1ydntlBbp2bY8htcpBoQrIu87VW2Fnz8ow179g+yg1GTGhT7Hv+DXsj33NEl2e786NywvPcPPfc/juakKxm65mbcvc25fjWKMZvuvgDWdFOu7nb7dt4YHxnevhPXaO4rYjtGrEhz/FqTNXsCU7sM2R9RsFUubOP3YY91k3dHLNyLfts+ZL8ixnjdbd8N17TlDnW/bc6fPmEY4IntVrY2zzqqhoZwoTEcsHaiViQ/3xx/4rOJz4/FXD1NUHk1p7o7qzNczZeUHAbfvkBATdv4HlJ54gkFvh7D5shs8UKtf6Zi3/cx/R92cLwT/H/8Fa/3zbk+/71q5SOdgoxPq+b2mJ0fC9ehkL/82dj4vhJevw/LY09LmZ1bkWajpZQM62JXc9iQl5hJ2Hr+bN+1X4Pn2xdzB9ezjadGuM5h6W7DPsVJwUgfPHT2OprzLPuubZPtx6piQh/OlD/HbyHi6k5NtPhS47u5Yo4+F/818sOBOGmNyHY6HHFuf5/gqO3vUwpYUPKtsr8vXzY/LkY15R91XuZddE4NCm/Vijb8OXk4/zLE/Wcuc+z2V7/vwlrdocP31cDXbCeFz8Yy++eZR1tlCgZ89uGFrdEpkRt7B46+Vi3ggSofNHvTC6hiVYFtDTH1MRwTh37mqB54RX3fYQWaBTq0boVdMV9mZS9jv8Meh7Fd+fCERE9n7NWn/u7yRc37UHs3y5lRKhW89PMIqdh7hFzJ+XpTZeGN2+Dpp62BiOcXZOS46LxNWz57AsX74s+PrDFLBfXnjuyyX/d+XPa5nqJIT53cPW4/nyfnHyfXa+SsHFbXvwzRO3vNfg/P1t82v8FX7/tiUcNH74vdcobE7m5+fjNWwtVvb2gSL+IlYOnIVDxWx5Uyo1Ou9GkMPI7GFizfUQSUPKvVtFDHLKwXLOJFRoVQkKMzF0aUpkqLQQ2bjD/uNR8BxeKW+HSZ7QqS6c21WHQpQOdaoaOpEc8iqtUX5Op7wXLY/2cPu2P1zrehn6C6mUUCuzplRkZmjyBFJwaQW37wfAuXI5SMUaaFg6jVYGmUddeEwfi3K1soa+KB5hg4/hObET7N2t2WGv0i9HJtiys+/3/GoC7Hz4hK8qLRIxhrZrcG3IjRVgCXOxCqp0Iaxdy7NCuARiLrfq1Nwm4P5AOtvWSvb76dwZhH2u/IzeGNrEEeJ0JVLVOkgsPfDe8N4Y7cil5+R8Rj/pP1gwbXp6djpDMlboZz+c/Vn9pM7TVEtg2wCL1vVHBx8HWEo0SOXSZIhh5lARbb4Yg9WD8oQor0ynTjd8p35KgzrPji+EyBb1x7ZAA2cx0tnn0jOFMLHyRNsvR2BqLT6Nngi1J36ObwfUh5etDEJ2kVEqVdCaWMOlTgcs+KkHmvEps5nZwJQ7XNSxeHrHMKtINBlIeVE8bGkOK+66rEzCwwJOgDcjE/WBuFihgFMJ1ntLK9RGt6osyOFfZ5NJYKLPe+xwbN0Wn1azYttHxbalDiK5HWqxeXMbmrMt+GI2tRuhX217KISZSEvLQHqu/eesEOqPZyU3pWkhVVjCpXIdjB7RHVMrlNBKcoUkrq+T/nfS2PILWF5wQuOOH2B6hdc7LzzHtCLGtfGBC1svjYodx5pcZ1OLSlgwuB06snOUmZhtC7ZMaZkSdpxXxcd9O2BSoevLLryqNH75ue2k4XZJkTg2rIsWLiWzHR3rvI8FH9ZHNQcziDNV+m2pESlgX54FP5+1QV8LPiHPsU5LbBzUHE1ZUGchYevLLXu6DlJzG1Ru1AaLe3nDg8tfWsO2yF4/dl1gWSzffuPm5807eqxQlZr1PjtuM8DOO3Ze6NijBQbqq8h5InuM799Z3/fNVs4uJ9z3soNJxvJB/Q86Y0U7R3Y2LwF5lofLawXvKal7PawZ/B4aubKARcDKCtx5TShHObYtRw1qg342ua6eEgmk+u0kRcfuLdHGTQatKh0ZOgEkFs5o1b3dc3nHkpXwVFnLoRZAxrZ5hVpNMXt427zfnQd3oyFr2VneZGV6iakNfJq3xVeNC+4ZqMvg8kHWZ9j2L2h1WYFybvd6LN8oINbkSp+1n/Mr7r4S26BKFb747+yO6vavn+/VD1lB82IEO+9ao3GXFtl53LFeY/TyYcGJMgA7dl15jdpua1SwlkKdlrNN2EaHvYc3Pu7fC2vbOBXaJ7NI254LyD7shC+alYeTuRga7ndSNRCza1jlxu2wqlcVZBcT8rCARwVbw3YWeaCxh6LA8hx3Tpvbvy06sHNa9jGeIWLHoDta9/wQC+sXv0+3Os/6cfnRsIKZ6lznQv38nJOCY51WWN6TO0dl5TV2LZdYwL1GU0z7tCGam/AJ83j1fM+Wgq1rMW5uXwpFPLe4UjksTQs7DoFWdVjQxy6sIruqeK9FgQtdJM9d0//TzOwg0feE17GDp2g7T1C3HeyrWbDoPRExvy/A3YEz4Dv4Gzz+OwyZAhNYvN8FLNB/jsjOCbrLG3CP6/8zaCru//6QFZoFELv7wKIyn4iRtK4BK5YRdIm+CPxyEu6w7+cGD8iaHn51LNedWCnkvZrBxoJPP2ka7rE098b8iPBQduKQucHx0/bP3/0rKqEbbPo2hrk0E6rbe9jvT9Mvw71BixDomwQd+377j5oUfCJ4GXUUEvXxsAAidl42qWoOU004gsMFMLcuB8i9UI47uWqVSArn0imxbvTX6Np1CU6Espcs0KlW2wTXF32Njl3Y/AH74csFRFIXVP2AS8/J+oxhGnwijJ//vPh1G/l0/PdDA/8dOZ/VTz224jd9ao4ErSZ9gHrWrGAXeQWLes5CFy5Np7mYcSQI6QIzeHf44Plg4RWkHf0T/bJ+u89e3C3kLkgeQhu4m/hlL0+nvn/iJhdQSpxQuysLIHkCx9YY3d4DJroUPNixHN06cb8zB50G7sJNdkYSO9bDp0MKuWDqMpFRpM45oVi3fTembruEQ9ytyPC7+GZLrtf5ZWQg5kXVDCZyuJZIqYxjiUHNqsCenbgLLpIxCnfUswrGshU/o8fSX9B98QEcD02Hju3banV9UO2FZ1MZOni7wUqoQ7zvGXy27iz25Frn8Cun0G/pr+jJTYt/RMfvd+CnO7HIkNjj/ZY1UJFP91pSg7FjI/8b3PKv/gf3lWxtBdbwrFDwfdHisvEpj6qWQugSHmHz2p2YdSun9rBhkxqowY4TKAPxx4Yt+GjJr/hoKb8tufVtVRM+BW7LNDw6tYtffjYdflq02geRO4Y3dIcsU1vovhVLTVCkyygr7Ix6ryJsRBkIu3oYgxb9YtiWfF6AeXm0b2qXE/RyAV+LSrBjcWTSk8uYr887bNkXbsWEg/cRqYxHYGgc9BUXkbcxflXW/mHT9tsI4/J/nv3GpvV5845e9H3Mynp/6Vb9ZyO4S5jMDj7lcw6Sis0aoJUbW9PkAPzOb/uei3/GqEOPEMeCTbeaNfBhvkCtWPIsz2Gc0i9MfjL0aOrDzk8CaJ7dxRL+uOq1/m/9OUfAtmW3NuVhw6fOVq4CaqivYcIitp7cuq49q08PlncaNiyfp8B6/tg+9M5ajoX/Q/elh3A0MBU69t1dWnkYmkk/Jw4Xfs1adpY3Fx3EWa65LFteJzcnsKvRc5QBl/BF1u8sPYe7+ptxebWuX0m/rtwx8b91XL7h02ft53yKta/S4xGRIIKjm7N+O3h4OcBel4CopMJv6hVNJq6dvYQzfB7v0YkF5/Y1MatNRVgJUnDv3EX8HlfombMIYrD6p18M68htkyVsfZf9hd1+iax8I4dX48YY7VXwzZiibHupdz305AKyjCj8/Qff55P9Ru9fbyCIrZJFlWoY6JK/5JKMyGcq2Di7oRJ3PqroDA/TFERF54/mRGjfqh5qs3OaOuI2Fuc6xvV9SlmIVr1+DdQsZmn7+P5c5zw2/ehnqDiIunkwz/zRp7IGVXfAAHYc2LCTUMrj8xjPHyd99euqg9SpOgY2tyngxtyr5Pt4bN+3D1P/dwo/62sO2XVx665cr4vKAvb1Cz/z/rb7NALiE9ip8Ti2nSp2FG38QMfDwwMtWrTgX5U1QkibeIILSDPDbiBmzzPDhVSbBOWvZxHH5TsTJ5g3tefm5pXih+ifHvC1MVpknLuHZP3Fi+2SAo5ngYkVZDU8IX7RjQGhCywqcH0m1Ei+fBwJIfzFJe4OYg8/1DdvEzlXhJmrYfYrc60Dc2e2cMpHiGAFtezCbUY4En65hRQdC9ScPIt3R1ATj2QV2xoia9hXYoeWhyXMEuLxKC4ZJpaWcGQrbuiiE4+ggoZcE0ghDb2Kb/nmWLroWwjQtxQTQvSyW+0lwcQLrSqwS7I2Dld/3oFjWR1ndGm4vPYc7sSzVbN1RJ2CbxsZUTr8T+zNXh5d7B38/djwQiDKyWiW3SvAg21f9eMLmL+BOzkbaMMv4btzISyHSuDELgavhxUOI2NwJzIZSfqMn//1m2NTuy7auKfhypWAwgvPgiTcPnMNp7Oq/dURWPvvE/2dKYG5JWq+KFZw9kFLT3ZkaJ7h8oUAdkl5CXU8dlx+igh2jImtbdGgJAqf+SlTkazm1iUNCXHFv4g8zw79a7pCAQ1C7t3BoTwFj3Jo5m7FcpMOEfeu49cofsfn2pZiBxe0sTXMLgk1WtRGfdNw/HM7KtdNIQO/6GSo2CaQuVRAn6LUnFV0Q0UugIvxw5YTITnNOdjyL78UgGR2DrR2cEbWKVZanqW3YOd0ZQD27r+Vq8lIBvyu/4PBS3diap5mjyVDnZSGVK5sq0tFNCusGZijhWc5VmxRwf/Sv9iate1ZITbw2m1cCGeZzdQalcsVXKAscSJX1HHl7pCnwu/aLZzit406zg8/3grXn4MsXdzQOP8FJSMSZ4774hFfds+d3szaBo4vKNWolaFYeT0UXJa0LucAJ8PsF8tUIp67NrE8m5IY//JjtxAKiURf4FJGheNCAc0b8yrmvmLXUd+n8TBxcEJduYwda+Ugjg6Df2EnWIfaWPH1CByZOQBbenrjhYNgZUZh1a5/cYctu0XlBljUrz4qyjUIu3IGc68ksyUrWWrlM2z+4yROcFGg2B41a9gXu7axeSVn/U2mqDuXsdIvpxmcMuAq/nqkhE5gAXev/LUW6XjyKAypNg5owc5HTcs7wDI5HPdj8wftzmjkYQ6hjl37T+W6PrBj/OKJO7iXrIPAyhaNCo6qS56bGyrbsnyhi8aVs/ezjxNlwA3seZDEruViOHt6ooD773m9MN9nIjYmFnfCWBCt//78r0uG6tRCfNazBz6duBH3CrpXUkRGD3SsrKxgZ2fHv3rLpcQgQ39NEEFkXpQ7nBaQ2RjaTmbGGk602RLDkKEvcwshVDzfvjIzIbZId8EzDlzUX6h0Mhc4DhmH6j+vQPUfZ8Fr9iewbu6Qt/bExg1S/bGqRnpggH5Wlsyn/HNHhCYQFrPQJKxgBxPuvGrqDa9Nq1F7Z65p0fswZwsjNOX6gRSHBgEsqOEIJaZo5mQJnSoF11hBRGhuhaoSC5ixIE/LCmcF3zDIxLMn93PtgxQsHzIZrVtz/Xn4WcYkd0M57kQmtEGT6Utx+nSu6dAANLBm7wkUsK2gT116MhMRld2eujBiVHPlCp+sYFapPX7Lvexs2tXdg8vFMDUvJOMIRJAUu5rwBYRCQ5OxwmgykPiyVSsKkTOGNy4P8ZPb2JjTUPt5qQl4EpP3bKtOVBqa4SnM4fzcVViOym0+xu7JA7B3cH24CVIRdO0q/hf5fCHH1LUqpn/aAzumf44jrOBxlCt8DK2LEmptZWBSDm0+7IBV/Q3TD6NaoaGlGpF3rmD1jddvXmzq1Rjr2LruntodHV0ESAm5i1/Ox+UrAJmhnAW3UmmIi0nN8172thRL9P0uSoSFN4bULYeY2zdwMvX57a6+/wT34tg+l9ijdb+B2DuFLT+3DpM7oY3T8wV+DztzmLI8KbCrjtkzDfspe/q4KizYOVAml+uHwedUKWdueIhuShJu5e57UdIs3TGW36+r+nfGj/3rw0uYgsfnL2J9WNZ6W8FF3yZUhsof9Mu77F/3Qlc37iA2gYW1MQ7mAjhYwFqfv1PxLDRv/nscl2q4XrG8YJn/GEiKx9V8TwTNTq8wg3d2eVUEz8q18O1nfbB75vDsdT3UvUKhzaAMzFCjQ85xsm5EF3RxEyIx4Bo2nYnJl5+L7m5EDLgsaGprj1pmea7cBSj+vgoLCEesqROaeVdAHXYCCQ8MR6FZTxWHp0/CEZMph1P19zC7o/OLg4mkR1jx92PEaeWwYsdxRoQvtpwJL8FA3QYj+n/CH4Pc1BGtHAzHoczUPG//1CIzh5eVnF3BBLCv1xV782zLERhfw4y9YwJTs/wZjYU6AaEI1pRD9RoV9DdolGEhCMhf4LaxQjk5d1KwQbP+n+X57qNft0d97qRgIkdBh5V9nS651pVNncq/JG8WQVbT79RkhLAgK0cmwpNT9QNpibm+84aZuRgn379YEqKuleRNtoIZPdB5p6iikB7PFZVlMPOunjeIeFNiLiBizEz4LtmLsOuPkBKvZgV/B1jWagKPcdNQeUbzgiqAjEKXkqGvgdKpopHo54/4Aqa4h8GGC84ry8CTRC4yFMLKuQK8bMyhTUnEnUQVMq2sUbWmub7woEtPL+Sp1zqks/RvjDada2nF/k9BhP9j+PkVMD0KwMMnhuRvFy0S0rnTnw7q2JCCl53tW1+/fD0MU+L0bcYhtUX5moZZJSI1zfB8HQtrNCjgLlgdR0t2hLKlTUvF03zjKRRHxSa10NA6Cn+ffpSrM3pJEEAik8PUVAG5OBMqZQoSuH4C+c66XD+F5f3fR8tKtjBJi8WTJ0HwY9Oj0AR9bUOJEZvD1csDVSoYJjdJAh6zC/mjsAT9He7XJZDI9OtqyqIUTboSiSxqET3X47o0CdG2ZQ1UzniCv/6JzDtgS5bMYCz87SROPo1neU4EuYItP7cOpnL9IAP5Jasz9efAzJRoPOb3U/7pflAsSv1x0jIblOf3a5UKrrBRR8Kf27dRylzrrYFa375fjdiQ4AKX3e9JCB49K8IduMJYGwpZKYkJpb8N8tH3perdGPVdzKBLZNuDX8fHz5T6wl7hZCjnkXOcVLBSIyQgBP6h8YbmgMUUdPkK9j+Mh9rGBxPGDcwp3ParVcANjdfYV8FheJpsBq96FVFeHo/HD5PZmb0QicFYs+0APttzF880LBBwZ+v8klKh+gVNQF+fECYsKDAcg4ZJ/trnkAy+/0omkiPZ9a3AbRkAv8g8t6oN0sLgG5kJhyrVUdNGjdCAiOfPlekZhn5BmUoWVBb03Wx6FAb/Au4liaR519VULn6D5U7j5PsCNXYF13oZWg3SC7gBVdIo0MkjBin+UexCJoDU5z3YvbTjfhJUcYZsL7J11he+slm6QKK/NaKFNvV1ixEaaK6cQfTCtXg8Yhru9JuDh3v9oBaIIa/eGFZZfXriQqDW31qRwsQzb8WkqLyFIYJnBXLtC+4siiytCw2cdM8SwXVdEghSkPTjGgTNfn4KXnQ8b81WkWkRkcyWjbu3YuYBZysd4qIioY5IRarQEs41TfR9i0r8YaFFxi3XC+4npUchgdvNAgGizv6IUaM2PD99sRN/lmxJuoRoERadwi4HAohUgdhQ0LKP2ogvV+cbGS7qPqK4/CaxQ/kGnoZ5JSEoCuFp7ORnUg41qua/v2WH9zy4oZ6B2IhQBBlmFp/YHUPruyDV9ya2PCvkhPssCfFcEKuwQgWus0UuUktTmHGzWJAd8NxtTW7kn1/R4ZuN6PnHfSSa2aPW+y0wuXqeMwXa1K8KdxN29rl5BP1W7cWYbUcxnpuOP8VzrSReBzeq04qN+uXhpi7r/sbVDAc079gZ37d9/U7o3Ghmg7nv/v4wLiWZwsW7AUZ3zN/HIgXRSdzGlMPGTpGn9jd7Wz73XCUZLPS90F/2jIZ8LKujdzU5Aq7fzNd8Li91XACW/roDPRdsyt42Hb7ZjcOhz9+yiUtKRRorM4m0CTixl99P+aYvjzzODpizmsbByg4t7I1YhOFGacpe9o3o8/NthJpVQKceXbEguyM02/b6OwhCKIMu48sCln38trPYmNXkuRg8rBSQstVUKZNfPux91nEFBRxc87bJrmijMFyvctfaJiYjgfu7gBsgWel1yYm4qb++2aBnHU/YiFTwP70Lfdbtx9isdbwU+ZJrFDdyVM627LD0AP6MVqDmex9g8cd5O63byCX6PJyhTn/5dS8zDj/v2I3xu2/gflQadDK+cKvgRgDj02R7nX0VjlthabB2doRpQhQuRr28IKkOikEUFzPlqRErgEUlTG5ZGbbCNCSw41jiVAsj27u+fi1Ethis/vGnnG3/za/47bFhy+bPU0Xf9ipEKrmyhYiVH/zwTYHb8jgW3iqoVjsZV0LjILR3RDldLB4+LSCNUokEfbN7LaJuni3gu9n0+yXsLaDcxY2UlrOubNr9iP3ia8o6ThTmcOOa2WQTwdlcoS/faTJYcGaYmUvR8/3rcmroATvulB4TjmslcLPyZSjQySdjzznEcJ3qpK5wHjcG9h1c824kiSWkNZz5C7QW6ouB4Przilzqwq4H35RMaAHTAS25Gk1WAI5A8r9R3NySk5GMjLCsZh9s6bLKXtowJD2Jgo6FBOaN2sHKjX/DpiZsO1XVd7bNDH+MFH3n+rw0/vGGjK9wglmzXAUxhSmEWVWuwReQ8ITlShNPOE/+HNZ1LAzrWyR2eP/z2Vj07TQMaG5T4OdUAYnsIBfC1MIBlmY6KGOfIfVCDBJE1nD0toQ5297KZGO2/yhIJqJTuJObGO5N26N9YbFO+mP8cSscWoEpan46Gt/0cy9mNfubkfDbbTxghUGRSxN8taY9WnIP63yZtNu4HMTdt5XBvV4X5BpD4/VkBuH04wS25WWo1Lg5RnCdh/QkaPJBU7Tmbn9qonDnbhRe9xxpX6s+6oiDcOhsaOHNLzKf4WEkK5jAGvXa1EfrrGYnUieMaVpBf2cqjQXlF1/QfkP56D4uhnElCXP41PeBd66TiogFxwK2ttwoVTnro0C7Ou6wF7+8kFJs6iQEpajZUSWBW3kPlFioqg7Fn76GwqRlJR/0y/Ng12hcCOaGshbAqXo9DLDnN0Subal5FoZTsYbZHKlNBTRwYeckjRKRUUVt5iBH1cY14BT3ENsvJ/LnyhLg549bUaxwaVERg/o2QQ8HVkjl3yqI+v5TPEhghSATV3Tq2Ry9XpK+pKiVcXjGddIRmMGrkhtfSEnG3vssn+vYuaxRW3zfwhWuJbowluhQyZEdtckIDYx7+bGZGYqboansuFKgSv3aaMMfV1KbKvistuHGYWJYCC5lfVFIBIK4viZsW37Qvlp2f5Kc9DpEh2Xd/BDqjyvubr4yKT1n/4ts8FkNFtS/ymGVqYJfItevQwALN3e0ymrBK7JAN7a+chaAJ8XHF9LSIC99LdNHdVHNWYLgk3+iK1eg3HwVwc9VzLzOvsrE+WDDuTE+PBR3ny/RPkfqYQd77jqfmoIHhZ7HLDHsw6aoYy1Akt9lTNl9G8HscLSr3aJIo06+mAwd2jTBiMpmhgBXj53vW7VAFy+WE3Rx8PPNdb5/xW1/+nYAItlha+ndDAs7VUQVfXvSorkbGIU49llNdCTOFNhBKwRH/WJZTjNHrfbtMLO2NbhueW9MSAgecXfIBOXQsKVP9nFi6lUXPby5UUU1CA8MRN7ODQUoLN+/Ni/0ruWqzy8xT07hehHy5+vKKiIbzbv2wFAkXkHkRmeYjGsFS4vycP5sKpwHpyNDxQ1lKoRYIYcw5Q6ejPwfktnJSXfjOKJ8veFZ3RJ2n8yEzYdcACKFWM49TycdSecOIu6lOapw0tEz4dPKAdq0VGi42ldGIJZBwj2jhS2RJuIRUu4b5rPLG9J2XkBcjQ9ha1kNnssWQcMN0yhlUTxX/asKQeRvx1iqAgTcZBeVhjB1cYDj+O9gN4wVgAQSSMRRCPtuMWL0vxGL+B+Owmwe+377mvCYWQNu6WnQ6IeOZdtGlobodXMR8Q+XNp/KbdGipjPMWY5r/F4rHDm/G7mfKsPJemiouaMLXCSZCEhMZBkoCSmpYlRwd2S/wA0Pzd9Rsf4A639pDjf2J9sc3L+o1PsbHOjJ4r3o6/hu6H5c4WbnYv3FCPzSwZl/xRg+CHGldjhwoI3+b2Q8xe95RlNLw849vuji3QDlHBti2u5aGMsPayuWieH/yyyM+5VLp4Xv0l04XGkEuni64b3PxqH5IBVS+SGsxTIZoo6vwqAl+iHjchGhXOP+7PcLvvJm+B1Dj8n/snJbTcz/X0/Uzj7ZCA01hkI7NJ7B1lv/cS2iz/+KoYueci9eTfIlzN9SEZtG14J1tQ/w1e9tMC2V7VvuewVSVjB4iI1dt2KnITUvASf33kCfWm3g7NkGo/rtxsTtEfx7ryMTJ8/eRCuP91HXxgMfDRqIDmksP4pMoNA/gyQDYdcvY/3zjaXRbMAA7GZ5gRu4QqjvM9KQBeqF11WIxFoEXryOHS+Mn5Ox/ZwvGrvWg4dTLUyd6I0xaZkQsX2qb96U8QwX/nmIAu4f5JKInfdC8IF7BZi51cPCURbYutUwetbDZ7FIrebOAumu+NmTXVTTxbB0sIeDNhhXg1Ro6OmO3kM+QrOAh1i0/wG7rBaTgn3PiAH4OCurCaVQ8E0l0pRKtpYl5/H1x/Bv6IIaps7oMPRjOB45mD3y2pWLd3G3SkvUtfZE35FD0J3tWy4z65uoZETh3Jk7uM+f69p164Uvalrrt7M6JBQncwVALyaASJSMW//exqUSvQQ9w6ojt1DxU5YXXGti+MgaGKJSQc2NDyzg8l0sjm7OeoYJw4L2H848gEcXHzja++Czkd4YmJWeHcNShRaPDud73kdxlPPBd5Mr689LemLDscJdI1KTc+6Ex137F7+zQu3Q6tao2bIz/ve+Gqn8+Yw7TlR+xzFqd2CRCu15ONbCqj61Ud6SlZZ1QlRp3wu72/HvsX3BnSs5XJ+EXxT/YtKexyzkVWHPv/fRypNtS4camDKxCr7IdVzpkp9i/6mnuTpBh+F/Fx7Dp3Nl2FRujlXT6sNweWPXQ5Z1dMlPcPhcOF8Yjsf96BS0d7VGrS498VOdWJa/Zewcbgfz2Ce4F2OK2mybzfvCAQEPb2DBqdBc68yfR7I2Jrdf5YYAlWsuG8L9gHdz/NK9Kspx56OMcNzzfdkNOA98NbolGthxy6pD0sNrWHzpxc+uep19FXf1OHpc5V/gBX2k9X277GHu4oRyYlYAfhoAP21B50sR6rdpgc6e7JqZ4IdtB/0QogS+Pm2LdR28UP39Jvjk8QlsK+bIazY1G2FAk6qwbV4T3dRpUGWw0hZbR0OzNXa+v3wBK57w5/tX3vZM0HWsv+SI2c2c4N6gDVbVb4E07prCLS47VqTRNzBR/0y2Ajy9hMHfXeJfAPrnl+dz5eR5nHTphA5uTni/e2+814ld+/XPf+DyvgSR/+7CiNOl1bT+GX698hR1uOOk4vPHiTriXgF9JzlFyPclwGvYFLT1ZBdobShu/Hq+4PIoz2ncj/jlQy+IEq5h+adTcfCl1aYFM3rcGRUVhQcP8j6O6m2nvfEXAr5ch4AL/khNSoNWaAKJqSnLKGJok58h4X4oNFnjC2ijkTh/GZ6cYWlTNBDITSGRCZEZF4yoXT8gcJN/zsXnlckhkWqRka6FkH2vlFsGNknYCSkjKRJx5/bi8Vd/5a22DTuDkBm/IvxRNNQaMcQsvViogiroBoIWrkH07fyFQ57KDzE/HUd0RIr+Di/3OakJ9+wYLQSGeMCA+/4pWdsmAwITBb9cLBE7sAXmeZsgZAu4i0cRKugylQjwY0EVPzs3TUQquBpgobk5TDMTEcuV1zOSWbAggEzG1UdpERfEN58SSiBnv2vKJv31XH9CMbxWsIMz565QDqGJif797MnwQX3gmDNf+tzw26ozOzB+6d+4/ywJ6TpWgODTSjRqSCxzjaiXEYzlny/Gwr23EBCbhgxhzvdKNGksbxQ87IqQbcOc3883sYKoHnfSUeR+j3ugJ/eGECbZ8xWQ8wWKV6dD7J5tGDJlJ07ff4bEdF3O98pZIZPlJfPnxnllBeR/V2HLlWhWtrFEzYHrsHFmN3jl34DFkeSPWRv344/bEazgz/Y/13dCqoMqIQz/HjqA8UcL6gDLbYucpiBZfUZe1MZbF/sIf14o6KSflzr4Or7cdh7X2fGRrpOwPMC2vzYd8cF3sJ4t59LAQo6rXLiCy9abUUjlnl8j55/Nwzw+/zc2XApCjFoCO1d3VClvDzNulK5953FNyQ4IromqlT0qOlu8XhMR7nuy+6CwiQtyuAd1Bt/G5v2+LwnUXpHSD8uO+SIsNZMVWGSQiXPtA7ZvZ/58HEfYOSqF7xcjF2UgPvQhdv1xFMue5BT/pBJWCNFv59vYsPsmHvABUFGkBfpiSyEPSH4dXF4Yu+kI/robgVi2fmK+H5Ypuz5o2KLL8o2kEHn3PIZvPIGjDyLzpjdl5zSWt+VccPC6uKA1a79yE3duy0hFxP2LWHMiq/DPScXu3bsx69Btdj7LysuGz8iQDq0oZyCFVyLk9qOhIPVcPsvV34nrk8AFYFlbSL8tf/4Hl0MTkZZ9XKUh+ukt/LD1FLbnKzhH3jyHmX/dxCN2ftXoz9syCDOU+vX8dtMp/JFd5s3EyUMn8dvdKChhCmdPD1Rxt4Ygyheb9/oinHsQEdtm5nZOKG9vqq89ysGfR7KWnzufQIOUZ/7YffAKznPZU8SuP/z56My+01hfWLPXbEKWL9j2Yd/Dde5e8Vfuh9MWxkj7Kjd93y5n2InSEHHvXyw8EZkrr+SQVm2CCU2c2O/G49KRC9jPNwWNvHIev/kmItPUC70/Luz5LC8X53sTP557iKB4Vt6SGI4P7pyQHBOMM3t3YWTu8/0rb3tOJq6dOoQJf1zCtdCEvP3xJJkslJLA6nVu+3Mj0m3dgyVnDOtgyJvc98shzmTlJHYtKuamKZbIm2fw5e5r8H2Wmus4SULw3X+x6LfCnndUhHz/OmSOaDV2LZb2rgpTgRbx1/7EyocvvvJWtDE8nBUJ4fjnNU7lAnd39+KXwwkhRFoFQ5d8j09qWBkKMLoMpCU8xZGvR2HtPX0KQkhZlvV09YwCnu7Pq9G6G757zwnqR2cx5veiFPQJIe++/li+ty+8zRX8zT0W5Nz9FXMmbcX9l9wfHLr+OPpXFSP+yiJ8Ov1YwQPKFMGbbElICCkL1H74aXxfDF97Er5h8UjTiCE3laPYlUuEEEIIKQOkkJkqINGkIjHSF6d/mIzBE14e5AA+KKfvt8cCo7CLxQ5yOEYPdCwtLfUPDSWElGVqBOxZgLEDeqJz+zZo3WEwlt7i3yKEEELIf9BPGN2uNdp26IKPPh2Lb3feQp7H+xTKEab6QSMSEfPodcKcUmi65uPjA29vb31bU0IIIYQQQggp3FCsP94fVYVPsbfH51hThDEnCmP0Gh2JpKBu4YQQQgghhBCST0UzCFOVUEaGw+/1KnSMX6NTq1YtVKxYkWp0CCGEEEIIIaWGBiMghBBCCCGElDkU6BBCCCGEEELKHKMHOgkJCYiJyf8MfEIIIYQQQggxHnpgKCGEEEIIIaTMoaZrhBBCCCGEkDKnVIaXVigU/CtCCCGEEEIIMT6jBzqVKlVCx44d+VeEEEIIIYQQYnylUqND8hPBwroGarrUQkUzE34eIYQQQgghpKRQH503ohw6d1qIpSOWYnqTavw8QgghhBBCSEmhQIcQQgghhBBS5lCgQwghhBBCCClzjP4cHR8fH3h7e2P37t38nLeZIz7p9yOGVDEzvMwIwZGfJ+KG9/cY06giLCVAZmokbp39Dl9fugu1IRUgKo/u7WegVzUP2JqbQKTLRHpKFB7f3obFxw8igk/m0GAdfuhaHfy3F4z7zS39sSKUe5G1PFIE/zMNn5+4oU/CqdrpD6xu7AR12GHM2rgIt7mZjl9h6+g2cNKnAFJ8V6PPGUt806sX6jgo2HKpERfwN37e+y2OJnIpsr5fgNsHF+BR+THoXNUJCqEOmao4PL6yCjNO/o0U/bflI66CYSsXoY+3DNEX12LU7INI4N8ihBBCCCHkTTN6jY6/vz+OHDnCv3rbaZGengqlUom0DBb/iS3hXH0qRjarCIUmFalqLUQKJ9RrNwtfevEfEXqif59VGN24MuzNxNCkKqFM00Bs7oRqzb/Eil69YcsnzdSokMq+O/v7wQKKdMPr7Ck1DemZhvSvTKtCmv470sF9hdSiNqZ1/QT17ERQse/NgBQ25dtiRJdB2ctkIIVzjZHo6G0PkUppWE+ZLaq8NwOLW1Th0+Tj+h7qelpAKJDCvmoT1ONnE0IIIYQQ8jYweqCTkZGB1NRU/tXbLgp7dvXCR4uG4o+nSkAgg1sVF4Qd+Qwffd8JHy5ZgH9juADIFhXK19R/wqbGBHSvagGkB+PEL93QdWEnfLSwIwZsP4NQtQg2VbthoKs+KWJuTkL/Rez9rO9noUfYldnsNTePn5YNw/qsKqBXFbUYI7nv+Pk8WxO2mHY14K09h3kL27Fl6oxxJ/2RBgEUzjXRxPAJngR2jjpc5Jf/wwVD8eujFLb+crhX7ooCh0sI3IWd558iPjEMN4/txDl+NiGEEEIIIW8D6qPzQlKYJl/BxktPDM3U0u/BL5YLUFgMIBSzf63QqLInLKFB5M0NWPIkq5FXJmL81uPwk2QWQ9jBw9WOn1+6hCZAwNXFuJDOvcrEE/9gffMygVAEETcrmw4pj/djVdbyawNx3C/Q0GSNpeXW9HkJOL3wc/T8aAAmb77FQjZCCCGEEELeHkYPdDw8PNCiRQv+1btGg4RnN+HPvwIi8fv2zmj31Qd8fxk7VLIyZ/+L4dR4AY7P+zvXtBPDvbn3RDAzd+c+XPrSI/AwQB/lGETOw6CvWqDdognYx88yyEB8HB/MEUIIIYQQUgYYPdAxNTWFnd2bqdF4fVyfnWT+74JkIE2jYf9nIjHCH35P/AqcHkUEG5KXNm06kg0VUIQQQgghhPynGD3QkUgk/F9lUSJCU9LY/wJon+3HpK3DMfa5aQwW34sxJH+OECYmXK3Pq5LDTlqWtyshhBBCCCGvh/rovJYEnL1xD1E6IaxrDMOqTr1R1YR/64USEaJUsf/FsKvcA/1sC/uQFhlabnQ2KRzLd0BDvrOMxL4/elbKO24aIYQQQgghJIfRn6NTq1YtVKxY8d14jo5ZHywYMgjeChYBShWQc8/NSU+FimudlnYHm1ZPx/MDZZuheadNmN7YhYUjjC4DaalqFqKwjSuRQRi2B+O2rEUg914uIofJ+GFYV3hyH8r1GaFUjKh/J2PYqTv6dDY1l2F9z/qwEXDJ0pCawcIemRZBD8Ph5FMJisw0JITfxO49M3Cz7hYsruvAflgMmYJ7nk/W92Yg7PIcjDlr+M4chT+nJ+uZP9Lcz+nJwxsTflqObp4mSLi8ED1mHOfnE0IIIYQQ8uYZvUaHG176nSEwgUxuqu9XJJewyAICiEwMr03lMkMg85wUnD88GGN2HsTN0HikacSQc+m57xBpoBaaoqAeSpnPVmDm7ztwNd9nZNBAaJJTWxN352ssPXkLEUq2HSVyKMRpCLi0Hj88SQcXoQpEclg7usFFzoIn9r5+Wbkgh/uwQMJ/rwIyScFjpxWfBaxNuZooFeLCQwyzCCGEEEIIeUsYvUaHG4jA3t4e9+/f5+eQMsHzc/yw9lNUkcfh4oKPMesUP58QQgghhJC3gNFrdGJiYijIKYss7WDGVXGp4hD2hgaVI4QQQgghpDA0GAEpFrGFGUzEgC4tGn45DxoihBBCCCHkrWD0QMfS0lL/0FBStrhWsYWC/a+KCwNV6BBCCCGEkLeN0QMdFxcX1K9fn39FygqFqRAZSiXiw++DKnQIIYQQQsjbhoaXJoQQQgghhJQ51EeHEEIIIYQQUuYYPdAJCwvDgwcP+FeEEEIIIYQQYnxGb7pGCCGEEEIIIaWNmq4RQgghhBBCyhzj1Oh4T8Sm71vDSQRoksNw78QmLP75BpKp7ogQQgghhBBSCoxTo5OQCZGpKUzZZOlYGc0GfIuVE2pCzL9NCCGEEEIIIcZknEAnYjU++6A1Wrf+CIsvRkMLGbwafYwGUv59QgghhBBCCDEiI/fRScTRJ7Es0CGEEEIIIYSQ0mP0wQi6VHGEiP2fEuGL22rDPEIIIYQQQggxJiMHOl3wXiVLCJCKwGsH2b+EEEIIIYQQYnzGDXTeqw8PCwH7IwoBh5SGeYQQQgghhBBiZMYNdGJSkJbJ/WGF8j3rwpyLeQghhBBCCCHEyIzzHJ1sMjQYvQRfdq4Ce7kY2vRYRATdw4FJ32AnVfAQQgghhBBCjERkaWk5l//bCDQIf5QEubM1FJDAwtYONnZA5K59uKTikxBCCCGEEEJICTNujY6sD5bvGI7aZlrE+h7Ats27cfJuGJRGrEMihBBCCCGEEOP20WngDWcF1zEnBP/OWY19dyjIIYQQQgghhBifcQOdqyGI03B/WMGpuVw/ixBCCCGEEEKMzbiBjmo7LvilQscCHc8mjWDCzyaEEEIIIYQQYzJuoAMVdt8PBTfCtJ1HM5QXGeYSQgghhBBCiDEZOdABHE1NoH98jsISFaT6WYQQQgghhBBiVMYZdU02CAvWN4G11gIuHo4wEwEptzei78Q/kconIYQQQgghhBBjMU6NTgMvlHevjCrluSAnE4n+h7F87g4KcgghhBBCCCGlwmjP0bH0rAkvKw2i/R8gjMaUJoQQQgghhJQi4z4wlBBCCCGEEELeAKMPRkAIIYQQQgghpY0CHUIIIYQQQkiZQ4EOIYQQQgghpMyhQIcQQgghhBBS5lCgQwghhBBCCClzKNAhhBBCCCGElDkU6BBCCCGEEELKHAp0CCGEEEIIIWVOqQQ6Iq++cGjYCmIBP4MQY5B548ORI/FRNTk/g7yr7PquxL7Tp3Hsl2mox88jhBBCCHkVxg90qsxF9f6D4dVhCqp2ao4Si3UkDjBxrgm5gzOEZTaAcke91b746nQgJi0byc8jBauG8euWY1zv3hizYDEGufGzX5sE1l41ULt2DZS3kfDz3gC7vli57zROnz6IFb34ee8cESzcq7FtWROVypnw8wghhBBCjKMUm64JISjJiMT1M1Qauhi1+o6GuZifRwgjEApLMGN7oM/0hVi+fCGm9/Xi55HisUanLxewbbkEc4ZW5+cRQgghhBiH8QMdv4V4uPtPBBxdhAcH/4GOn01IyfLF+q++x097dmDN9MnYEsLPJoQQQggh/0mlUKOjQvr9LXh25Qw0FOUQI8oIO4dtazdgr28aP4cQQgghhPxXCdzd3Us+/PCaier93odZnjAqARG7BiPovop/naUpXEfPhqtdKAK3HIa4zadwcreACFpkpoQj8tRshNyOzJf2xfFZ2t2VuLv3KPuGYvDejBHrPoBN6FHs2SFBk89awM1SDIEuA8qwazg1dwhuPc23DhIf1Ji2Cu818IC1uRQiXSbSU6IRdP4HHF6yFUl8MlmX3Rj+ZT2YhhzEL4PGIJZ/bRF3ETs//gR+7t9hwIZ+8BIG49zk93H2HtdH5wg6VzeF8uZCLJu0gf+mFxN5jUTbaZ/Dx8MG5iZC6DLTkRL1BHe2f4FThwP4VJys7xfgwZapCK8zB01rOEAu0iEzLR6Bp77BzuX7oOZTv6oWXyxHn2oy/lVhknD3t2/xw/kU/vWrqIiRG1ehd6W8gw+kPd6FicPX4xH/OkvFkRuxqnclqK6sxfrIVhjWzhv2MrZ9NKmIfnAYS6avx3U+RspK+8JhDdIeY9fE4Vif64dk3r0xYVgH1K3gCCszWa4BOLRI8v0NX479CU/5Oa+E66Pz43DUNE/F7R+6YOJOfv4LSeDRfQqmf9IQnrYWMOH2a3oKop78i9+/X4SDYXwyTtb3i+7il+98UWNMN9R0Uujzsir+CU6vnYKlZ5P5xAaSCv3w1eweqO9qrf/uDGUE7u3diJs1J2NoTVH2cnIDC/w4vCbM+c8VKCMUx2YOxKLrhpdZn5GFHseKI5bo/0ldOJlJgEwV4p+cxtopS5FvcXgiuPZbglWDa8E88QZ+HDUFf0bzbxFCCCHkP8U4NTqsYK1JVUKt5KZUaIoUcVjBsk0vuLjKoGWfy9AIITJzhUvXxXCtIOXTZLByDv+9qemGZnBaNStgZf2WYcpQZ7x2EzmJjQ+afNoabgoNUpUq9ssSmLo2QedFW1A1a3E4oqposPRPfNi6EuzMRNCw9VWmZUJs7ojKHb/GoMVjYMonVT2JQzr7X2zpxNYWkLta6QvSQoU97LjuH6b2UHBxgToOsffY/8Ug9JiBj1dMQ6PKdjATZ7BlT0WaRgJzJx80m7gHPT524lPmJkG5FjPQqJYdhKpUpKbrIJLboELnRejzRV0+zavTpCuhZPvjxVMa0jOKu7c0UKXl+i6Vpkj7Xe7WCUM+8IEN0qBMVUMnVsC+Rk98tXgQssYw0KjYe/z3qvRVkTo2L9dvcVNqGnvPkJ4jqTMRa5eOQLvanrBjAa8297Kx9VRnpLNfLC2swN9/CVaOa4sq9uYQawzLoBGbw8mnPSasXoo+5fikuUkd0XxkZ9S2F0HF8k66VgSZTWV0nLoc47z5NIzItT+WLB2KZh4syBFmII2lzRA7oE6vEWhrnze41apVLB8atkOafl9zAVfubWNYttzbMpu0PPr0bQgHiRqp7JjXimSwqdwRU5ePQ67FycUazRtUgLVIALF1FTR4j59NCCGEkP8c4wQ6wcvwcHlP3FjGTUsRGVeUSMcCVhZBeLTqQ1xnn7u+5HuExrDPCe1hW+N9frS2q4j4qZfhe3dfhpL72uQ7eLw667cM0/1Dp1470IHCFRaRG7Cua1Us46b5Z/CMFcRENtXh04FPwyi6LUSzGuZAeiguzq2LRV19sKyLD1YuOI0ItRDWNfuiUR0+cdwjJKRwneVFbMOLIWcFUGFCAlJEFrBgJWzTmo5QsGQZ8aGIM3ziFTmg2rhPUMWCLU7wUWz/qAqWsuVZ2uU9/H4mHGqRNap0nQUXPnUOCWxddLjLL//SLp1wxFfJFlQGl/oD4cinelUX/jcHU6ZMecn0DX66zH6rWALx84Te6Nq1q36auD8A+esLCyJzdEDq8ano3ol9rktXjN/9mAUgAph7NUHH8oY0gT9PQG/9907E/gDuW1UIPDgp+7f0U6/x+ClX9UztTvXhIRcgM+Yq1g/siA7su3On7/3ldkTwaY3OqjPG96gJSxZah56ajx4duWXogi595+NUiBpC6xroPLSAgZvFdnARXMH8Hh0N6Yf8hHvJXFZwR93OtfhEIlQZ0B41LAXQpvhh98Ru6MzWr0uXvph/PhOOjnlHp4vbMx2f6LfBEPz6gKu50yDi7Nzs7aKfeozAqtuG9LlJyrlBdIVf/i5dMOSne0hm+0rmXhfZi5NHDPb/fgaP4pIQ4Xscew7xswkhhBDyn1MKfXSKSouEOysRn8wHRRl/Iz4wxhCwCMQlNyx1UanDce/XRYjj222pz65HINcERiCEQGSYB9jBs4knC9E0iDr/PU78k8jP10B5cg6uPmSFOqktHGrytShJ/kjlysxSO5Sr4wYXezOow3wRqjKFmaMMIplYv0PUMfeQu1VRkVl2QkVPFuVoonBr00g8zWoNlhkG/w078JQVWCV2FeFsx8/PpoPy/m84k7X8mQ/x8FIguI8LhGJWrC1bdHF38Of663ztSgZ8j91AKPeC7VtxCYzgJ5TboXKD6nB+g4/zMW/cDF5WXFa4iM3fnWXBgUFm7Bn8cOA+klhwa+dRG89V6uhS8fBQTrOwzNCj+DfA8EIoyto4rvigoj07JjMRe3MH1t3h6imZzFicWbcbdxMML0tE2iMcXZq1/JkIPfovDIsjRPbi5JN6eSVGfvwh+o1bi3/5RSOEEELIf89bFOgkQRWV1ZvlLaCOQfRN/u9COcPezoz9L4ZDm3X6593kTBfQrabhPUW5yvrUSAuBKp2FbqxALRTbwcZagoSgc0hMkcDKqzlkrtYwZQXvpKjHhvSvyq4mrLiOEGIHNPo297Kw6c8JqMq9JzKD+XPPmNEgMcKX/fvfoIoPQ0gG/6IEXf3zJO7GssjY1Attxy7DtoPHcXjvdmxcOhtDW7qy0KL02FSx0/eJETu0xDenuefv5Ey7RtdmwTmXFezgrk+diyYekY9fFh1IoJBya5OO8HtnDLOyJNxHXHEr6AqQERcOPwpWCCGEEFIMb1Gg8y5KR0ZGJvs/E0lhT/DEz7+A6RFC2GQQjbj4VFZOtIRltZYsKGFBTfAZxLDCsYV9bdhZcn0bNEiJ9DUkf1UZqdBw0UpmEiL8C1oWbrqPyFIaepkbjGD9+vUvmRZiVHMuICwDHm/Bl70+xLDvf8OpG/6ISNRAbOGESnVbo/+c/2Hrt11hyyc1toy0DJYruawQBn8/P/gVMgUbkhNCCCGElDnvfqAjkUFU6u3assQiPlHf5gna0O34c9QH2P7c1BnHD2T1zAhHRAx3u1sIqV01WEgTEB/AAqFnyfrXjjIJoFWxQKeYPTkSHyNFvzhaRB3oWsCysGn8cNyPMSQ3NuMPRlCaRDAx5XpQvYwKT0/8D99NHoF+PTqhXed+mHvwCdIEUjjW7oyefB8gY0sOTgQLqVlWCMfhCaMwatTz07jv/mKhd3Fokanl9pkEtuXz9fOx8oFN1ugbhRLCRMHVKRFCCCGEGM+7G+jExkNfPlZURLnmdSF8I8FODPwP3EW0Tgir+hPx6awxcHhh5YQG6ckq9q8YFh5ukGfEIOY2kBYYi3RLN7jYshKiOo4bs6B4Enfi1r1o6IRWqP75YbT/uAFyDxBX2ow/GEFpiEJ4EtdRSwqner3Rw/UVG6CpYvAkQgl9S7kX9AFyaD0SXy+eh6mfNIJZCeTl5LN7cTdSB6FVPQxdNwe9q71wcOdXFI5zT59BxwId52af44uaJobZIlu0+qInanBDChYoBcFJXCQugm2N7hhcgf8cIYQQQogRGCHQaQCnoTtRd9JufpoMRxvuZyxg33l79nyfzm1eb4CBpC2IepTCClsyWDdfgPpT+d+bvA+Nxs2DeQl0Ki+KjH/G4NhpbkQzc3i2mYwR+/wx9cB9TGLT5CNPMW3TAtjwaTnqqGSoWEHP0t0J8pRYcGVopW8UUk1d4WQL6NQJSMj9qBueovoE/XcWNI3fsIQfGS0FAUu+xZXQDIgsyqPR6J2Yduwhn+4Bpp/ww4BRPvqUZYHn4JXYceAADvDTim5eLDcAMs8uWJY1f+cqDH2tWpQkHNl9DeEsUhHbN8aYnw/gIP/dh48fwIbhOV/+3vydOH36JI4ezFmmg0eP4NdhNVnu10EZcgMnCwxiq6Fdi+osSLaDZ7P30fqFjx6Sw2dwzvfnnfZg43h+KDLVJSxZexIhaiHMy7fCyDV/4dghPt3BIzhxZDPGVDAkfXUqXP3xMO4mskDKrAp6rtiPQ+x7Dx78A7ObaBEZxSd7jgqXf72IpyzPC61qYuAmw+e4ZTp07Ah+nlzgMGqvzHn4Bhzm+iMdXIFe/DxCCCGE/PcYIdCRQCQzhdQ0a1JArP8VIUTynPkSqeQ1R1JTIf6vmXh0xR8pynQITPjvVoiRCSkkpVZXlYin37XCppX74RucAJVGDBlbZ1M2ycUZUAstsp+jw0m+EQ4l2xYycwW0sf54xuZpo/yRqJJBJgU0iREoaNAqgUSm/86CJoVcnjMyWso+HPusO3YfuonQOBU04qzPySDSqCEye35w6XeVWCZn62WaM8kMo/MJ9OvMz1PIwWa/loxLizFt6T7cCmX7VyuBgv9uqVYLsXlW9YUdykk1SGWFeKmC/202yYVqKBNCcffEJkyfuOG5h5ga+OOOfxTULOemPH6Iay/sfC+AhB1H2euXb5LnWtnUf7/H5yOW48CNIMSlaSDO+pxcDE26iHtsU7Flhm7DzO9+x5WgeKSzbSJneUyiicTlnzfD7wUDPWT6r8W0eX+yz8UhjR0rcn65ZdBApHhuOMBiUdhy38cNZBBZvIezEkIIIaRMELi7u78LHSQIIe8C5+HY8L++qCyJxj8L+uDrfIOyGZ8d+q78EcNrmiHlxjp0m7yHn08IIYSQ/5pSq/cghJRtEpdWGDe7IyrJAE2ML06WepDDMYWDuWH0wrjIJ4ZZhBBCCPlPokCHEPLqvCZiE9+/xtDH5hSO/ToHH1a1BNJDceHnH/APn7RUcc+J4kYv1KUj5ultfiYhhBBC/oso0CGEvLp0JbSirL5BCog1qVAmPcOTy/uweMwwfHOseANXvzbrGtA/w1cTB6rQIYQQQv7bqI8OIaTscBmONWu6wlNzD//rPQP7+NmEEEII+e+hQIcQQgghhBBS5lDTNUIIIYQQQkiZQ4EOIYQQQgghpMyhQIcQQgghhBBS5lCgQwghhBBCCClzaDCCN06B6h+NwKftGqCqqznE8VeweOB8nOffJYQQ8vYYumo/PiqvQXLUU9w9uBWr9t5FKv8eIYSQt8tbEOi8j9njvsH7dkm4tqMvZt5L4+cXlRxVqg/C++LL+OP2TSTnW5tBA0+hX0Ux/8og8O/uGH4qgX/1BimaYuqamWjnpcipWou7iG8/noXT7E9B2wXYNbMxrA3vGOR6v8wRfoHNJ3uigu4xdrUZjvX8bELeLbUx6eeF6Oyuhu+WERj7awQ/n5QFozaeQq9KAv6VFqlh57B+5DwcVvKzCCGEvDXe+aZrji3WYXnvT9Crx0IsaGqPrMtPFnW6EkqlYVJp3qbKq0r4YtVsdOCCHE08Hh5Yis97tkbr3EGMWoVUftmVqWp2SX1HKZzhU7s2ans7sbCU/BfVnvQzjp4+jdPbZ6MaP++dI7VDxZosH1f3gKWIn0eMrAs6/v4UX50OxNAvnfl5b9YPI9qgdc/PsHTnHURphFC4tMSYlWNQOf/FhxBCyBtXhvroiCAsoPDx+5/d8NGiTvppd2AmP/fNMx00Hp0ryABtDC4u74/RKw7jaTz/Jk93bh4GdO2KrmzqtvIGEvn57xpB0zGYv3w5ls8fgyb8vDdOagVXr/Io724HGRVQSFH4DMLsxSwfL5iMbvb8PPLfFB+Awz9MwJCvziJCC8gqdMGUL9yfu9FGCCHkzXrnA53Iv7/Edwf/wq49UzD9nyi8Gx2O3DCyZVWwMAfJN7dh1tFXba5HXluFzvjsy8mYPKonapvw8wh5B8jqfYpxI3uiiaeCn0PelLRL87Din2fsuiNFhaaDUYsiHUIIeauUgRqdBPx7ZQU23Xq+f85by7QHfDy4TR+FGzv2G+YRQkgRCCTmcKrZBgOmLsLi2SPRs4knKOR5c6797zpCuGuPY0W0c6NIhxBC3iYlPhjBx32PYJiPAkF8h/+s19HXZ2LIvguwbfUztrTygiBoL3r/uBJJuQcj2L0R8fVH4H03K5gItVAnh+PaycmYdzMib/+UJhtxuGNV5BtiAAe+H4Q1L6gcyRqY4OWDEVihactvMKxuFThYydnvsGVJi0PY/f1YeWArHrxmZxnBx8uxf3RtmCZcxuIeM3CUn/8i2QMTFGUwAptW+HLuMDSvaAcrGdtKWjVSY0Nwbe8izP3jMZ+II8QXm0+iZ4UEXFmxFBGdvkTHSjaQshhMo4rGg7/mYfomX+TZpIoaGDFvBjpWt4cFS6hVJyH0+h/4LrwNNvasgLiL3+LjWWzpBG2xYNdMNM4zksLzstNzcg9GMPIyqn7bE1XLydj210AV/QB/zZuOTb4lVPvl3Q9fj24Gh5Tb+OWbjbik4ue/lj7ovnsRavHrrFWnITkmGI8OzsSJP66ztcil7Z8YN7MRy2kGsedHY9OBFugx5UNUsjOBUKtC9P1DOPb1JEOTxldNz8nzGZaHU5MRH3QDV9Z8gZsPc40T5fE1+q0bggryeNxZ1hp/Hc7XhrLZFoya2wrlMoNxbtL7OOvLz38FXB+dhZ3dIY04jbH9vkWRvsKsLj6bNRYdqjvDxlQCgS4DaQkRuHf8B3y78TKS+WScrO+P//t7bEvviSEtKsHGRABdRgoi7+zBvFk/w0/NJ9YzQ/Ox32HUB1XhaMa+OzMd8cH/4uffVOg5pSPcY7OWM2tgASn/uYKl+G7BiLG/wjDsQK7BCH5ZD/8Gn6F9ZRvIRUBGSiTu7JmHWT/7Ic/ivAKRU2P06tUB9SrZw5RvrpupioLfhWM4eOQiAl93CLDBRzBjoDdUt1bir0cfoGM3b9jJ2EmBbaO4R/uxb+Y0hCTmOwladsZ7X81Cnar2sJSLIdCyfRUfjocHp+Pw1ovIajRsP/k8hnVyhfL6d1g/ZTOs+NfaR9uwcuRspHViefZLlmcTr2HngI/xIJXro7MaDRyECD3YFD8tD+e/6cVkTRehy6j2KO9gCZlYoD8WE8Ju4vLKIbh6N51Pxcn6/nBcmPEbTIaNRC0vC0gEWmQkR+Le9gE4uOPJS1oKNMe8Hd+guV0G7v/SCWN+fmd7UxJCSJlT4jU6EcoU/UXB0qoJTOAMB1MTfbtla6sa+qZaFcxM9a+Tkp4+d6G3qfs52rgpkJnGDRwggNTcFU27r8bsivnaFmnSsgcYUCpVeQuQr02Oll03YXbr2nCxMoGWLYtSqYZQbgevekOxaPAEVHrNrSZwMIcp+18XF4G/DbNKjqIjFmychS7VHWEl1RoGM1ALoShXAe8PX4UNw135hLlZwqH7Z+haxUK/vqlqLcSycqjRdzEWD8w9fAA3gMIi9KnryIIcsIKzEmkaGVybDMasBtwa5aaGir2fZyAFLuDK3m/clIJUVUHFPSFqT/0E1VnAkK5MhVorhqxcDfRdvBh5Fudt4+AIUUYqWy9uSkOmWA5L5ypoMPxPfD5vQN6BGDLSoOLSpWXot43c9mN0nNATla10bH46NAIZylXvgc7TBrLjqBjpGTNbCTT6ZeE+lwmxgu1n71bouuosOnfI1ckkaB3uPEyCTmCN8h2GwYKfncW1eRVYsQJ1euhl3C9GkFMs0oaYsuZbfNrIA7YKsHVk+YUFozJrdzTo8w3WzWhSYC2GWYU+6N+yEsy1hm0FiRmc6g3Agu8+gi2fhn05Gk5Zg5kf1oATC3K06SytSgszz1YYMqgarPLcQclAuv4cwE3pyOROblzAlScfs2Mmjb1n+EAe5k0HolNVtkVVqTAsjhPqDViA7z7KWZpXlRlxCX+snoupU77Bz8duIighAwKZPXzaDMDURcsxd0zJNGszL/chWnSvBmuBynAMi0xg490Lny6aB/PcFReynuj4wyq0quMMKxMuP7LtqRZAZuuBOoN+xoDxDbIvNFExyfr8a2ZjuFFla2uuvx5IrL3gyGVcewuYcomTwhBczIBN3OpnDP66D3xcrCDVsmVny6MWymDj1RQdFx9DC28JnzI3S3gM+xx1POXQpKbqrz8Sc2fUYcdu59b5z235nUeE/t6AFHIrqlsjhJC3SYkHOhdi4vQXMoFQwi5g3rAzEyAhPh4i03JwZr/mZWml/9GEuHPIexPdCp7WQdi8vD0+XNQJ3b7/ln0X+yahParVap1deNO7OgG9+AEGPlq0E49LMtJxmYTB9Rwg1sbjxt5P2XJwv9EePdbtwEOlDjKuMORTQqVtrSZvbclrE6DhtEFobCuENuYKVvTqgC7cYAadPsT4fU/Y9pajcrtRaM2nziGAh1Mm9o/tjk4sfZcOo7AvgAtA5PBuOsCQhBG0HYLW3AAKiMOdTSPRoQv77i4d0HvlLZi6OhoSZdGdw7wB+QZSSLiO5fzgCoapGwbOL+CJQYLycNHtx9junViaLugwah8Mi+ONXIvzitpg3Mr1WL+en8Y2gwN3N9yyFgYuzzX/+xFozK1icTxbhT19fbCsKzd54/u21dl3XsAztRj2TUajeR0+HefvwdjEpVtxA0nspYlbXTgn7MGP3apiadea2HY8jIWKAlh5toZDcdIzKX/2wHr9srCpcyV826U79l2IhFpij9r95sOFTwfE4P6hW4hlJXWzSp1Quyo/W681qlYrBwnSEXn7D0Txc42t0vBhaOXBdkTSffw2uis6c/mlc1d8/tNNxGVKWXD9KXo68YlzMXWxQ+yu0fq03DTjaLB+u1hXbol2WbGdtDN6N3OHTKBB1OW1GNSlC8tnndH1858QoHCBRZ6zoi/WjuppyK9zTiKMBStQPsIfw7PysGHqO3VHAdvGDG72cdjFL3/nrjNwNJhlZBZQVm7ZDq87noFO9QxX9m3GopkTMXv1Tlx4GAUlZLD3aYMBk6agnzefsLhcnCA4MwLLOrH806Uy1v3xCKks0DOp+B7q2vBpGKcJk1DXUQxt/C0cGFQVS7j81qkmNvz5ECk6E7i3nAHvrFjBPxIJLJ8JhWK2VxSwtFRAGZ8Ajak1bNlJ3s3VRn99SIq5x0LM4miOVkPfg71Ei4SbK7Gmk7c+/y/u9jFOPlBCZ+KJOkMHs5AkP3M4WwfjML/8i7tNxvVn3PXHDhXaf8zyf9FYOTQu+YsqIYSQYiv5c3JyMru4sRO+VSWYSCqjnGUSHgc8g0ZhgyoiOUxE+jAHMc9yNx8wCL27GHuSuDCJyTiJkwExuYKm0lG1ujcc2CKm+P2Zp8mc6tk6bLsXxV5bwdnNCwUM8PbmCWqiQyWu+JSMm9um40B2C6RU3F39K27Esj9tXFG3gEqduFt/YHV2szB/rLkRov9LwAokBgLUbOppeKZPyCUszdUELm7/fBx9VFDNTHEl4M6e1chZnDUwLI4A2YvzyjRIz6ph4qZU/g68NiNvLVNaegnWEKYgZtdy3A9heV1kBYf6hQ+sLJKrEPDrLITro/90BF8P1T+EUCAUFZj3XzW9Xupt3N7+NyLYZ0TW5eHuxc9nMs9sxsMwtg9N3ODds0POiaH2h/CwZ8W89AgEnLjOzzQ2T7Sp4cKK7GnwP7wY/8tuc6ZGwLafcJ7bnmYOqFrl+bvnushr+N+WrGZhalw5fheR3AuBEOKsg7ZFPXiYsa2kCsS5jXsQzlfFqAO2YcPZwHw3YF5P1M0t2JK1/OorOH6XBZrsT+64KrlziBaJgffhHxSGGGVB9UrFlOiLK+uOQcXVYjHxm84aAj2hEMLsTFYf3lUd2Lqk4tGuIbgZlvX7qYjeuAy+key1pQtcvfhQ4UmUPliClRs8TTvA1laExEe+iDWxgCWLMKUSQ/5NijjE78NXVLUv3Lk7GMr7+GfuSmS3sFNdx79bLyKKLY6FcyPYPHce0SL8wiTcylp+1W74PojVnyMEQmnhxxQhhJC3WskHOikphgujQAyZuzOshAmI8ItCgpkdKsgbwsmS+8kkRAfnL04kICoi4Y2Pmlbd2nBH0cx7JP6a9zeO55q+beSgf09hVrHId/heiBV2SrYlVm3Y6++0mqPehNM4zT23JGs6NRdN9a1lTGFdmfs/Nx3iwl7+CNJyMkO9WlzoDYTq/8qSiqCEEnxani4GIUXpuPRK/sbGmVMwZQo//XgNMVwpJvk+ds3JNX/ez7hW3JKuognqzDyEYXv9MPNUoP7ZH1+d2oH3PF/cv0MvORTBvrnuYZ/sg9WtPTGv9wAE8bPyKEJ6SfWJaLf6IiYcfoI53LKwac6aj+Gap3o0yz+4eT6Q7UkR7HxYGr4gaN+8BmzZ4qeHXcXDh4Z5xlcJrjbcNpOjct+f8+bj02vQzZNbARks3Cz1qXNTxgXhGV9WLZRCBhPuQI4Pxt+BhllZ/EMSSzbQfRpeYJO2kiGEVdVW6DduLhYv+RqD29eBB9dKLvoxLh3ag0NP+GTFlRCCwJce1o1hbaM/K6LqsJuGPJ89bUYjJy6ck8O0An+mi4yFyhA9QCSoCgvLFCRceoKkTEtYN7KAja0lW6tkJAUVs91adVd9M0uYVkfXfbmXhU0L2xpqcRU2+tqjvNhyPIl+7etPwrNL2TfHCCGEvHncFapkBYYigTvTm9ujnpM9bJRxCHochDitBcq5e8BCIWDl4iREZN0mfMukZhjuI6ZGP4HfE78Cp4dhD4vZrMJA9ywZXPlBYOOEFoZZJUQJtX7BlIh8zJbVr6DpIfwe6ROTkiRpjvdX/oQubavBQZ6O2Kf+eOLHpkdBiE0rQtFHk4bU3L3rX+Yl6UW1luCThePQuLoDZOnRCOaWhU1PA2OgKmRx4nftRUCiDiLHeqjbjqu7q4ryPo4spCjdZmusqI70DG4h2XYMfFRAHubz8cN39clSr0dgWgHvfzoasxaswLfjeqFZVXuYsm0W/fgS9v8wB9O/Xo5fjt5FQrGqRF5VMjQZ3LlcxYI6Ps8/Nz1A+MOs6tn7SOIuEBa2sH2vEgtKkpB4/SoS4k1h4dEY5mbcJSkVyX7FvHGSmg794qTFIOhRQcvCpod3EPV8g4LX0BxO+qpuLTSqkm2MTAgh5PWUfKCDAMRy7QUkMlS1sYYwMRKXNY8QlWABO24EHCkX6CQgwHi3OV/KMFBCwZ6mpOjvyElSrmPeL8Mxduvz01f/Pnqtu7S6y5GI4/6w8kD9GvpZRWdli4r8n8/zR4K+8CtG/MUvMWrUqAKm2fglb3VMkam1hhKyVbmq+WqiFPCwelmHXUYqMzR9K4uaj0Yt7q51/DXs/aQmNg77ANtHcdMU3H9WssNlFIVXr7bwUAAJ177Hqo8aY6t+Wdi07CxiCovSE37CrTsxyMwalMClB7zc2DqlciPHlVazNU4IopO5bSaC8sFajCkwH0/F2qvFvOvP8rGWKwybO6Buvn4+ldws843mWACxCcwLO4GUAlmNtujYvDpcrCTQqaLx+NJ+/DBnOr5e/guO3k0oXpOvYvNFsn5cfxFSbg7Db1n5LM/UB5f8sjLdacTHc2dPKaQ+DrBQxiA64QBiYjNh4fQBFCbs+pCRjGR9G7lieBoNJXeaEifhyTftC1gWNs2Yi+gS7dfZGO62XOO2KIRdMpwjCSGEvB2MEOhEICWdXfgUZnC3MEdywmMk6c4hJEELS/easGO/mJEYgvtvINAJSkzQBzGWDo1QM9fj8C0VLCDj/3548TIC2DVW4tUNy3qORCP9HcYSFnoMTyK5PxxRvUcD/ayX0V18Bv2A2EIn+PTNFS7IrWGdFXXobmPL9SC2jibw/ngzvhtcrwQDCx3+uRqkH9JXWLE1vu+bE27ZdJuDDpULb56l80tACveHWVW0H1ethJvrvSVEIghYltKqErhuatlM24xAJSdWIOVflxaBUAgBywnp7FjLuXntgko9msBeWtjSpOPJ3ov6Pi3coASNPnkPzix+TQv5F34BfJKCyL3R88tvsXDOF+hSudidqHIJxM5//JGiE8O9zVdYNq4t3IrQ+q/I/r2DICXbBmZV0HlcDzjznWWkXv0xsqWnfnTIAoVEQx9/ydzRZOAHKMd/rvSx/co1T9u3GtO+/BrLfzmKu6VTfVOAa7h6OZAFVxJ4dtmBD0d0xotPmalIS1Oz40EOO09riBPD2L4AoqMSoLCpBRtr9uGEZ4goZgyLh0vwkBu5RFIezZbtRNOmbkbvX1Phk+pw5X4k2h/Hbpf2kU4IIeRFjFCKv48YfW9TO7g5y6BMfqC/w8gFGRbO7rBgF4SUlKDXuOs4EIsmH8beaVlTL1TUl63c0G58zvxV7z/ffv/sPbZsLNIROrbC/CmGdH/NPoOd/YbCnE+DpNVYdJobLUgGx5qfYP7Ukzgwnf/emadwfNx3aPS6BRwuILnwRL8N7JuMwLjCq2hyKPfgxhPuE+aoOfxPHD5wAAcOHMbxQ5sxuYkhCSdk2QLsfaJihU9nVhhbgt3HD7N0XNoDOHz8NH6b/apVSDl0+zbiOPfdsGHLsAFHD7LvPXgUOyZ4IyUk37NXcgtZh9P3uc/JUfHDNdh32LA83GdP7piP5oZUpevBdnwzdjRGzyihZ+j430N0ig4ip9bo+/t5DPjhBAZvv4txM5oh/R4rtLPis/tHv2HE5h1oUhUo//VFTDpwH5Mm1jUM52zTCL251weuo9fAKvqvzO1V08c8DodSJ4JDq5UY/fMp9PvhLEb8dRZ9Gqvg/4iVLOVeeG/ZJQxa+E3e0b9urYfv0zT9oAT12laGKdIQcWOHoQayENZN2qJRRRtYOPmgeYt6/NxC2DfDIj4/Pjf9sRi9+YWJ3bYQ22/GIVNqh5ofzsTWQ0dwkE936Ngp7FnSNfuZQq8sdge2/xMMFQuk7BuNwdaDB9n3HsKB/w2BS3IYK4oXIvYPHLwVg0xI4dJyBn7Tf45bpiM48dcqfPK6w6gVUdqlzZjLNU879rDwZS1FyT98gTP3uRHN7FGjzzp8ecwPk/V58z6mHg/AF/O75qklS0xMZaGaHI7uNkhPCgZ3Xyw0PB46Z1c4SlgYlxKJAsaqgdMHJw3HQAHTiPkD+H6TQbiwYBv82bFo4lgPbb/9BzOPZKV7iJmnrqNL8xK81VJhNKa2cmcXUi2Cr/6IKxTnEELIW8UIgQ7wOJ4bYtoM5mYqxMUE65t5XYqNYxdCGbiWa4kJF3PdZX5VUsgVpjA1zZq4B0pyRDDJNV8uKeA+3pMFWHHaF8/SNBBKFPp0Jro0JGolqJwreAm6MAJDtv6OC0+j9M+DyP5e7rk07PcdS2CrhaxbjNMhLOqSlke3lb/gu/4vq+kIwbrFW3EpOMnwXBlueeRCqJWZEJjxSfT8sW5Yf8zfdQlPow3Pj8jaJlJtKgSynEGFXx377vHfYt+9SCSxmEvKtotcrELomR+ww/CkxEIosXXqVGw59xTRqWoIZfz2VLDlF5qggFGC3z1B87F/1QH4R6dDbOMKryoV4WyhwtND83DgTAI7BgQQyyzhUKECbKxZbjXh8h+b5BLDQShk+Zp7zSYTk+drRV41ffxPn2P/4YeIUUlg7V4BFSq7wjztEc6vHoEH3Pi+3GAhVo7wKF8+X757iNsnHyKRBUlSKTsoUgLw4NCLH56T6Hsfgew7denR8L//gJ9bCJEJFHx+fG5ScKMy8ukQgT8nD8a0LWdwPyKJnS+k2Z+TQYVMiS07wxSXGleWzMSaI76ISMmAkNu2MiFSHh/GmqOGkR4LpsaxedMMn0tiZzApt/25ZRJDw4KmorTeLJse4vKY9/Hrb+fx9JmSbSVuHxvyJvccG53UnZ2dcwQGc9tYAlNzEyQ/O6e/4aN5HIlEiQxcRXtK3MMCB4TIPgYKmOQyWU7NTdA8/D5gDI6ff4zoFDUE2Z+TQpemg8ShJNodylngNRE/LO2BSuwA0sZewrblwaVec0sIIeTFBO7u7nRuflNsumHBD2PQuBxfUNWokBJ5EYsHzkcBT5d5i7lh6tat6ODGwrHDAzFoaTE7AZG3hAtqLDqIbg2skHTla2ya/str3Jh4t7w35zfMaeXICt67MHr4euQblI0QDF21Hz2qKKCQGu54aWNv46eZX+I3f7qUEkLI28YoNTqkiOL2Y2afvph/8AZC+NoXM4UMJdkdwegUzmg3Yx5asiAH2iDc/oOCnHeXCRTVRqDt+oPoUt8awpRHuLrxvxLkmMG75zf4vIkDxEhD8LWDFOSQApnITKEQa5CaEIl7J9Zg4qCJFOQQQshbimp0SNEJ3sdXv0xBg6zOESITmMqymk2lIejg1xiy/Br/mrwzKs5F30X9UNGabxbH6NJCcXl5Dxw/VXqDSpemTt/+gVG1stqaiSFTmECkb/ukQ9LDXZg7+Qfcehs6wBBCCCGk2KhGhxSdLgAqbU6fCrlQDaUyAREPL2LnN/0pyHlXieUwkQmgVqYiOToI94+twI/9W5XZIIeTnK6FCZ+PTWVAeqoScWG++HvrbAwbS0EOIYQQUhZQjQ4hhBBCCCGkzKEaHUIIIYQQQkiZQ4EOIYQQQgghpMyhQIcQQgghhBBS5lCgQwghhBBCCClzKNAhhBBCCCGElDkU6BBCCCGEEELKHAp0CCGEEEIIIWUOBTqEEEIIIYSQMoceGPpWc0e91UfQuboplDcXYtmkDfx8UlyKei3Qq08DVPewhZmJCNBmIDU+BFe2/YGdZxKg5dMRQgghhJB3G9XokP8ICWqOHoN5szujcWV7mIk1UCqVUGnFUNiWR8uxozG8szkEfGpCCCGEEPJuo0CHlBIrVG/THR9+2AmNXCT8vNJkAdtyZjARpOPZ9UNYPvgrTO73DSb2W4ED91OgE1qhRqfW8BDzyQkhhBBCyDuNAh1SSuxRvWkbtGv3Pup6mfDzSlMsznyzGRsWrce38/+GfzLfYjM9Eof3+yImkx0M5pZwlRlmE0IIIYSQdxv10cnPezNGrPsANqFHsWeHBE0+awE3SzEEugwow67h1NwhuPVUxSfmSXxQY9oqvNfAA9bmUoh0mUhPiUbQ+R9weMlWJPHJZF12Y/iX9WAachC/DBqDWP61RdxF7Pz4E/i5f4cBG/rBSxiMc5Pfx9l7xeujI/IaibbTPoePhw3MTYTQZaYjJeoJ7mz/AqcOB/CpOFnfL8CDLVMRXmcOmtZwgFykQ2ZaPAJPfYOdy/dBzad+dXYoX0WEiEfPkMZyWYsvlqNPtXTc/vVbbLyoBORVUMM9GHf90ljayug7Zwzed3pZlUoozny9ADuj+ZcloX4PzJ3RGA7pftg98keczNph2YRw7L0Ia4exfZV8C1tHfYntz/i3CCGEEELIW4lqdAohsfFBk09bw02hQapShQxIYOraBJ0XbUFVKZ+II6qKBkv/xIetK8HOTASNMhXKtEyIzR1RuePXGLR4DEz5pKoncUhn/4stnWDF/pe7WkHO/hcq7GHnxf4wtYeCq1FQxyH2Hvu/GIQeM/DximloVNkOZuIMtuypSNNIYO7kg2YT96DHx058ytwkKNdiBhrVsoNQlYrUdB1EchtU6LwIfb6oy6cphspt0e+Lr7Dwu+kY/mF9mOo7wCQjKbUe+o6fi2WLx2NQ+6aw0CfOhDpNqe838+KJ7YsSHjFA6mwOU+5IUCYjkttBzzFHs8aVYCNi+86qMuq34mcTQgghhJC3FgU6hVG4wiJyA9Z1rYpl3DT/DJ5pWFxjUx0+Hfg0jKLbQjSrYQ6kh+Li3LpY1NUHy7r4YOWC04hQC2Fdsy8a1eETxz1CQgogEIrYhhdDbm8OYUICUkQWsHBjcU5NRyhYsoz4UMQZPvGKHFBt3CeowiKH9OCj2P5RFSxly7O0y3v4/Uw41CJrVOk6Cy586hwS2LrocJdf/qVdOuGIr5ItqAwu9QfCkU/1quwrsMAtUwuJlTtqtxuKLj5cFOeK90b0xftV7CEXZbLt6QkffST4BHuWzsCUKVNeMi3HX7Fc+pJiiZaNPfVBWOzTe3hUYKCTiEPbT+FhLAuE7p/A3r38bEIIIYQQ8taiQKcw6nDc+3UR4vh2W+qz6xHINZcSCCEQGeZxTbM8m3jCAhpEnf8eJ/5J5OdroDw5B1cfsqhGaguHmnwtSpI/UrlWb1I7lKvjBhd7M6jDfBGqMoWZowwimVi/Q9Qx9xCm/8ArsuyEip4sytFE4damkXjKfl4vMwz+G3bgaTILaewqwtmOn59NB+X933Ama/kzH+LhpUBwHxcIxche3VcUdWQ1Zkz8EjOX/Ypj96LZVuGlBOD8rk1YMGMCJs79EZdYTPWmSFt3RIuqphBkBOPmbr9Cm+mprq/B6F7d8emYVThXYDBECCGEEELeJhToFEYdg+ib/N+Fcoa9nRn7XwyHNuvw1enAXNMFdKtpeE9RrrI+NdJCoErX6YMlodgONtYSJASdQ2KKBFZezSFztYYpMpAU9diQ/lXZ1YSVOftf7IBG3+ZeFjb9OQFVufdEZjB306fORYPECN+cQKREZUCZZg43N1uIdSlISMwAzJxR2dMcqUmZfJo3Q1qhFUYNqQMbYTqCTh7AvkdvdnkIIYQQQkjJoUDntaQjI4MrHGciKewJnvj5FzA9QgibDKIRF58KSCxhWa0lC0pYUBN8BjGxaljY14adJde0S4OUSF9D8leVkQoNF61kJiHCv6Bl4ab7iAwxJC8Vdm0wfGw3+FgKEHv9T8xfdhAPUqSwr98Do/vVA5vN4wYjWI3169e/ZJqJXuX4j7wGaZMu+HJeBxb86ZBwYz9+2BRkpECPEEIIIYS8CRTovJZYxCdyI4YJoA3djj9HfYDtz02dcfxAhCE5whERw7XTEkJqVw0W0gTEB7BA6Fmy/rWjTAJoVSzQyUr/ihIfI0W/OFpEHehawLKwafxw3I8xJC8NdhVcYGUiQEbYP9i27TrSYk7g92P3kaiVwsLBFfbZj9QprcEI5PAePhzzJ78PD7kKIWd+xXfzryKRxh4khBBCCClTKNB5LTHwP3AX0TohrOpPxKezxsCBa61WKA3Sk1XsXzEsPNwgz4hBzG0gLTAW6ZZucLE11Y+4FpdVAfSqEnfi1r1o/cMvq39+GO0/boDcA8S9CTGXf8HitT/jt+174Md3gIk5tR3bt67Hd8v3wT+7U4zxByOQ1miNMf+bhbGdKsJMHYmrW1Zi4SpfpFCQQwghhBBS5lCg85oy/hmDY6e5Ec3M4dlmMkbs88fUA/cxiU2TjzzFtE0LYMOn5aijkqGCCJbuTpCnxCKJFfSVvlFINXWFky2gUycgIfejbniK6hP031nQNH7DEn5ktBQELPkWV0IzILIoj0ajd2LasYd8ugeYfsIPA0b56FOWpoynV3E5MHc3/wTcu+pb6rUoFdrWRVU7KfSt5USW8Ok7Dou3f42luaavp9VEQc8MtRuyDodOn8bpw6vRj59HCCGEEELeXhTovLZEPP2uFTat3A/f4ASoNGLITBUwZZNcnAG10CL7OTqc5BvhULLNLjNXQBvrD+65k9oofySqZJBJAU1iBAsDnieQyPTfWdCkkMtzRkZL2Ydjn3XH7kM3ERqngkac9TkZRBo1RGbPDy79XySUytk2MX1ukpsU/MBSmZ2Z/plHmvhnKOZQEYQQQgghpBQJ3N3dqeEOIS9kiZ7Lt+KL2hZIvb0JXSb+wc8nhBBCCCFvK6rRIeSl5HA019fnIP6Zv2EWIYQQQgh5q1GgQ8jLCE1hwY2IBzViAq8b5hFCCCGEkLcaBTqEvIx5bZTjHraqiQdV6BBCCCGEvBso0CHkZaSWEGUqoUyKwGOq0CGEEEIIeSfQYASEEEIIIYSQModqdAghhBBCCCFljqBGjRpUo0MIIYQQQggpUwTt2rWjQIcQQgghhBBSplDTNUIIIYQQQkiZI3jvvfeoRuddIrJFnc490LZBVbjbyKCNPI/V83/HE/5t8iKdMGVVZ3gK0hAf9hgXDmzH0fvJoAOAEEIIIaTsoVHXXkbmjK4DvCG9egF7bqneaKFY5NoD8xYNQ2MnEwj4eemBBzB16Arc5V+TFxmEtUcHwUfKv9SmIeLijxj/1R7E0FFACCGEEFKmGC3QkTX4AAvGNUIVByvIxWyGVo3UuAjc++cMVqy7h2daQ7pik1miahUryDKS4P8gHsoXroUEDUb3w7g2FeBgJYeYRQladSriwvzwzx8HsO5EEgpeHCt8sXkaelaQAKrH+H3QRmyOfkMlYovW+Gr9NLR0lkCnisD1vRuw+rd/EKrk338b1V2Hz7/vDGdJJC6NbIzjj/j5b5iFxwfoM2YwetR1gokgHYGHZmLksptQ8+8TQgghhJB3n3H66Hi2w5p57VHbhQU5rCCpVCqRmiGGws4DDT8ajC2/9MAHMj5tcTVoh7nLxmL5t13Q6iXf5TlmOOb1rA4XazkEaiVbnlRkiBWw86qDj2ZMwy9zquOliyMS6AOkN0OEmsMHopk+yAnA4a+GYOrmtzzIeYslBZ3A5imfYfbxYBbcmLDsOg5jq7FglhBCCCGElBlGCXTaD28ALxNAG34RM3rMRteuX6NLx7n48qerCEqKgf+Jyzij4hMbXU0Mb+UBE4EW4Wd/QI9OX7Pl+Qode67GT+dDkBTzBCf2PEDBi5OAdZO34Ke/jmLdtC3YEPWGanNMW6B3AzdIkIHwcxux7BrVPbw+Fa4vWo4zoRpAwgLwTxq/PNglhBBCCCHvDKMEOi5W5vovDr11EleSs4KDVNza9ieGfLgQ47eGgRUvS4kNrMy5pQnDrU1Pkb04icHY9tUqfNj7/+3dB1hTVxsH8H8mSdiIIigOcG9rrVur1m3Vz1Xrwq246sKFe++9bd171r21Wqu2at0i7g3KkJUJJN+5yQ0EZIsK9P09z23Nycnl5Obm5Lz3jLsOG+/F8olJCH+ILUtOY+9XnJ8jKl0HRXILWNv8BS7v+YdPJZ/uNjb+/YKFj0Duwt+jGHXqEEIIIYTkGJ9ljo7X0hnwKi1F9JNT6NX3BF6lYT6OfY1GmNivctycHtMcmns4tGAPNscFIsUxaUdP1M6TcnwWdm0rOo28AbXxUS0sPd4SpaXReLJ/LvouDU1mPk68HitmoXMJbmKRhedn0brHUYTxD+PUaocdE6sg+SKF49qCWRh5mGtO82Ru6ODTEq2+c4eztZQFhbHQhgfj8cXDGLfAD+GJPhHPgWuxrLUnBC+PYky3ebjBpyel3IL7aFXBgIebx+FZ6dGoXT4P5CIBYrVheHFmMvYv3A9lorjO6tvJaDKwBYq4OkAhEcAQrUHY29u4tqIXLl+N4HOVQc21e1HPMxr+vzbGzm0O/GMRXh1sgfWL7sNz0lV0qJ0bqlvzsWboUigzNEfHAfl7r0XDRmXg4iiHRGBAtDoc7+4cwKmpE/HKcrieef/BZ7FtRyyqedVBIScpBIZoKANv4fykjrj2KJXer8q+2DqjPlz1j7Dr575YFcqnJ1KwxxIs+rkMbML+xtLuY3Awin+CEEIIIYRkSZ+lR2fnxYeIYo11iWd9rNrUDYMa2KX4h2T12mHVxAbGOT1WepVxTo9OyM2hqYzuc/thUDHzq2OgUXNzbNim0pkCFm6RA+6xxabSxFj0vlzBxftR7LEEni2HYtOCRmjgkvJkG635b3Bbgn0lQaeD2uJvmzeV1hxO6aG3iHGA3Oi1oC961/VEHmsRorn8qlhI7F1Qull3rJtZAXI+p5mtkw2s2P+1IU9xz5SUCms41vwFNSvmhkirZmWJhdDKAR5NZ6PdoG/iVmzjiKutROepXVGugCP7u1p2LFXsv1ZwLPgdGkw9ih++s+Zz3kVEJBchWcPWPRf7fzHY2XLBoBi2rpWNw76s7awhYv9XBl1ExqYPyVFw1GF06lAZ+Z3YHjXcuaBlJwgLfr7zQqflK+Ce1Pgyu+Ko2el7FLLVs89Cg2j2WVu7fosmM7ehtCOfJzlXX+MD97YkMtjbJH9efP9NMdizNyfKxf5WHfMxIYQQQgghWdVnCXQ0O7di6qEniIwVQu5WBv8bMw5H93pjXLuCsP2oLVkQw3p8CxexHh/+3Y0uTScY5/Q0bbEAux8oYZAVRt1e5fnG/xPM6j7Z+PyPs28gmIslIvywqj037yZ+6zzhjsWcm2jsHLsRhx5FIVYoh1uFBhizdTr2rm6NdhVkCRr9ZluHT43f356nSGFgG/D3AXRvmfDv/zjoD7yM5vbM3tO1E5h9Mj7SkXX6Ea2KW0OgeYGjo9j75PI3H4s2c67iXYwQjt/WRr9kAjFDrC7NK4PlzifBvek1Mbt5Kcxr0gDHbkey0kjh/k0vcGGKSSXU6FUf+VgUFXH3V6xsXgLzfiyFOS1a4NitcOil+VGuUz/Y8LlDAj+woymAUMROG6uCsLHRIOyDDjL7Iiw0qoFcTtzYryiEPw8yvSC9SkxD3e/zs31Fwn9zK8xpVgrzfyyBuX1Ww+8DK32B2qjeOj+f2YK1Gxzeb+TLz/KPO4G37JALnIqj1A+ufKbU2CF3xeQDmJ17zuJJaBje3T6FradoFQhCCCGEkKzuswQ6XHBxddFK/DRoK47dD4ZGL4TU0RP1vAdgy4qGqGQZ7ZQsjxIuItY+9sOuCX8jwNwRonmLlRtv4z177OBWCIW4roKM0jzDor7TMWjhedwP0kIvlMKxaHV4zxuFFQMLJxF8fYJCNbFwfmOUsDGwIGcXeo26hg8WXUItKxWCXKDH6wt7sfBq/Lyf8OM7cdyfhTFCZxT+wXyjl4yL8t+Hi2ff8vt/imt/PjUGfwKhOD6482iHgm7sb6kf4vKsaQg2x2PaO7i6/jzesuLY5K2I3HwvSlgQCxbZ/21c6sGmQgnYSyLxyu8dRLb5oBBZQyzi9hzF3vdrY/70cqpfES4s6FL778ax9bfiAsyYJzNx8dIbdlbZwLlkRXw0lcYQiPtrZsaVP+byDjwL5B6woEzyKSdOPM0fc9C7bWv8PGQlbtFaEIQQQgghWd5nCnRMNA9uYO7AWWjaZg22//UMYbFC2BZviIlTqkDB50E5JzhxpbApjb6H5+HsWYttZjW4cM8pbOD5yW3/aDw4dAgDf/JFm/FH8deTMMQKbVG8dTdMac8NDMsEslKYNLM5yjuKWGz1ByaPTRjkAG4o6Mzd7FOI/A2H4ZTle2UbN6+JvVnY5Em6cS4QSZHWwxD17iwLOVJRvBAcuKhBXhyNtjzHhLMW26IWyM/9MZkDHO2MuaH8oEQMez8CoQSC/HlhrwnGi8ehiLbLi3y5i8LeQcwyhSLUPK0nnfLkczIGMfISPTDEsixs692MW3UOsLIrZhzGl0BUCILfp9jvlgYRCLpBPTWEEEIIITnFZw104oQ/xNrxy9Fxw32oWEPZplQFdLLln1PGmIZjqYLwxP8x/JPaHrwC19mRWcL/OovxvWdjwx0VDLBGqe9rwFycDGNBzuhVHVDLRWwMciYOOYbbHy0tp4LG2OsQg7BXSbxP4/aAvV9z14pJZGgUtOz/Vrk8UNqUlDnUWmPgAk0IXj58xI5/UtsdvDMHLi8DEMHek7WjBwp6OkMS9R4Bd18jTMqC1VLuUHBTdlShCPloxYa0idZFG3ugtMEv8DTJsjzCM//rxmORaSrnB4tLAX0MtOoEUSkhhBBCCMnGvkygw9O8jDQuUgCJFDbmTosnEYjihqtJIvDvxNXw9l718Tb2DzxK7oK9VAr7DL2LaLz8oDQ2rCVWMuMk+ozjFhj4CQ0KKGD4cAtrRxzB1bh1rC2F4V24lv1NMWJen8eQpN6r96+YfSxhoBPoF2TsnZHmLoJvC5jSMgULXKK4YEyswotFjbHVu8HH28gxeGOe8HTvMSK4okkUyJPXHrrQh4i6dh9hOhs4VnSBlH0OMcr3CM/gPZI+BEUalx0XKW/h5MAkysK2/Sv+YJ9c5sn7XSE4cx9+SACuR5rSCCGEEEJI9vcZAh1PDJjZEYNauiJXgr0r0LhhYdMwtbAPeGS+LO93AX8/Z01XiSd+XNQJvauZ7sGTqseRUHKxhMID9bw9kp9nU6UhZs5ohJbFbRLu174cGhZ3NKaFBQd8Qi9BbrSZ3R3tS1izIMcPmydsw/6E49US2HnCD2EssHOu0h7LRlZAQevUJwgpb/yDl1wvibwAKjcvYkrMDE+XwO+xCgaxO6pM3oda9TxTDvi0IdBwq8nJ3JAnlwRR7/9kAdh9fAiVwrZoAeMwuKigW1Dx2dMrdOcpvGAfqrhgY7SdNwdF8n3yeMVUFETbCqYhcSFP/sC1DAZohBBCCCEk6/kM99H5HitONofpNjSx0Co1pqv0VtaQGdO0eHZoFfoufBV/09BCdbFiSVOU4Jf3jdUqoTE+KYKVIhJXxs3HhMtxuXkS/LTAF30q2Bgn18e9RiCBXHsPczttxQmu4dqjD052LgZTcbTG5aJN+5VBzL1Q8wKHRq/Awtt8l1EnL+zv4GHKzxFZQcEKLoh7LecNjnZag5XckC6L++jElzuhl0dnYcBK0119uHLXmzQUo2vnMf0NbnlstWnIlkAsh/j5cbTzPouEnQvWqD1hDcZ97wph2A382n84dgTyTyViuo+OAoGn/4c1MyzuuNPmAEYMKA/F25NY2bkP4tZFcxuOtksHoJSjKQyM1arZe+BKI4RUocGD+fWw/6j55jJ1UX/jGtRwjUZUjADvD/yILavfoOKif9GomABimRUCT7TCr7NvmbLH3UdHD51Kg+gkzzQlnmxogd/3Bhgf2XU8gO7dyxuXcuZWrYt7nVACheYW9nRvCz/zUDrz/jV3cbh3c/z7nk83l9Ndy9/zJ+nFEQr2WIYlnUrB1vAGp4f2wIw7yfcV5R2wFhvbeEIS/i8WdxmBA3QfHUIIIYSQLC1NnSfpcw+HTt3C8/dRrMHMAgpra1izTapXITzQH2eXLU8Y5HCen0P/Lmux/a8neK/UQcCCIu411tZS6Fl8IM2bVDG5ZaPXYO25RK9RiNgzEuQxRypn/8apay/xPooFXEIri/2GI/DeJSwbbhHkcKzMefiNC3K4dBbwxKfLIEuiSFwwl+C1/CaXWfbaROPspIUYvPA8br0Jg1ovhYLPpxBHI1okg/NH+1biwqJNuBZigNChArovX4XRzQuleWGCFL2djz1evXHsD3+8i9Sygy1nZVGwzYoFgXqIclnOXjqHoBAWDIgVsJEpEXaXC07UCHkXBqFMxk4mJSJfhZiyJsAFTdw+k9rk7JDH9yNFbGuJVWNW46rfO0RpDZCYX8fdVkcvYZ8vn/FTyFzw/YClmN+BBTkCblnzPViSQpDD8XDiewTDAnCJghxCCCGEkCzvM/TokM9FWqo35k//CaX5SUmGaDXCnhzBuP4r4GdMISnrgHl7O6O0nQKm2IoFOXe3YdKIdbiTymIXXsuOw6uUFGHX5qPLyCMZvCEqIYQQQgj5UpLqKiFZlO7+Wgz6qR9WnL2Htx/UiBHLoZBZxQ+zI6mwgsxaAUmsCuHv7uPc6pHo8UvqQQ5QArltuK8KC4ze/kNBDiGEEEJINkA9OoSkqg4m7RiH2nkicW1+F4w8QqEOIYQQQkhWJ/jmm28o0CEkRe0wbWs7FBO/wknv4fjVvDYDIYQQQgjJsgQNGzakQIeQlORri1G/VEMezSPsnbEKl2gZakIIIYSQLI8CHUIIIYQQQkiOI6hSpQoFOoQQQgghhJAchRYjIIQQQgghhOQ4tLw0IYQQQgghJMehQIcQQgghhBCS41CgQwghhBBCCMlxaI5OqkTIXbUDerb5HhWK5oW1/g1OTuiHpXf5pwkhhBBCCMnxamPCZh9UtlUh9JU//ty1Chv+fIsY/tms6Iv06Nh7/II53gdxaNJ5nJzCbWdxoHM/2PLPZ1kiN7ScshEbp/dEw0qeyGNnDWuFHFYS/vmkSMvDsWZ32OWS8gnZiRDW9X1Rp0sLyPmUrKsWpu4+i7NnLbc9mP49/3SOUwT9Vh9h7/EI1vQvxqcRkv1U9d2Kk+z7+vuCNrDn07IOO7i1nYlqzctBzKfkZOKiPVGt/wC4KfiEz8ShxwmMOPsco36bj7x8GiFZVblh63Gc1VEHl3aFG5+WdVgjT6tpqPG/qkipKfr5SCBTsLawXW64l66JjpPWYdvCniiZhSvMzx7oFKyxGuu9WqOCqz0ksSoolUq2aRCufINoPk/WZIPao2fBu6YbZNAg8N+dmOzVAvUae2HeDT7LRyrDrds0FK/3E0p2mgQHaz75k0khdi4DuVspSGUiPi3zidvuRz/f3qjTfSE6j8nqEUM0tCruXOI2FXR6Pjm7kTiicNkKqFDWA05fp9YiX1tVX2w9yQXqG+GTj0/LdmTIU7w8KlQoDXfb7Dsi2n30cXj1/xkNhm5Gy3b5+dQcqshMdFw8Hg3ajkDHeZPhxCcT8pFyw7D+OFdHbcP4cnxatiOFc5FyrI4qg4L2n68d9bm5/HIU3Qd3Rv2Bv6JNt69x0fMMxraph2adfbHuwnNEGdhxLd8e4yc0gSOfI6v5zL9ITdCzSjHYCPT4cHcFuk1rgv/Nbmrcuu4/xMKHrEtUsje61coPqUGLFycmo9uI1Tj/Kop/NnUCYWYe2uJwbjED5XtNgXuZ3Hza5ySAMMvXA1cwzetH/Pgjt83G1Q98cnZT8CeMnrUAC2aNRofCfNpXJ4WTuwc8PNzhZMUnEZKiCug9YS4WLJiOoQ2zfF996gRCCAX8v3M8QSb/Xn0JEjjkK8zqqAJwlv9nPijySUqgq+8cVkfNwIiWLnxaNsbVUV/xa6t+exlbJvXF8B33EWmQIG+1rhjaIGvW/Z/3MJWpjxL27E9EP8GZo7sQmG1mA8lRvUMVFJQCMYEXsXbO39Dxz6TsKgL2LMCjP3bi/uYJCFPyydlEzF4vbF+2FefXD8GmaX/wqeS/pwRa9B2OESP64X+lslsDiJCMe7WgJ/Zs2o1TCzph/67XfGrGOdT0wqDeLVE5v4xPyUIeT8D+6Utxds9cbB02HqF8cvbgiaY9h7E6qj/aVsz6A60JySzvlnfH7nU7cWZpD/b/h3zq1xKNR7/OxUF/FSByQflmzZCHfyYr+bytGFtb2HAXW949wgFlNlrzQFQcdYvmgQBavLyyG5f45LQwhJ5DyIX1iAhJW2iUpRjC8HafL85vPgg1n0QIIf8ZOj882uCDy4dvZ8rkWqGVHdwrNkL3MbMxc3RvtKycH1kn5IlG5F/zcXHFcrxl7RRCSDYQ8xRPt4zCX/uvZJHpHy+w98xDRLB/2Rb4Bt9lwU6dz7vqWrXVONqkBMSvDqLd2vkI55OTIiswEFOaNURJF3tYsfBLHx2JoGcXsfHAHJyOtJiAYd4n//D5+ZbweTsYc5rVRmE7CRCrxOt7uzB33wb4ZXTeRoF+WL2qPYqKXuPEuK6YfZVPT1JZ5O0xHYXyJ1x8QPtwI+7u2P7RiSivuxplahWE+tpcvIxugUKVikEhFcAQE4WoBwfw+MBmaGMT5k1xFJnyHh6uHY5Q7izLAFGT3RjoUznhpGB9CK5PqYQjF/jHGVRnwAL8VDq1n/UI3Nk2DSsvpn1Y4Me4hQkmo0auUFye0ha+KXVGyUqi49hhaFXBHU42UggNMdBEBOLBufWYvoQFqXw2TpF+q7G4fVFo/lmGFYF10bthSeSRCdlnpUKQ31HMHb0C1xNEhDJU7D0VQ5uWhZs927deh4jX17B941vUG9EWRdWXMaWtL/4wLiywGO2LpnwlUv14D4b2WQHTNRvza4DH+5biqmc3tCydGwr2RYhRBcHv6FyMXnE9kwLUcug2rS++cwrD9bXj8duNzJkAVWbePbT+hp+4FquDKjwEr29sxsm5KxCa4LpAH7Q5OBalbfiHAaexpu8BlJgzBVWLO0Iq0EMdeAeXFnvhr7/DWIb05uckfI1eq0Z48DP47x+JM/vugv8KMhVQa+1O1PWUIvjiUKyd8Hui7/TP+HH3dFTMFY3ne1ph0wo/Pj0duDk6U+rDVfwKx7p4Ye4bPj1FdqjqPR7e9Ushr6McEvYeo9Uf8ObWUSyZsh43LccFm/f/7hQm7JPAq0t1eDhIIdCzhm7Av9gxbhy2v4h/xxy7+sMws2c9FHFRsH3HQhv6DH+s3g1JNx/Ucw2IKye3sMCU+q4pT9yPuInlXsOwl/8BML9GdXM1Vr2th971POAoExnr/IB/d2DcuO1IVByeDLXHrsaY+vmgf3YUY/ovwO1MuJ7kOvQCvH4sgAQ1uPIBjns3xj+f2KljVbAO2rWpj4oezpAbLysaEKsKxL0/j+Pwiat4bfk5OdXHoNFtUNJ8Hicn8iY2jlqDv/mH6VJgPDou74kiCeaPavHygBc2LL7CPzYrhirLf0ejkrG4u2YCgqqNRVVW58iF7D2oQ/H0hC/2LjmecLSDuCCKD1+LH2p6wMmaq5zUCPU/gDO3KqJ5x+IQPduLjT2HI5DPnnEl0HHCANTMq8TtLVOw6lLmRGpFZtxEx6oOpgfs+6GOCMGbm7twes4CvE8w1r4dWuydiwrmSQnBF7HJaz3yz5qDGqVzsTaMHpr3D/D3yu44f/4dy5De/JyEr9Hr1IgMeYmHh31xavs1i0C8OKqs2I9GJeT4cHUK1oxazz5RS03QeNsyfJc3Fq8Pe2Hdgst8ejpwc3TmNEdBaSDODemIqbf59BRZo2KPcRjUpAzyOVmzesTA6qgwBNw7hVVTV+FKJJ+NY95/2AXM3qRBq+51UCyXFQSGaChZ3b1v2lis90v4ZbeuMRDTvVmb0dXGWP/pwl7g0oZtUP7PB80KhsaVk1tYYE7zggm/34lF3cOGfoOw6a3pofk1unubseJhJfRoXBy55KwlFq1E4J19mDZ2PRIVhydF5WErMLFZYYhen8Y075n4KxNOzVx9T6PHT0USLhKlfoqzQ+vh4tfu1OEUYW3mxazNLH2LU6M6Y+a/fHoWkSXGpciKTcXabu2MCxZYGbTGyeXRIlu4FGuCEb3nooXCYgwuqziNE9A1pq+5vcNAjPuxHgrK2RdCpYVeZI385bzgwxqlGZ5mYp0LNlz7XBeCZ7dMScmLYY0kJXSsTMbNHKWkQpqvDQqwIMdKr4JOzZpOYhvYlumIEi1bxDUaDNGauP3GxHLxKPuB0Vj8LW5Ta2D4lFCVVZ5qdry5Y65UqhGdiZP6Y9hxMS0WkNKmhjb6C/X2SUqj/6I56FnTE87WQuPxU6r1kNrnR4VWY7BsSuMkV4GSuzdF9wal4MTCCKVKB4NYgTxl22DCHC+483m4MeOl+y/ClA6VkJ8FOdCx46mOgSx/dXTq8R2cEtSyLLhSm9+/BjHGj5alJTguSqjYZ5vUVWVFuU5oVc4JQq0KKp0BYkUelG0zAXO84kuT9XhCLtax92U61zR6CRROrihWfyT6/vYrPBNcBdKyw8fl08B4atjkRfnxk1CjuC30LF0bK4A8b3nUG7oMHsbVotKbn8nnDBE7fqbyaBArlcMxXylUHbgfPcb9D/FTk27i+vlHUBoEcC7bDSVz8clmtRogHzc8V/0Sjw5nIMjJENbgH7cCk9tVgjs3iYrVCUola9rIcqFQ1S6YuWIYyiX1q25XHN061ERh61iouO+6QALbfFXQc+5UNLJoXMtqj8OKkc1RMi8LcvRcfayB3tYTjXp3RhG7hLVqtIavj9lxNFV9XMCV8DxWqth3PKmvuEN9dG/oCRuDhn1XoiGQ2CJflZ6YO7URkm7rs6CztCusBELIC5XFD8588ieKZe9BxZ+X3HE0VrWZRPviPLYsmACfUbOw9cxtvI6IgVDhinKNumPM3HkY389iWBtrWGsTH7ukNlYHZbi3KZZ9FsbvimnTpKnutYLLDz6oUobVOWoV1KzOEclzoWjLBWjXuwyfh+OMYr470bpRMeSyZoGrhtVPWgHsS7VB/RpZb329j+WHtZi1I/hjo44RQe6QF0W+H4xe67egZILVGrSINh5H/jdTngclxk9H7TL2MLBjpIkRQJanFGoPWoZSdhnJz+TJC1G0+bNSI1Ysh71rcVTuvQO9p3ohfqE8f9w69QDhrI5yLNkOZRMvaFKxOfLnYt9b7Vs8OZaBICdDWIN/+FJM71QFhXKxkhrrKBYpyhxR4Nv2mLR8LGoktdKftQfadfkexez0pjqK/a5au36DztNmoI3F911aeTiW+v4P5dxYkGPQGfPGWhfC9928UNYh4WWXGK25jlJCw7ejPq6jNNAm1faxq4auzUqydoGG/R6zdprEGq7fdMa0GW3Y2Z6UEqhVNj8UAgGs8pdGHQ8++RNxF+Li22l8myErefwIIdyFAJEVbOxSvOz1VWR6j87PPx1E+0L8G2Vv2lrG/h3Lfiz5wMQo8gaWr/HFaWOSG/r12ITWhSSIfn0cEzfNwjWNATKXAZjDgp8S1gIE35iEbvvPJbxyxPfsGMI/4N3rHRi7awcCDXI0bbMdg8s7Ai/2o/1vi4zdaelW0hdbl9eHa9QNLG0xHPv55LQw98LEpNKjIzJEIOjUODy98pB97aRQ1F+G0jUKQBR1B/5rffDB8mpHXK+RDkFHB+LJtU+/HpYkaVe02jEF5ewyp0fny0lbj05+r2VY4VUK1srHODjpFyw2dsdIkK/VJMzzrgaXmMfYM7QPVvBXSMw9OnKDEo8PTsIvi7keExbQDFiOOW2KQK56iB2D+2HNU24332Pq1vGo4azHh5ubMWrUJjzm6sV8rTBpnjequUiAUHOPjgXzlRAk/Nsfi+8FMliWnwVvA5bPQZsicqge7sDgfmvAFSe9mg1bjmZFUpvU+yFTe3ikJUeg6cR+KJcHeH24LdYtuMk/Y8b3usgiERb0ElentMZlfy1Eddah19h6cBEH4PKgajh1n8+e7vyW7JGn469o41UZuQWv8OeAWjj3iH9K2g0tt01AeScdnu5ogS1r4j+kwuP/wc9187Dv+yas6TcB5v6idElvj06ZEdgwvykKiMJwa/1QjNj6wtgDJSvWC3PmdEAZuyjcXO6FYfFdKPz+9Qi7tR5DR2w19pjIak/Ab+O+Z+lhuL6oG3wOcrWlDJ2X7EWPMnJEB/yJhb9MxvFg9nnLiqHXnDnoUMYOQiRVzqrw3ToF9V1VCf92EuJ6gfSW5WfB24TfMO57lh52HYu6+cBYnETcO8zGrJ89oP2X1flT9yIwc07FeGUXovuc/8E9JnN6dD4mRu6y9dGkQQ2UN/fy6F7i9OJZ2PfMlOPLMffYiFLp0VGwxvgL/DW1Oc5yl+HFFVBt6TY0KK6A9slOrOs9CkFc9rjeIi3enp2EHdO2g+unF5eZjvYzOqKIjQDaT+jRqTtwIdqVSm11lIhM7eGRFOmPRpOG4Bs3EQJP98aaGWf5Z8z4Xhc7JatzXuPmnNa4cFMJUeXl6Da1GfJJgnFt3Lc4GhdfpDe/JRs4t1mF1r1rIq8oEFdGV8XJ6/xTkv+h6aZ5+NYlBi9/74wNS+KHoeQb+Re6NuZ6QfdgQ88RMPcXpUt6e3SKDMCaJW1QxCoS93eMxrC1fsb2m7RQJ8yY1w3fOKlxb0M/DIrvQuH3b0Dk/R0YPWytscdEWtkHa6Y2QQFpJO7+2heDt3FnjhSt5u7CoEp2iA36B6uH+WLvG1ahSQuh04x56PaNE9inlUQ5y2HY+jloXlCX8G8nIa4XyGBZfha8+azB1CYFII28i1/7DoaxOInkbTUFs1k7w3BvP6ZM3Iqnabv2nXaeU1kd3QUe7Jc+qR6d+oMWoU3JFPuvmHDc2jwFqy+zYzaxP2q4pNYt8Apnxs7E3mR/4Opjxl5fVHVU4eGOwehnbBRlHZneoyO1soa1Nb9xQQ6HC3jMadwml0FqblNJWqJMfm5dXfajd2mRMcjhaN4tx2+3A4w/4M7uP6BiMp+DRBGMK0d28gsdqHH07Ttwv31CoQhZeS0Ww/vrePsPF+RwdFD53UUkVxMIhBBk5YJnW3lR+xt39lOhxcuzS/kghxONN7+vxZmn7IdRnhuepT++8mgIvY2dccPConHvxL94zT1gn5XYfPGiQg14OLIPTvcWVzaZghxO9JvfsfL4I+MPfmYJu7cHK8zlj76HE/++NpZNIBRn+N4fugS9b+bluvXQxS3hzW1qaDN8KfljOr95+OdqADv7xXAs3Cj5+2qJ5VDenIa/WdDCiT1/BcHcP5NbGSu9+Y3C8X7bEvgHsC+h2AkuVQvx6YxuA27++x4xrDFeoPpg1sjg09EERYs7sdJr8PbfLRkLcjKgWINScGVVptJvPwuuTUEOR/PwV2y8EsDKaYe8ZTzZz3Ii+je4vDR+WJjmwkncD+I+UCFEEvOBaYxyBbgeBjUen15qCnI4mof4dc1FvE585eZTBFzFsu3m8mtw4eR9mIojQlxxEnm1YxQ6tWyHHpM/Q5DzRcQg5Kkfnrx4ixBVdnkDBkTc3YDz5rFGMTfhd/UVjKEEq3PMXwfryt8iDzckLuoRri83BTmcmLuTcOEyd15+mhiul9yijkq6B5GlZ+IIgejHK/D35dfs7BTBvkBdJO7QjSOSQXt/MS6yoIUTe/UPBHH/5OqcpFpZ6c1vFIXgvQtw/6WGvd4eeSqV5dOZ6P24cfUtq0utkK9KPxSM+yGogWIlc0PCfvfe3dqZsSAnAwrWL4t8rBpRPzqKuXyQw9E934p1f75kpbFB3uIlLHqleIZ3uLZ+XdywMN3VE7jN1cncyoBi84GpjUqFbFiKBi8urDEFORzdc2xddQ7PEgwx/ERBN7Bxnbn8Olw9cRum4ggQV5xEAn+fAK//tUW3cZ8hyEmD6HSNpImBLi29yEpN9r2FB5Ppgc7GTfXRcEId03bsgaly4+bomNO4bf5wHDX/YBZwg4OxFGEIeGJufJrcCoswBQISGXIlV9KQFzivsqjYLvdFU+5vpDInKE1YpSNJLTDOIF34S8Rk4xMn+3FHYWeuWrVCwR8X8zcYNW/r0LE495wUtq4fLzup+fAGr1Jr4MlY8M794ke9xtVEHROvn35gFXtmUSPk5fOPego/1anlI+Hj48Nvm3AzjPtOhePO1lEW6dOw5U5GT1p75OuyDj9vvYNRp55hwtnnbHuG7o3ysR/h1ETg/dU7xgsYJuzHrUUhTKlXBSfu8UkJpCG/zff4dvxx9P3dH75nuLKw7cwGVM2XdGle7D6PN+wHVOxWAaXNd0ar0ATuzuzf6ld4cvzLDZQu5coFV6xhWbo79iQ4j89ibsN8xucU9oU/vulvVAiehqT2+VlDZrwKFYznJ4NNSWZ3AxCRiT/cEUEPYY6jcj6uJ6cRug6bgrmzR6NT/XLIb22AKvABLh7aj9Ov+GxZkg7hb/3iAurkSOxlxnNPG+SPgATL/Ucj6l1kXGM3o/5c42tRF/2Kq0FciaLgt3eiRfoUrL+asB2Rdqzx3WE1ftp8GyNPxtdRfVoWtBjKmpwoBN26YlHn7MbBNlyd8w0O/8UnJZCG/PKqqDjmCHrv98fYuDpqN2oXTro0AXtO4iULlkR5yqBkZb7hUvxHuLuwf2sD8OxUipONM1XR/LmMx0xe7CesT1RHLWtZ2PiclV1+8LOh4ilD8CIgtTNNweoorkEYhpd/Juo5ePwK4Zn44xgV9BTmOCq7uJDge5LcNgUbrnER4SPsnjM6iecTbwtxKE3Do1j75OFL/t9ZR6YHOl9ctCrzr+yxL1sUdw5Ic6FweVMSST9uMYIVK1aksnE3ZU1t9m1m0EITzdVY0fjw8iH8/f2T3h58qWte/yUyFPA5hM7d6qFoHiuoA5/hif8jtj3G6xAN36uZkmjogtLTJ5ZKfmlD1Fu6Gk3qlkBuKw2CnnBlYRuroEP5HuWPPFqEu4+UMIjzoXj75sbgzLlmWTizNoTm1WX4fcG6XaWLNh4zNfsRfpjUOcy2B/4P+B5I8jUJ7Uvghy6DMH7WfEzybomqRZwhM7DfrAcXsXeJL0ZPWYJtZ/wRwV0R5BYjmJNUHZlom90HVUy7J5lGCtdBB9C5dyMUd5Wz+uN5XB31KkhjEZAkJxa60PQs0J1KfkkN1Fq8Hs0blIaLXIuQZ+Y66gVC1MmU5uVK3HkQDoMoD4q26mQMJhxqVEQeGTc95xoefKkphIxaG208ZtqQ58nWUf4PH3yxXnDymRUpilzcQAADO68tp6lkEV8/0Hn5FmHG760DXD0TXoMs72BnGn4WrUGqFyIzU9B9GNtJEmd4fptl7uLIiCGS8RNXs4EvvxiBDLmKJTf77z0Cwrl+FSF0z7ZisLc3vD/ahmH+2Qz2A+r10HNvQ54bpRLdrDi/h2PqVwS54Z0f9ePnFB1RqYY7OwYhuDH7OyzpUg9bvRsYt1PXQj55SEu6NeqD8gXYJxJ8CTvbl8eaPqaybPWegIchyZUmADdP3GF1lXlRgpIoVtaVvSclXv617ov+YD8PiTReXRdH3sbMAUmdx94YvfpeBq+gx5rOY9jDtWqiYZxlXJFoLYIkSGDFrX5JjBy+bYCG1UrC1U4MvSoQDy7uxRLf0ZiyZBvO+EckPPe/xGIEn5EhRm8MwKWOBeCYYCSEBDYuth8PpcxSmqFSbQ8oEI67y2piUae6cXXUsUvvMr0HPVXV+6M81x76cB2/dyyH1b3MddQI3AtMrjTBuH/4JoJjzYsSFEaRivnZe1Ljzd8bv9iwNc7roAjjMROpHmDFwKTrKJ+l/5iGP6Ybq6OMlZQN8lRwMyWZFXGHfarVjxgy2+zTjsoOHMoXYwE5+0dUIPyz1vQco68f6EQfwF3jwG8HlK8+BN/KTIOzucUIepZzNY7/DX51Gje+ZPeh+hauPOf63mVwr9QcidqtX8Eb6FTcT5sM9qV+hq1Nqq2NLOGvX8cn0QWaeJuMdX+bxiln3HsEhnFdcHK4lKgC45QvIxkcHc3BcyAOn36ADwYRXGoMwWKf5kgUV3+aO9fwnBvuJS+M+v26oghfBm4xAu/GRVmVnIz3bxHBtUilrqjUvrVF2XMSMYTc5JhYNVSBFj0trl1RoXweiI0N6y+Im7/HFUcVikiLX1q7Jr3gkUecbA9T7NGN8A9k30P7EijXfRA83dmPZdQLPD79nM+RFBuU/8kHM2aOQ9/GhY1Dez7Vw22X8ZSd7hKPJpg1xxu14icNZYJzuMfNAYAdSrcehsbO/E8EtxhBn5opnJ/PEBLFXY2Sw6N2L9R0zP6DBTKFIRZqbnjangXwGTEFS7adgb+x+yYJYRewZmJSdWSibfIGmOegZyXhl24iiJ06AodyqDHy57g6T1xmEmpXS2UJ8q+Or6P0GqjeWYy7c26HCpVcIf3SdZTINJ9QrwlDpMWQIet6fVHUTZp8HXV+DR68Zj8oNp4o03UoihS0BlRv8PT0HT5HUmQoyb7r02ZNwIDmxdMwlDh1L/ZcwOMoA8Tu9TBuwS9oUCAzw9wruPVSyY6BDYo3G4w2+fj6j1uMoF9dFE42hnmD91FcW5O166p1QaM82aMdlfU5o2GNwsY5tlEvr+PCe1NqVpIl7qNjXF66Q224cDWhcYW2WIjlCtP9dMKuYcWqETjIz8OJW9XtoxXdInDjQDdMecD9SH86eTVfrJlcH/mE4bi1YQCGbkl6hQ5ZzcUoXiV//FLWYhmkViIYYtSINq9XqH6AZ5t9jSupJbsqm9tglOjaFA7RSd8XR1B8Asq0rQ5r7g/pdaYlqRmhLBahxwbi6b8ZOLukP6HZuokoEXfhVgCpXA6JkJuEzi/VCz3CLvvgtxnHjDmyqrgV0lj1F6MxTVQVWSmgujoVbeOWYXNCs6nLMbiGi6kyZ8eRWzKSe5sCiRz6RxvRd9BmBHDPMeZ9IsH9bJgkV0rjlpdeilltisGa+4HSqWBcjZIdT9WrVxAULAD7pFZdY6+r6rsek+u7Gctkeh1XIhGs8BJ7fuFXdbO8j86eoehjsTxbsuXMMiqgxurtqMetGKcKwds3odCK7ZE3f27EPryKkMLfoZBEg3AW9D077Y1DQRPh7V0BCgghVchM90jgz0e13ypsGrkkbqKzUdNt6ctfdAa6LPwZhRUGqIPeIDBUA7G9G/K6xOLZ1SC4f+cBiTocwW/8cGPaz7hqMSzNeeA59GxdGCKdDkKpFOp7K7Fm0GwkWCTRkktjDPVpgaIK1uYNvYo149bjoxXr41ZFi4WWWzqUT04oErdX94PvYVPF4O61BEu7lIGdMZ6weJ1QCoXyOqZ1G4tz5iDOvH9VwvvZJLdSGre89K++9eDGnZB8/SqUsvo46CXeOBeEuzTp1eFk/5uD7QO+Bbfadny9LGBVog53l5pXdYtfdU11czm8hu2N/11ItpzxGk7bjZHVc0H46hi6eM1lTZdPVHIGOk5rBde4dpgIMoUV+28MNCqdseeMtRTxfFtb7N2eUkCbHXii0vyd+L5YfNexSCqHjH3O3BLb7GfXSPdiH3YMHIegFFZlc+hxAr06J74vjjOKTTyMNnXysrqMuxUCt08hrBQihD0PgrywG8SZdh+dzFYc3y3di0albWDQhCLgdQg0QjvkYXWU8Nk1BLh+B0+FBhFBAXhxfhR+9/NG75FVwI05SfybqX2yBVuHzECCaUq11qcvfwFfdFjaC8VsDdCEvEVAsBoiu7xwdRHi5bXXyPNdMcg1EQh5+xC3F7TDZYuVJM2fjRWro8DqKN3DzVjXb3yCe8Ql4PA9Bo5tj1IsMjVE3sTmUWtYKJFI3KpoXLlZ24b7ifqIEg+2DIHPTtOnm7f9XCzrXQlOxsaRxeu4Okp7B0t6jsAB85s271+X8H42ya2Uxi0vvWpyUxTiLozzv+MCVkfJwl7ilaIgClgnvTqctOFUbPapgdx8O8r8+y+S6fF4vXlVt/hV13T3NqDfoE2IL05y5YxXY9w2TKyXF+LAcxjScSrSdMuhlBTyRfs5neAed2GW+05x8+Es6ygNXv/uhZ2/pRTQfh7OLWdg+YCq7JiG4p/53TH6aLK/hl9Nlrjspnk4Hr037MbNgHBoBdwKbQpIYiPx7uExzFvrExfkcOJWdftoRTdWYYvZSZ9J1JcXY/0/QTAI7VGuyzKsGdsSHklclBBIWGDD/n7cxoIcY7pYHp8mlxmvIH8Kg/8s+P9+HO/fRSDGIInbtyjWAKEiwd3f0sEKEoXCeLxNG1cBc+lcg9GcZg2ZLNWBV1/d499mY+NfLxHO3VdGZjofhLoo9mPlDFc+DxCKI+O7Y8iqk7j9Osx0Lxf2/rj3KBfqECOyg/l+bukXjXsrxmL+7zfxOpz7gWHHTi6G5uU5rN7zKoWhJtG4MmcU5h1grwvTQC8xHXNrayn0ejFsP5qtmR3dxF+TZuLKw1DorJyQv2hReOS3RtT9XTg45Sy4xae475FDPg+4ubNPgAWdcuO5xwUt3Ovjz0c5ayR89FVKb/5HY3Fg+Qk8DdFB6uyOwsWLwNUmCo/3jcfhvyPYDwdrnMsdkLeIB5wSLQUXvP0onnNXKlkDQogIvPhjU/JBDif4Lh68jGCfpQaBD++y0DglLLjlz8ePN/ZerOLfyauNg9F13Bb86R+IKC37Jpvzsa+qhtUPeT7hK6u5MA1jVpzCg0AVooVc/SqDMNIfBxb8gfAUhhBr9k/AqFWn2euioGV1i7ncYnbyS7nJTJkgt5218UcrIuRpwuA1o1g9bZWgDmRBDneYBWLI4tIUrF7P2v0RaSNidaPle2UNQ+MXRsAaevFpCvadibtwly7BeDjdC4fPPUGIMhZCtk+FlQHh9/fiwNqHWXzOmD/+mTwZF+8HQyt2RL4irI4qYMvaJgdxaOo+RLHWpEAsg71rYeR3z8PqHBlf53z8mymXsd8e4z4tpDf/y+k4tPggHr3XQuyU31hHudlr8OzIVBw6E2qqo2T2cPHwRK5EP1phe/fhaZiBBbFS9jkq8erShuSDHE7Efdx/HoZYgw7BD9m/+eSkceU210mJN3Y+cVeneYG7fOA1ch3O3X+LCI2BtTX4fDJWV8RK4PQJU3N1V+dj7JJjuPs2CtECFjix4ypSPsGxZccQlEIdpTs5FaOMr4sw1pPm339prB5ih4y2oxLKZW9t7L2MCnnBvhGZQMS1MU3nimljQU4SdZTVl66jJE6o5DUTi/tWQW6xAUr/41iTBYMczuft0cnuJMXQY94s/FzWwVTxG6KhDn+G4xP6YeldYw5CUlVu+AbMaVaAtU6PYbTXXNbsJ9mZXccD6N6jPOyCL2Jrj854mrGB5tlPw2nYPbI6cmn9sNlrANZnyq94eph7oIR4cbgrui9IupedkP866//tRvf+leEYfhV7e7TD/TStmJUD1BiHbRPrIW/ME+wd2BvLv/h8EXMPlARvT/+CzjNyYkOxNiZs9kFVFxbYGiMuFuQ8OYq5I+fjQoJuyazjowsJxEL0Q6z75Sf0WXoad9+EQh0jhlwhh1VmDGIl/wEyeDQbjcHfu0MKLQJuHqcgJxsTOddEed8z6O5VDvaCSPgfHvefCXLsyv6MGV6Vjcv8K59ewYEvHuRw8sLeOHY3AsGPM6U/h5AcReRUBWVGHkePvt/CSajC0xNT/jNBjnWJ1pjUp7pxCoT65TUc/iqT4vPA0cbYn4PQ51+lkvwCJJAprGHF2jSRQU9wadsk9PXOukEOh3p0CMkkVcdthG8VJ/6RyDSO1jjayMAah0cxa/h8/JXcRDWSRVVFrZVrUbOYbfxNLA1qvDw2EtvnHcrE+yNlIe3mYE/XkuyHjMMNkVGAH5ELfdhdbBk7AhseZGxNt08i64Zl+7uilOQFDnftDurQIYRTFlWXbEbdUg78sDjGoMGbs5OwffqODK5slsU1nortAyrELXjBDb2UGcecsrce+QB7J4/Ain+/wjuXtsGCPQNQwfotTv/SGTmyQycboh4dQjKJSm2AxDxeWS6ETqVEWIA//to5Fd7eFORkTxJI5FIINCooI4Lx4vpB/D6wJjbl1CCHE66DQc6fx8ZJP0ooQ17j9rm1GN1zyNcJcjgV8sHR2KETDOrQIcRMArHMCgIdV0eF4NXNYzg0vDbW59QghxOphcE8X5ubj6tl7z30Le5d2IRxvQd9nSCHU6KgaWn1qFDk2A6dbIh6dAghhGR9jSdjq/c3sAs4hT79lsStjkgIIVlCrbHYMLwacoVcwKiec1NZ2IF8KRToEEIIIYQQQnIcGrpGCCGEEEIIyXEo0CGEEEIIIYTkOBToEEIIIYQQQnIcCnQIIYQQQgghOQ4tRpAjuaDTkrXoWca8yny8qBtL0WL4fv5R+lWZvBMza+XmH8XTPN2P4b2Wwo9/TD6X6hi/fTLquvA3NrHw4shP6D4/iH9EyH9TnuEbsKNZAf5RvNjAc5jYcSou8Y8JIYTkfNSjkxpJYTTtPQDtK30cNGR9BsRqlVAq4zeVJqV7YAhhXd8Xdbq0gJxPSSxGo064P52efyYbsquOToN7oIHrx0FD1qc33qfH8rPQaFO6ZmEHt7YzUe3H8uDu20xI9mCDVvP24+zZU9g2vjqfljK9NmEdpdTG8s8QQgj5r6EenRTlR6+Vq9GxuBwG9WPsG9oHyx/yT30SEewKloSHoxDKNw/wKCizb8Bn7tGR4tXRMfCad4NPT5m47QH80r88rBGLgFM9sXbmH/wzyTP38GS/Hp0GmLZ7FKrnEkIfdAkzu43DGTX/1CeRwaV4cbjKYxD8+D5eR2X218vcoxOFfxd3wYgDabtzovuoS+jcyA0SQzjur26OPbte8c+Q7Mam1TxsHvwN7HX3saHxQGzi07MVgQ3ylyoCZ7EaAf7+eKfh0z/CBTqbMfgbGwSem4iOU9PfH2Pu4aEeHUII+e+hHp00EgiFmXiwnPHj8BlYsGAOxnmV5tOyEgGE2bGTI4OE7LMV8P/+dN+gz6R57LOdhiH1rfm0LETAzuPMe7OEZIz1DxgybQEWzJuIPt/waYQQQkgmo0AnRa+xfsJUrNmzF6vGDcHSTOnNybpi9nph+7KtOL9+CDZNS703J3s7hWnjFmL7gS2YOXg8TmdKb07W9WphD+zZuBunFnbGvp3Um0MIIYSQnI8CnVTEBl3BjhXLset62oYIZWuGMLzd54vzmw8ih7f7jTT+R7B28TqcCvgPjOHXPcCjjT64fOgWYvgkQgghhJCcjObofCTpFct0r45ijNc8JJ7t4tJpCdb2LAPBrfWY5V8R/ZuXhatCBEOsGqGPz2CJzwL8ycdI5rwpLmuge4WjY7xgOa1GUrgFBvf/EZWLusHRVg5J3NAjA1SPf8foPktxl08xSfscHVGT3RjoUxn2/GMjfQiuT6mEIxf4xynIvDk6tmg9ejZ++HixpIRi3+PSyknYcp9/nC5Jr1gW/u9idBlxAIlD2erjt2NyXRe8PTEWB+S90KVaYdizg6/XReLt9W0YO2EnXvMxkjlviiP+wv/F4i4jYDmtxq56L4zoWAelCzrDztrK4vWxCLq0AD3GHYOSTzFJ+xydvEPOw6tFQVjxj42UD3C8f2P8k+U7daxQ61d/1PXgH8ZoofwQhGeX5+HYot8TBuKSOfA60R4F+YeGR1sx1fcFms3/BRXcrdkxjUHUi39wdlpH3HzCMqQ3PyfRa2I0SoS998e99X1x/rzFSnfCJmi2fSUq5Y7Fq4MNsX6ReQc8sS9+PtwbRSVRuLesDPZmYAHEDM3REbmiyQhfdK3qCWd77jyLhTYqGM//3oVZ0/fjBZ+NY96//MEOjPunCH5pUxH5rNmZGavFh+cXsGr4TJyK4DMbiZC/3ThMbl8VBXKxfRtioHrnh8Mr/kSR4f3xjdxcTvN8mwS1zUcSzqWxmKPzx3zskXSE13dusJUIWXE+4PmFVRg+8xQSFCeRNM/RkX6D4SumoklhId6enoquM2k2DyGEZHfUo/MRPXQaVfyKPepoFk6kTupWB32alkcekQZKlRZ6kRy5ijfD6AUDUIzPo9dpoOL3q47m9vrxqmhKlRraaFN+jqhIXyxe8guaVfJEHjsZwBpY8flV0EXrEjWE00mnhprth9uXUqlG9FdbRM3Ajrvle0tmY8dHl+EuiWhoLVYqU6VxNSaHEr3QoUYhyKPZMdLEQCC1Rf5qvTF/cv241emiteZzRgXTbj9eFU2p0kBncTLJmk7D2kkdUbNUPjhaixFjmVepZe8zijVHM45bfSr+s9UiNjtd0hBWgFRgLjs7pizwsc6dH2VaLMLA1dORi89mwr4z5vfIPXQohAYTh6NSPglLZ+eLXgybgtXRzHchH9CnNz8gKGYNAV8W7nUCmTWcC3yDOhMvoIt3WT4Xoz+OS1dfs0+fNf6rjEN+PtlM2LoK8knZ2R75AH4ZX+U9fQS50Xb2MgxvVAou9uw8M56XMRDbuKB4/YFYsrgr8vJZLYlyf4cBLb9FXjELMrljJbKCo2cDDF8yAuX4PNx8vtxtZ2Nx3zoozIIcYYyp/hPlLovW3s3houCzGXHfce74cX9fxdc1LOBK/D1Ra9k39WPi/O3QpYYrpNFq40pqIitHeDYYjiUj4kvzSRzqoqyHHEKBFVzL1EVlPpkQQkj2RT06qTD3wkhT6dGxMWjx8vQMDJz5J6JYI6eg1yIs9SoNG90LHB7RHQsSdLmkvcfFc+g6rPyxEITht7F5+EhsfJqWFdoytuoapF3RascUlLP7Gj06X565FyYqlR4dkf4Dbvz6C0bueM2aZTJ8P2k9fGuz9LBrmN9lJI4kiDTT3uPSZt5B9P/GBjEvT2HSL7NwOTwtX8WMrbqGMgvQfW5ruMdkRo9OAfw8YTRqJdU6tqR7hTNLZmLvU/7xJxFAUXkW/jfuJ3jaauG/rjh2buGfMjP3umjD8OHdI5wZ0g73wwCr9gcxoF852MQ+xMkGDXGFz57u/JYEeeE+YBPatS4GG+09HGnSDNf5p2A7CZ12d4OnJBJ3FpbF/sN8OiSosPAWWpRXIOLaFCwauY5PT5/09ujIf5iJTWOrIFd0AC7M88YkY3eMAPbVfLBwQmMUEgfi3MSOMC9oFrd/Fm4EXJgH70lcjwkLaNrNxxrvCrCPDcCZsZ0w/Sq3G3cMX7cezQoKoHpyGBMHLcR1DUu2rwafhRPQuJAVOw+SKKdNK8zbPBjf2CT82x+z6AWyLD8L3trNXwPvCvaIDTiDsZ2mgytOUtLco8P22XrKfHQuZcCDvRMwdptlPxchhJDsiHp0Mokh6j4OzeeCHE4sXhy/gufGB0IIJcbETyKQOcGjcgW4Z8fb+WRz+leXsGgnF+RwNPjj5H0Ecw8EQogzYQUzka0rKlQuCudss9JdLKLVia7CJ7WpNIj+lC6pBAxQXfXFVS4SgRS5S7QxJSfFSo7gP7obgxaOdv8DhHD/SG7lxPTm5xgC8WrlBjz5wP4tdYVbXVOyUeQ03L7HvvwCWxRrPJaFNzxRT3h6KLjuHLy4kLEgJ/1kqPy9J3JBj5B/1vNBDseA8MvLsfcOe9OiXChQMYmoVfMIJ2eZh4UZEHTsAp6Ec/8WxNdpTs1QzI0dJX0Ybu8zBTkcQ/hlLN1203QcM4nuyVnMMpffEIRjF57AVBxh/DH+FGyf+8Z3Res2XhTkEEJIDkGBTiaJDgtAmjpb0unJtuO4/p61Hqzyo1bfWdh44BSOHdiOXxdMQt+GHqzJRz63yJDH+PAZ+j337juPZ5GxEDqWQbuxq7DrxHEc3r0Jy2aNQPtv7FlzMqt6gz1zfeDjk8o2diEOZrS9KMiLIv13wmuXH0affo4JZ7ntIdpWsuMzpMDwHoGnLHq6okdiY71CmFL/h6Sv5qclf662qDnzHAYcfoRxxrKw7cRUlElyukkM7u65gWD2LyvPWqjIj28U1q+LfLbsz0X6wz+ul+dzs0ap3FwhhchVYyzOnj1rsR3C8G8djM9ZO5knQ8WLDXuHR8ne34YnsoYVF2XEBODBMVOSmfp28KcNq00gFqEBfkitOIQQQoglCnSyune7MKZDS3hN3oiT1x7gzQcdhDYu8KhQGz+NWomtczvAjc+avXGLEazAihWpbEsnoXMp/iXZ3aX56NWyDYYs3Y+/bj/He5UBVrnyo9R3TdFvzjasHV7xPxrI2qPkjGPo0LYKCjoIEPH6EZ74c9sTBISnpYtIC+0b/p9pkkp+m25ouWoO6lUpDHthOAKMZWHbozeISGa+mOHKDDx4qWeRTjGU7uvJUkRwr+kJLqyIfHgUGVpLI0NioYrmZrzoERnwCP7+LMhKcsuU8YWEEEJIlkKBzlclhFRhy/87JdF4fX4jZo3sjy5tm6FR4w4YudsPUQIJcpVthA5l+GzZ2pdYjOBLkkBmL+b/nZII3N6/FOOH9ECHFk3QoFV3LLn0DrFCOTxq/IwGWfCeo5+dZBS+rewIYewr/OldAiu6NcBWb25rgr8eZ14fQVqJunRB2VxCxL48iNVNv8VvxrKwbeAqvEyuOAY//HXxMXTmRQmEtVCqqDNLD8WTY19q2BpHg+dhKvZ/AQTvzmKotze8P9oGYvKuQFP29DLEQs8tKiByQsHqpiQzeTlnpHr6CqwgT7JXjBBCCPl0FOh8FRF4FcENwhDDuXwrdPFI53X76BC8eBEFrfFB5swB+vqicHhREsOfEm+jZmNXlr5x61OERnEtPwU8v++DqvbpHIAW8Q5+oSoW9jGZNAco+xFz02OAmCgo35pSOIJiQ1CxiB2++MKAYtNcnZioQItljIXI3aEjCtgnXxrt+n14FMnKnedbVO7TDYVcuDjnAfzO8RmSlBu1e4/H7Kmj0LmGYyYMX9Tg8s6beKMXwKZ8Z6yc3BHl0jD6L83CzuBxADsGIhdU6T4UlWSmZG4xgkEdKyRaHc+C9inCufhL6IDSzfqgOP86QgghJDNRoJNI7nZzsOPQIRzit187FjdelZS41ccUc/q+VRj0Sb0oavy19TKe61j7wLECuq89hCP8vo+cOIb1w+J3XtJ3K86ePYMTR+LLdPjYcewcUZk1IgzQBtzGmTQuqvYR6U9otuU+hh/it71jUJJrBAkdUXakOf0ueo5tYsqfzVUe+Rt+548ht42t7gxu/r9tmd7Ybk7fOg1NPqkXJRC/nbiDCBapWBVqjBl7jvJ/7zCOndqLOc3id+617Dj7bE/hmPlvs+3oySNY2bwwa+rr8eHRnzhjMXUkXUpMR8c9Fp/tzGZw4+JpRRF8v8Kcfg1tOhY25c9KYs/h/TvWeLYqiR92/I1uK0+h88brGLlsAJyeXGdHWACHb6ei/4aTaPgj+w71Pmp6P/tampZzFhRCTeP7u4de45obd2kpvfn1V1/gPVecUj0waOsf6MTK02uXH/r0cMGr64Hs9ayxPuwaeq5Yg9L8a4xi1+LarWD2vC2Kt6rBQhgDPvjvxWP+6SQV/wF1yrrCNldBVK1VF458cpIkxdDB4txJsP3+G0by6yNH35mHhceeQyuwRsFavbBo/0kcNec7dgonNwxHcVPW9Iu+i7UHbuIDC6QUnj9izkHT+X50z3TUFQQigM/2keg7+O3PR9Cyz9K2VAes4F/HfU9OnNgK36+xtrOkHMZv5eYuncK28Ym6pwghhGRLFOgkIpTKoLC2hrV5k0uMV1UFIqv4NIXcNAH3E8T6LcGoabtw9WUo1DFiyPl9yxADocKZz2WLfFI9VFo9JHL+b7NNLo6BMiIAfn9sxLhB8z9a8jrtrCBRKNg+zZscEuMZwQ2pM6exMskS3HIy25JYmd6PeVNYmZY5E0ot0hUySD/xMrpmzziMWn0G/u+4XjfzeaMA+9ggcTafOB6wEamhiRHCyvy32SbVq6EMeYarv8/FwDEfL3mdZmJ2jsZ9rtxmBZHxRBZDZpEutUrL8LovTH8Mxycux61XkdBbu6BA8aIo5CJB0NXl2DfjmfEeK9xn5lygKFzysQcyefx7NO4g/j0mee6mM7/hSg/sXfc33rDoVeFaCJ7FPeEseY/b6wbi+GuuX5V9X6ydka+4R8Ib7yIWL9ddwRsWJEml7HM3BOHJ73v555Lx9A4eBWphiFXimf+/Fj1ISTB+lvHnTsLNso7S4d/5vdFj9u+4+iwEKnbOxb2OnZQaoRyufM70MyBoz1hM2nwZz0K00Itl7Dtkhdj317F56V3jZ5U0A96uHonxW7jXqRAjZK/jyy2IZuXLw2f7kqzY52e8708sQl8kuwg1IYSQbITuo5Mjme+jY41YrYo1pvlkRnl7FTr4HuEfpV+lMRswqXr8gBSBRA6FVJgt76OTPZnvoyOATqWG8b6zvNcnusN7GbfWF8k6hMg99Bx6/lgQouf7sazHUNOSyP8BDl2XYUu3UpB9uIL5bcYi0aJsn43zwJVY38jiVq1c8GUlQqr30ckzHBt2NEMBy/sEEUIIydaoRydHE0BkZb7Ca9oUsk9bx0tsvBpusT8W5JCvget1S/jZyqz+kxN6sixJvqaoMvMiujUrCGlsCG5u/q8EOSK41PDG1JYloOCGYN4/+8WCHI7QKmEdxQU5aSEr4cjKy0QH4zkFOYQQkiNQjw4hhGQWUWs02TAT3+QzD4tj9BHw39IJOzfc4RNyloQ9KAJI5Qp+CCyLGQIvYemwcTicwUXdviTbdguwxbsCFAFnMLbTdFCsQwgh2R9djieEkEwjg1QhQaxKBWXYOzy+vBU7ulTPsUEOJyYiFgJz74lCili1EpHvn+HqkfkY3CN7BDkceQEncIv9Rwc/pyCHEEJyCOrRIYQQ8h9nhe98V2N8VQe8/3M6es6hUIcQQnICCnQIIYQQQgghOQ4NXSOEEEIIIYTkOBToEEIIIYQQQnIcCnQIIYQQQgghOQ4FOoQQQgghhJAchwIdQgghhBBCSI5Dq66lSoTcVTugZ5vvUaFoXljr3+DkhH5Yepd/mhBCCMkUzTF9R1+UkykR/MIP57Yvx9YrwYjlnyWEEJI+X6RHx97jF8zxPohDk87j5BRuO4sDnfsZb86WpYnc0HLKRmyc3hMNK3kijx13Qzw5rCT880mRlodjze6wyyXlE7ITIazr+6JOlxaQ8ynZiqwyyvSbjrKlbfiEz6TINHQ58hwTjpxBjWJ82hcnhWOTiajV4QdY8SmEZAdVfbfi5Nmz+H1BG9jzaVmHHdzazkS15uUg5lO+LClkCvY7Y5cHBcvWQbfpm7B1dicUFPFPE0IISZfPHugUrLEa671ao4KrPSSxKiiVSrZpEK58g2g+T9Zkg9qjZ8G7phtk0CDw352Y7NUC9Rp7Yd4NPstHKsOt2zQUr/cTSnaaBAdrPvmTSSF2LgO5WylIZZ/vF0/cdj/6+fZGne4L0XnM93xqdlEFdZZvRev2ndBqxi5UdueTcyjb7ofQy6c76vZejg6Dv+VTSbZU1RdbT57F2bMb4ZOPT8t2ZMhTvDwqVCgNd9vsOyLaffRxePX/GQ2GbkbLdvn51C9pH4a3qIcWXpOx+corqLnjWrkLpo6uxX6RCCGEpNdn/kVqgp5VisFGoMeHuyvQbVoT/G92U+PWdf8hFj5kXaKSvdGtVn5IDVq8ODEZ3UasxvlXUfyzqRMIM/PQFodzixko32sK3Mvk5tM+JwGE2fgKInfsBfy/czwB+6yyb7uS5BgV0HvCXCxYMB1DG2b5vvrUCYQQplqJSOHk7gEPD3c4palb1QYuHlz+vKkGLVGvzmP92D4YdeAx1AYp8tfpg1+qZct+dkII+ao+bxOpTH2UsGd/IvoJzhzdhcBsMxtIjuodqqCgFIgJvIi1c/6Gjn8mZVcRsGcBHv2xE/c3T0CYkk/OJmL2emH7sq04v34INk37g0/NLv7GnxNG4si+rdg/ui3+ecUn51CRm7ph5+rtOLemP7YtusanfiY2nqj50wCM79cYNIKG5GSvFvTEnk27cWpBJ+zf9ZpPTU4JtOw7AiNG9EOrkmm5tFIHnYdz+Tujbpp+ebW4u2Q+jj/TAuJ8+OZ/9bLgUD9CCMnaPm+gY2sLG67+f/cIB5TZaM0DUXHULZoHAvZD8/LKblzik9PCEHoOIRfWIyIkbaFRlmIIw9t9vji/+SDUfFJ2on/zO64v88Wde2nvecu2YgPwcucY/LnjNDtLPw8bz5r4acB4zJ4xHB3rlIarbXacd0ZIOuj88GiDDy4fvo0YPunr8sf2i0+M9bFjoWooR506hBCSLp931bVqq3G0SQmIXx1Eu7XzEc4nJ0VWYCCmNGuIki72sGLhlz46EkHPLmLjgTk4HannczHmffIPn59vCZ+3gzGnWW0UtpOwBqASr+/twtx9G+Bn8bJ0KdAPq1e1R1HRa5wY1xWzr/LpSSqLvD2mo1D+hI1A7cONuLtj+0fzkOR1V6NMrYJQX5uLl9EtUKhSMSikAhhiohD14AAeH9gMLb/EjjlvilfRlffwcO1whEbwj9NJ1GQ3BvpUTnilUB+C61Mq4cgF/nEG1RmwAD+VlvGPkhOBO9umYeXFjAQn5VB99S78UDTh39A83ob1fcYiiH9slqvfafRoXwTaf+bgWGBzNGhYAs4yITv2aoT4/Y6Do8fgdYIITwr7Zsvwo1ctFMglZ+dcDNRBfri44S6KDPoZhfEEZ4bWx18P+exxJCg/cCmmtioKScB5zOs/BWci+ac+gXWHQ+jbp2zCYS/Rb3FpbHWcvs4//mQ28KzZDI3rfoPirrb89ywGUYHP8ODKEaw/+RAZrTDKzLuH1t/wE9didVCFh+D1jc04OXcFQhNcF+iDNgfHIm5NiYDTWNP3AErMmYKqxR0hFeihDryDS4u98NffYSxDevNzEr5Gr1UjPPgZ/PePxJl9dy1WuaqAWmt3oq6nFMEXh2LthN8Tfad/xo+7p6Nirmg839MKm1b48enpwM3RmVIfruJXONbFC3Pf8OkpskNV7/Hwrl8KeR3lkLD3GK3+gDe3jmLJlPW4aTku2Lz/d6cwYZ8EXl2qw8NBCoE+GpEB/2LHuHHY/iLhul529YdhZs96KOKiYPuOhTb0Gf5YvRuSbj6o5xoQV05uYYEp9V1TnrgfcRPLvYZhL/8DYH6N6uZqrHpbD73recBRJjLW+QH/7sC4cduRqDg8GWqPXY0x9fNB/+woxvRfgNuZcD3JdegFeP1YgH3bLSgf4Lh3Y/yTYqdOOXSf1g+VnT7g2ppxWHcztW9GMwxf3gyegqc4NnAeDqX196nsMKyf2xwFhc9xyLsHFj7h0wkhhKTq8/bopJGs2FSs7dbOuGCBlUELpVKFaJEtXIo1wYjec9FCYTEsgDVKjQsaaEzX2+wdBmLcj/VQUB4NpUoLvcga+ct5wadhyYwPs7HOBRuu7awLwbNbpqTkxbBGkhI6VibjZo5SUiHN1wYFWJBjpVdBp2ZNJ7ENbMt0RImWLeIaDYZoTdx+Y2K5H1EDYjUWf4vb1BoYPiVU1amhZsebO+ZKpRrRGQ0OkxDDjotp8YmUNjW00Rl9AzHsdDCXXQUVOyfSsie5e3vUbVASDtCwcyYaBrEczmU7oP2csSwtnqLZenQc3BAeznKIYrVQqXQQOJVBnW41oeDzJM0TtcoXgI1QACu3UqhZik/+RIYEn5UGGT5sSTEPT5s9A8M71kFpFuSw6Ab3L+/Hr+N9MHLKQqz7hCCHOyZysS7us9LoJVA4uaJY/ZHo+9uv8EwwrUMLncriPdrkRfnxk1CjuC30LF0bK4A8b3nUG7oMHsYPIr35mXzOEGnjj2WsVA7HfKVQdeB+9Bj3P4uV7G7i+vlHUBoE7BzphpK5+GSzWg2Qjxueq36JR4czEORkCGvwj1uBye0qwZ2bHMLqBKVSy5JzoVDVLpi5YhjKJdX5Zlcc3TrURGHrWKi477pAAtt8VdBz7lQ0soieZbXHYcXI5iiZlwU5eq4+1kBv64lGvTujiF3CWjVaw9fH7Diaqj4u4LL8frNNxb7jSZ04DvXRvaEnbAzse8jqQIHEFvmq9MTcqY2SmcPCgs7SrrASCCEvVBY/OPPJnyiWvQcVf15yx9FY1WYld56bLgSIZbC1pcGjhBCSHpneo/PzTwfRvhDfVBdZwVrG/s0aiebAxCjyBpav8cVpY5Ib+vXYhNaFJIh+fRwTN83CNY0BMpcBmMOCnxLWAgTfmIRu+88lnCfD9+wYwj/g3esdGLtrBwINcjRtsx2DyzsCL/aj/W+LkKGOjpK+2Lq8PlyjbmBpi+HYzyenhbkXJiaVHh2RIQJBp8bh6RWu8SiFov4ylK5RAKKoO/Bf64MPCXoAzL1GOgQdHYgn1wL59Ewm7YpWO6agnF3m9Oh8aeYeG0EqPTpygwrPDw7E9sVn2ecjhcuAY+jahjXEVY9xavAPuPyUyx3fW6R5cRz7RvTD4xCWLKuD2otXok5RBQTq5Hp0gNxNJ2B2r/IQPzyImeM2wi+zx8E4D2Xn9y8oIcucHp1mw5ajWREBix2jEPjwDi5fOooL/4Z8tmFxHGnJEWg6sR/K5QFeH26LdQtu8s+Y8b0uskiEBb3E1SmtcdlfC1Gddeg1th5cxAG4PKgaTt3ns6c7vyV75On4K9p4VUZuwSv8OaAWzj3in5J2Q8ttE1DeSYenO1pgy5r4D7zw+H/wc9087Pu+CWv6TYC5vyhd0tujU2YENsxvigKiMNxaPxQjtr4w9kDJivXCnDkdUMYuCjeXe2FYfBcKv389wm6tx9ARW409JrLaE/DbuO9ZehiuL+oGn4NcbSlD5yV70aOMHNEBf2LhL5NxPFjP7Ry95sxBhzJ2ECKpclaF79YpqO+qSvi3kxDXC6S3LD8L3ib8hnHfs/Sw61jUzQfG4iTi3mE2Zv3sAe2/rM6fuheBmXhhxqjsQnSf8z+4xyTdo9NsOPueeKY2H8fcw1OW7/Hhk5OVWg9Pa8xn9VVFmyjc/a03Bm99x6cTQghJTab36EitrGFtzW9ckMPhAh5zGrfJZZCafyskLVEmP3djGvajd2mRMcjhaN4tx2+3A4w/4M7uP6BiMheyJIpgXDmyk1/oQI2jb9+B+70QCkVZeuUtw/vrePuP+Qq5Diq/u4jkIjmBkFtIi3xGhtBbuLyCC3I4Orw7cRmB3JA1bgUzc3da3gZwz8t160XiyUFfU5DD0ZzHxU1XEJRKx13Q0Sno0boNuo7+DEHOZxQTFYTXb17g+aPPG+RwdH7z8M/VAPYJiOFYuFHy99USy6G8OQ1/s6CFE3v+CoK5fya3MlZ68xuF4/22JfAPYF9CsRNcqhbi0xndBtz89z1iWGO8QPXByBtXFzVB0eJOrPQavP13S8aCnAwo1qAUXFmVqfTbj6l8kMPRPPwVG68EsHLaIW8Zz4RDsTj6N7i8NH5YmObCSdwP4k5OIUQS84FpjHIFuPNejcenl5qCHI7mIX5dcxGvE1+5+RQBV7Fsu7n8Glw4eR+m4ogQV5xEXu0YhU4t26HH5M8Q5KRBtLH3zLypoDOWQQ+dyjJdDZ3xOx8DrTrKIl3DUkzpmrg0btN+dEGMEEJI5sj0QGfjpvpoOKGOaTv2wFSxc3N0zGncNn84jppr9gJucDCWIgwBTxJOgb8VFmEKBCQy5EqupCEvcF5l0Sl1uS+acn8jlTlBacIaRpLPNP9aF/4SMV/hh5oA2g/PEJZay8LGEVIu6FG/R+A9c5Rjon/3FspMmBuQlZw/sB+XnoZAb1cY3zbogKEzF2GaTw/8r3bRTLqxrz3ydVmHn7fewahTzzDh7HO2PUP3RvmQ0v13TSLw/uod4wUMkzXY26IQptSrghP3+KQE0pDf5nt8O/44+v7uD98zXFnYdmYDquZLujQvdp/HGw2LgdwqoHRJPhqu0ATuzuzf6ld4cjyJbr3PpJQrF1wB1qW7Y89Z7v478dvchvmMzynsC39809+oEDwNSa3SsYbMeBUqGM9PBpuSzO4GICKVAD89IoIewhxHZRcnl4+Ej48Pv21iv1Fcajhub7FMn4Ytd7nfpPvYNt0y/QxeGH+qXuLcKHMat7GAMk3HIQrB9xJ9JoQQQlKU6YHOFxetyvwre8oQRHGTeaW5ULi8KYmkH7cYwYoVK1LZuJuyJj0in3w5UU9OY8u88Rgyej72XXqKkBgxnAp/iwYdhmLmomkY27cDahfNaMgjQwGfQ+jcrR6K5rGCOvAZnvg/YttjvA7RpGHeTzR0QelZrCKV/NKGqLd0NZrULYHcVhoEPeHKwraHLxHK9yh/5NEi3H2khEGcD8XbNzcGZ841y8JZCmheXYbfS1O2L0GlizYeM3XQUzz094d/EtsD/wfZcuVEkoSyheDEXXAzxEKnzsRIkxBC/gO+fqDz8i3CjIGKA1w9E16DLO9gZxp+Fq1BqhciM1PQfRjbSRJneH5b2JSWJYghkqW2ilnW8fkXI/iMYqKh54olc4STe8JuPaGLG6w/U0/fVxf1BKe3zMP4IaMxf98lPOWWSZc6IX/52ujQqm4GF/joiEo13GGFENyY/R2WdKmHrd4NjNupayH8cJ4vqFEflC9gBQRfws725bGmj6ksW70n4GFIcqUJwM0Td1hdZV6UoCSKlXVl70mJl3+t+2LD1jjPQyKNw73Ekbcxc4A3vL0/3kavvpfGe38lFms672EP16qJ7tpSxhWJ1iJIggRW3OqXJNM4V/JAHq6+CQvAnc80PZMQQnKqrx/oRB/AXePAbweUrz4E38pMg7O5xQh6lnM1NqyCX53GjS95IUt9C1eef2D/kMG9UnMUM6V+RW+gU3ENMBnsS/0MW5uMNTe/tL9+HW8xPCO5bTLW/Z0F76z6/Dhev2NNRYETSnZegiLm1bZkdVCza1Xkzh4fwSeIwpPTWzBv/BCMnr/POKzNNB8hI8QQcpNjYtVQBVr0tLh2RYXyeSD+0nEuN3+PK44qFJEqPo2xa9ILHnnEyfYwxR7dCP9A9j20L4Fy3QfB013GDtMLPD79nM+RFBuU/8kHM2aOQ9/GhY3Dyj7Vw22X8VTDQgqPJpg1xxu14icNZYJzuPeS6862Q+nWw9DYmf+J4BYj6FMTxumUSXqGkCjuBJHDo3Yv1HTM/oMFsgY3/PhtQVbzszjn+WVc/uTx2IQQ8t+SJe6jY1xeukNtuHCtAOMKbbEQyxWm++mEXcOKVSNwkJ+HE7eq20crukXgxoFumPLA8gYSGSev5os1k+sjnzActzYMwNAtb/lnEpLVXIziVfLHX+kWyyC1EhnvzRKt5VuG6gd4ttnXuJJasquyuQ1Gia5N4RCd9H1xBMUnoEzb6rDm/pBeZ1qSmhHKYhF6bCCe/vve+DhdpD+h2bqJKBF34VYAqVwOiZCbXGtevliPsMs++G3GMWOOrMSp2yF0bOMZtxSwQCSFnDsnYrRQa2NNDVbNU1wc1Rx/P01hVbYi09BlceeP7oujaLYVXoNrIDdr3Bn4fQqt5BCGvESobUHkFSS/6lqlUZswo1F+SIIvwrf9BFzm0zPMyRutlrPGddwoPyGkChkkiIVWpY2b5Pz+dH9sXnzR+CjrqIAaq7ejXlE5DKoQvH0TCq3YHnnz50bsw6sIKfwdCkk0CH//Fs9Oe+NQ0ER4e1eAwvweBfHno9pvFTaNXMLCMAtNt6Uvf9EZ6LLwZxRWGKAOeoPAUA3E9m7I6xKLZ1eD4P6dByTqcAS/8cONaT/jqsWwNOeB59CzdWGIdDoIpVKo763EmkGzkextklwaY6hPCxRVcItgXMWacevx0Yr1cauisc8ybsJ6YpG4vboffA+bKgZ3ryVY2qUM7IzxhMXrhFIolNcxrdtYnDMHceb9qxLezya5ldK45aV/9a0HNy6o4etXoZTVx0Ev8ca5INylSa8OJ/vfHGwf8C241bbj62UBqxJ1uLvUvKpb/KprqpvL4TVsb/zvQrLljNdw2m6MrJ4LwlfH0MVrLtJ0y6GUlJyBjtNawTWuh1YEmcKK/TcGGpWOXyhBhefb2mLv9pQC2s/D7ef5WNqjIhyF7/HnxO6YeJEGJBJCSHpkictumofj0XvDbtwMCIdWwK3QpoAkNhLvHh7DvLU+cUEOJ25Vt49WdJNDJjb1BmUG9eXFWP9PEAxCe5TrsgxrxraERxLDlQQSFtiwvx+3sSDHmC6Wx6fJZcYryJ/C4D8L/r8fx/t3EYgxSOL2LYo1QKjgb8KYblaQKBTG423auCCHS+cajOY0a8hk8XcVyUoEMjnkcWVXQMHOCe4wC8RWUJjTFXKI+VMlvVRHumPXbxfwIliNWHaeKRRS1li9i/MzluBtKu0NR3tr4zwOVcgrZMpoEyE7zxJ8VlyDnqULRLCKS1Owzyorjqm7ib8mzcSVh6HQWTkhf9Gi8Mhvjaj7u3Bwylmo9KbvkUM+D7i5OwIS8+fKv0eL81HOAvGPvkrpzf9oLA4sP2Eclid1dkfh4kXgahOFx/vG4/DfEaxxyxrncgfkLeIBp0TTkoK3H8XzKAPELMgRIgIv/tiUfJDDCb6LBy8joNdrEPjwLh7zyUnjPku+fvtoY+/FKv6dvNo4GF3HbcGf/oGI0rJvsjkfd1sdVj/k+YSvrObCNIxZcQoPAlWIFnL1qwzCSH8cWPAHwlPo1dPsn4BRq06z10VBy+oWc7nFLN6RcpOZMkFuO2vjj1ZEyNOEwWtGsXraKsH3igU53GEWiCGLS1Owej2DlUhGWeVGtd7zscCrAhxFBkTcOYgVFOQQQki6fd4enexOUgw95s3Cz2UdTD02hmiow5/h+IR+WHrXmIOQJJTAwLUL0NrTCu/Pj0WHyX/z6SQnsOt4AN17lIdd8EVs7dEZTy2Gv+VoDadh98jqyKX1w2avAVj/xRcAM/dACfHicFd0X5B0L3v21hzTd/TFN7kUsDJGXCzI8d+HGT7L8U+mRHaEEPLfkiV6dLKs6IdY98tP6LP0NO6+CYU6Rgy5Qg4rmmtLUpQLTjbG/hyEvAwwJZFsT+RcE+V9z6C7VznYCyLhf3jcfybIsSv7M2Z4VTYu8698egUHvsoqx3lhbxy7G4Hgxzm11S+FTGENqV6DiPf++HODL3oNpCCHEEIyinp0CMlskqaYvXMEKtu/x/mxHUAdOtlZVdRauRY1i9nyw+IYgxovj43E9nmHPvtNVb+KdnOwp2tJfu4bN8eG610wPoA+7C62jB2BDQ++wo2kZN2wbH9XlJK8wOGu3ZEjO3QIIYRkKurRISSzeXrAiVsmSRUC6tDJ7iSQyKUQaFRQRgTjxfWD+H1gTWzKqUEOJ1wHg9w8N4ib9KOEMuQ1bp9bi9E9h3ydIIdTIR8cjR06wcixHTqEEEIyFfXoEJLZKvvgN9/ayBN2GVO6zcBVPpkQ8gkaT8ZW729gF3AKffotAV1DIIQQkhoKdAghhBBCCCE5Dg1dI4QQQgghhOQ4FOgQQgghhBBCchwKdAghhBBCCCE5DgU6hBBCCCGEkByHFiPIkVzQacla9Cxjwz+OF3VjKVoM388/Sr8qk3diZq3c/KN4mqf7MbzXUvjxj0lW0RSzfx+Bynb8wzhK+G3ujwHrX/GPSWaqyr4nM5L6njzZh2G9l+EB/5gQQgghnw/16KRGUhhNew9A+0ofBw1ZnwGxWiWUyvhNpUnpHhhCWNf3RZ0uLSDnUxKL0agT7k+n558hWZseOpXluaCCWhvLP5eU3PDougCV6+blH2cv4qI9Ua3/QLhZ8wmfiUP34xhx9jlGrVsAyyMVo6XvCSGEEPK1UY9OivKj18rV6FhcDoP6MfYN7YPlD/mnPokIdgVLwsNRCOWbB3gUlNk34DP36Ejx6ugYeM27waenTNz2AH7pXx7WiEXAqZ5YO/MP/pnkmXt4qEcnqzL36LzD+RE/Y/K/fHIqSs25g7bf2rL46D2ujquKY1eyUUPdcwa6Lu2IQjIDVP6bsd57AkL4pzIbF+j06lICouf7sLHHMATy6YmZe3ioR4cQQgj5cqhHJ40EQmEmHixn/Dh8BhYsmINxXqX5tKxEACF3B3JCMvW8/9LYeczKTwghhJD/JmoFpOg11k+YijV79mLVuCFYmim9OVlXzF4vbF+2FefXD8Gmaan35pCc6/7EXti3cx+OTW2OI9mpN4fzZCL2T1+Ks3vmYcuwcZ+tN4cQQgghWRsFOqmIDbqCHSuWY9f1KD4lBzOE4e0+X5zffBBqPon8R6n/xt3Vw3D1XHKDsbKyaET+NR8XVyzDWyWfRAghhJD/HJqj85GkVyzTvTqKMV7zkHi2i0unJVjbswwEt9Zjln9F9G9eFq4KEQyxaoQ+PoMlPgvwJx8jmfOmuKyB7hWOjvGC5bQaSeEWGNz/R1Qu6gZHWzkkAv4JGKB6/DtG91mKu3yKSdrn6Iia7MZAn8qw5x8b6UNwfUolHLnAP05B5s3RsUXr0bPxQwH+YXJi3+PSyknYcp9/nE6Vlz1Ck1IS04NYLVRhIXhxdSVOzN+MiARz88fg5+N9UVTKP3xxEAt+uYLq80ejkocd+wxioXxzA3/O6Yx/7mhYhvTm5yR8TaxWhfCgx/DbPhhnjz1nn65ZDfywaROq5xci4HQn/DbjEhL2sQxAm4MjUNpGg0cbamH7pmA+nZP2OTpFpt3Az9UdEXd6cT78jR3tfsLDrN6p4z4OHVf0QpEEiw/o8OqgF9Yvusw/NiuK75YfQOOSsbi3dgLeVxmDqmXyQC40IFYdiqcnx2Hv4mPs1RbEBVBs2Fo0qOUJJ2sxtyoHQv1/x5lbFdC8YybO0XFsjElLf0GtvNF4uHckvFfSbB5CCCEko6hH5yN66DSq+BWT1NEWDc7kSd3qoE/T8sgj0kCp0kIvkiNX8WYYvWAAivF59DoNVPx+1dHcXj9eFU2pUkMbbcrPERXpi8VLfkGzSp7IYycDNJb5VdBF6/BJF611aqjZfrh9KZVqRH+1Bq2BHXfL95bMxo6PLoZ/SbqVgZWIWw3L9H41BikUudxQsvFUeK9dgnzmIMVIA60xnwYx3Edl74bqk8agSmE5YrgyxIpgne9bNBy5BK7GuCm9+RkPewjV5mOvgUGqgFP+cqjhcwLdhtdB/DSpv/D35Wes4S2Aa8Vf4Jl4SbwmtZFPwcIT5RP4/24Z5KRPLDvvVfyxUap0iYKpLC6WfW9U5mPJPlvj9ys1VshT3wdVyuYyfg5qnQEieS4UbTEf7fqU4fNwWJrvLrRpXBy5rEXQc8dJyz7iUm1Qv4YDnyeTFK+Gkm5WEAhtUKBiXRaSEUIIISSjqEcnFeZeGGkqPTo2Bi1enp6BgTP/RBRrohb0WoSlXqVho3uBwyO6Y0GCLpe097h4Dl2HlT8WgjD8NjYPH4mNT9OyQlvGVl2DtCta7ZiCcnZfo0fn65CVm4AfJ3ZDScdYPNtVC5tXJb4mz/e6CMIR9v45/hzTGjdex0LcdCe8h1WBI17g/M91cD6Iz57u/JZywbXnerT7uRwcYh/j9M8/4FIo/5RsCNrt+gUlbdTw/7UWdm6Ln3lSYsZNtK3qAM2dpVj2y3wWclnK2KprqLsNg8ZVh2NYZvToVEXfOV1RPrUV2qP8sGfmUpz9wD/OMHOPjTiVHh0FDOoX+Gvajzh7OQIQl0fVJdvRsIQC2qe7sL7XSLznssf1Funw9twk7Ji6jX3HWfbS09B+RicUsRVAm1k9OuIS6DF7Apq7R+H6Bl9MP5rkiUIIIYSQNKAenUxiiLqPQ/O5IIcTixfHr+C58YEQQvMV/E8gkDnBo3IFuGfH2/lkYZrbU3D1ZjD7xCTIVaQFEnTqWJIoEHZlKG6yoIUTc/QmgrmepeRWJUtvfqMQBPy2Gg+D2GskeeBay2JAoWYRbt3+AD0U8Kg7EnZx48s6oGhRO7ZPFV79vSFRkJNVxECb4B4+yWwqLdLUEZNpDIi4uxHnuSCHE3MLD66+ZEeSEYrjPidF5W+RhxsSF/UQ/y43BTmcmHuT2WsD2LvLRDEPsG54R7Ru34eCHEIIIeQTUaCTSaLDApCmzpZ0erLtOK6/Z81Xq/yo1XcWNh44hWMHtuPXBZPQt6FH8g1zkoRcKNRrMzpvv4fRp55jwllue4ZOtZwthoklJxTv/3xtMYxxJrY3LoQp9WrhXJLt0TTkt2uKqlNOw/vgQ4wzloVtp5fgm9xJl+bhrr8RyFrVkgKVUd6V/+pWb4h8Duzfyqd4dDirri92DRsm+cDHJ5Vt0hr8Gca/5IuIRkSAHwtyUya1l0HM/q8Nfoi35h42o2go30UknMtDCCGEkCyDAp2s7t0ujOnQEl6TN+LktQd480EHoY0LPCrUxk+jVmLr3A5w47Nmb9xiBCuwYkUq29JJ6FyKf0m6KOA54Sg6dqwFD2cxogIe44n/I7Y9Zsc0LfOwdNAGpKdJm0p+WRs0WbkEDWsWgZNEicBHXFnY9ug1wnTJlOb2LPg9Y/uUFEaJblWNX17XWiWQi8VFqqfncJ/vmCCEEEIIIRTofGVCSBW2/L9TEo3X5zdi1sj+6NK2GRo17oCRu/0QJZAgV9lG6GA5bzrb+tyLEQzAt1VdINa/wz9jymNZ1x+w1buBcfvjbviXn3jfpgfKuYqhDziDjS0r4te+prJs9Z6Dp+HJleYF/j7nB6XBvChBJZQsmQciRODZ2V+z6LC17E8fozcGwlKHAnBK0IUqgbWLHfWqEkIIIVkUBTpfRQReRXDNUjGcy7dCF490NpWiQ/DiRRS0xgeZMwfo64vC4UVJDGdKvI2ajV0ZunGrmJseA8SyYOmtRU9LwX6oUMop4ZLKX4JYaPybsapgRFissuf4v24o7JR8aWJ2bMfDUBYI5SqLb3r1RWE3MRD+BP5nwvkcJLNFXLqJIPZ1FTiUQ/VRHeOWhxeXnog61VyNw9oIIYQQkvXQqmuJ5G43B0u7lkTc7TiEUijkLJLg7rmi4bsSot/g5IR+WHo3hVXZXDphydqeKCP9+L44HFHJoVi78EcU4mIcQzTU/HK+QqkY70/4oDu/TFtJ361YXj8votUq6PgL/QKxDAorbh6HAdoXRzG2+/xEq8GlcdU16U9otm4iSsTNeRdAKpdDItRDp9LwE8P1CLvsg99mHDPmSCz7rLpWA/U2bEDNAhIW6wTh7Zsw6Kwc4JbPGZo7VxFZ5jvkN6gR9v4Nnh75CUcFa/FLpxJceAQrhQxiQSy0Sq1x4nnUrVlYP25TwrkZHfalL3+5Zeg5pznySWOhfPca78J0kDrmR97cGvhfjUCx7woAqg8IenMH10Z64aZFHOM66hJ6NHKDXqeDWCpF5L8zsGLEmmTmiqRx1bUav6HXqGqwN8dYAjHkCimEenZuqqP5Hq9w3J9fE8f+SG1Wy5fmgW/m70LdYgr+Mft+SeWQcV9bjRoavrjRL/djxwBfvE9hVTaH7sfRq0vi++LkQtGJR9C2Tl5I2HfOtE/ucxYh/HkQZIXdIM6sVddsm2LOhhH41lGDJ/uGofcyuo8OIYQQklHUo5OIUMqCCGtrWJs3FuRwbT+ByCo+TSGH1Sf2osT6LcGoabtw9WUo1DGsUcnvW8aaxkKFM5/LljWE9VBp9ZDI+b/NNrk4BsqIAPj9sRHjBiUOctLDChKFgu3TvHFBDpfODakzp7EyyayMubO3v3B24nxcexqOGFluuBcrisKucoTd3IDfp9yElgV1QtY4dspfBHnzy9mhkbPPhHv/XNDCvV4EK/44yWUy4x4TSG/+2wOxb/V5vPgQA7lLQXgULwIX+Qf4bRuBIw9UrDktYJ+NE9yKesAxUYdfwMZzeKkFJCzIEeADnh3flkyQkw7svZvKz29ckMOlCyUW6XJIs2TvoQhimUXZ2SYz3lVXAJFFupwF8Rmr8ELwaHpXHD73BCHKWAjZPhXsKxF+fy8OrHloWqUtszjng63x66ZG8AMKcgghhJBPQT06OZK5R8faeLd9c0cUR3l7FTr4HuEfpV+lMRswqXou/hE7gSRyKKTCbHsfnezKsc8J9PypOGRvT+K3Hn0QYDH8LSFzjw7XS6e2WL5ZBf/tQzFi21v+MclM347dgInVkviepNajU3Uyds6ohdzqx9g9pA9WPuLTCSGEEJJu1KOTowkgsorvCeI2hezTpk6LZfKE+2ONN/LliF3qo9LkC+jerjgUhnDc2+OTQpBjieulszwXFJAbhz+Sz0FslbHvSZ6C9uA6dAzq9/CnIIcQQgj5JNSjQ0iW9wPq/7YEVQop+GFxjF6Jp/v7YfvyP1O9DwzJPor0W43F7YsCj3djSJ+VoFiHEEIIyTi6HE9IlsfNpZLCoFZBGf4ez/7Zgz29q2MrBTk5jrOrA+QwQP3en4IcQggh5BNRjw4hhGQJTmg5cxl6lZHg+cGxGLSWQh1CCCHkU1CgQwghhBBCCMlxaOgaIYQQQgghJMehQIcQQgghhBCS41CgQwghhBBCCMlxKNAhhBBCCCGE5DgU6BBCCCGEEEJyHAp0CCGEEEIIITlO5gc6PVbg5NmzOGu5rRsKB/7pHKfWJOw4zd7jvjloLufTCMnpSgzE2qPsvD+8Er0L82mEEEIIIVlI5gc6WjWUSqVp08Qgu96kR5a3BMpXqIBS+awh4NMISV4JDFx71BjY75pSjU/LfiROnijLzvsyhR0h5tMIIYQQQrKjzA90tg7H/378ET9y257HiOWTs5vK/SZh/oIFmPZLXcj4tK9NaJ0HBT08UMjVjhqh5LPw7Dgas9l5P2tkW7jzaYQQQggh2RHN0clGHKt1wMARI/BL1/rIz6cRQgghhBBCPkaBDiGEEEIIISTHERQoUODzTaPhFiboXNgpAF0AABAESURBVALi54fQusdChPHJSbGvMQgT+32P4i4OkIsF0OtUCH1zA4cWTMbmezF8Lk4tTNoxEbXzvMbRUYdh268zqhayg0Sghy7yLa5tHoUJewKg53Mb2TeGz+xu+N4jt3HfsdoQPD2zHPts+sGndh68PNQaPRay0nELC0ysjTwphn9huLagE0YeVpseml8TcQ1L14SiWZ86KORgBaFeh8i317B51ATsCUhQmgzL9cNgjG7NjueLU1g8ez+e8+lm5uet+cfJibi5AaPX/MM/SqcqmzBgZm3kMj7QI1odhdBXN/Hv8gG4eifSmGpWYPI1dKvlzD8Kx61Z1fBPoe1o1bIscsuF0GvY53B2Dg7O24koliO9+TkJXqOPhjoyFAG3f8eZ2TMRoDIlc2w7HUHvnqVhHX4TB7q3wu1EJ6Pb6Evo3tAN+jfHsaVLP7zi09OOm6OzAK09ZQi+6Iv2Ey7z6SlTlOmCsUN+RPn8TrCWCmGI0SA80A9nf52GZRc+8Lk45v0rcXnRWoQ27IX6JZwhExoQo3yPe4dnYczqW9DwuY0UldFv6mA0Lu0KO7ZvvS4cr/7Zis3BjTCilSeizOXkFhZY0Bqs6ClQwX/7IHivfWZ6aH6N3h+7lt1Cye7NUdJZATFioHx/D4dnjcHqWwlKE0dSfiCWTm2FopIAnJ/XH1POJDxvCCGEEEIyQ5bo0ZHVm4RVE/+HCvkcYaU3LWagE8rhXLgGus9diUHFRHxOSw4o1fcn1CgoQ7RKCU2MAFLb/KjebyEm1bHi8zCyepi0ahiaFMvDghw9tGzfGoM9ijTth58L2SZcaECngZpfSEGlNQUnXMAVt7iCcVNBo0sqNnRCkx4/oJAilu1DgxiBFLb5q6PfwkmwLM7npI/WQpWgrElvaq1l4Jg+ChcpYtkx4I6DUhUDkdwOLsVqo8n8P9DyfwkH1Ok13GepglrHHUsr2Fdbi6ZtysFRoIFKEwOBLBeKNPFFo7a5M5QfcIGtJNZUFu51MSLI7V3gUasvum/YibLmbEzkge14EmKAwL44yrYrxaeaVUbRYs4QIRrvb23PQJCTMZLyg7FoVjdU93CGQqhj74Gdm3opHPJXRGvfZZhY35bPaUmBgi28UL+kA9iJxo6VAWJrF5RvPxmzOrrxeRhJeQxeNBHtKuZjQQ47tdl3RB0rh3vNzuj2jRMkfDajGC005vODX0CEC7gszxnu+Gq0Sc24s8Y3nVugjKMQWpUaOoMY1i7l0X7yLFgWx5JnrfIoYCOEwMoNpWom/iwIIYQQQjJHFujRqYCxW+biBzcBPvy7GgNH7oaxA0RWAt4L5qBtCRuEX1uATiMPw9SHYu7REUL/4V+sHjgSu7kXsIBmyoaxqMnSP/wzG51GnzBe3Zb1XIHfO5WANPot/pg9AFPPhrOGnAwlvBdgTtsSsGGRznNzj46FWpN2YGLtPIhI8LeTENcLpE9Qflm9KdgwtiZL/4B/ZnfC6BNJX91OUeFOmOhTgzXnU6ZNpofni7AqhdKj1qL59/kgfv8HtnXoBv6afxxTr4sTVB9CEHjZFzvnnUS0uDrqrF6POoWl+HB5FJb67uJzpz+/JXGhnmgweSQqu0sQdH4IVk4+yD8jgfvYC+j6gyv0rw5jk9dAvOGfQckF6L6gNdwFr3FxTE2cvcGnp0t6e3QKoteK5ehYQo6oh/swfshyGDtAJO5oN3Ueen+XGzr/7RjkvZY/nvH7N0Q9xL7xQ7CcewELaH5ZORMtPWRQ+m3GgAHr8ZLbTaMZ2D6yKpz0Ifh3vQ9Gb3uOGO4YtJuKeb2/Q24xkixniYFrsaC1J/QJ/nYS4nqBDAnKLyn/C1bObAkPmRJ+mwdgwHquNInkbooJs3uhvPghDs4ch41+GQ+8CSGEEEKS8/V7dEo2RAkXERB1B7sm8EEOR/MAKzdexXv22MGtPAp91Kmjx8uLc+OHhWnO4tSDYOOQNYFQEtdT07J0AePVa5X/Mcw3BjkcDR6sXIMrAZm5JtxrXJ63J678mrOn8CDYWBoIJRlcoFqvi7/Szm3qaNPV9tiEV9tVmuivt7qd9j7ubTqJ1ypAZFcQ7iX59I8IYRXzAFcWs6CFexhzCc9ec0OW2PERJrWGXHrzm8Q8/w1X/nwBFXu9nXst5OHTwfbyas8FvOYa425VUaFefDdb7voVkYc9jH53E/4ZCnIyIN/3qOCuYMfvGU4t4oMcTvQr7P71HJ6xyFrhUhSlPurUMSD45tb4YWHRt3Di5htjUC9gx8X8NfmuSmHYs9NO9+oS1huDHA47BrtX4tRjizF9nywUd7avjit/9K0TuPnGWBoIxUn1xDJBRzGlR2u06TqaghxCCCGEfDZfP9AplxdOXClsyqPvYYubjHLbzLpw4Z5T2MNTasxtIQLBjyL4wCV51jKpMeh5/+wIlKYk3k0ERmRiZ1bYezwIz+TOsRe7MdvHBz78NuvYE9aAZ43X139iuUW67+LDX2y4lbj4APyw8C/8cvQxxp99jglsG7+2Kwql4Wap6rdX8cYYtZi8nPgtptQrhMVjtvEpCaWeX4HcbVag3cZbGHnymbEsE84+Q//2nkiyOA9X4s7jKBaROaFgnRZ8UFASnqXzwoobtnZnd3wvz+dWqCBycXNirDzwvxWJzvs17VGUewNSW7iZpyzFUSP01Ws+cEmenJ333PuLeH0F90xJvBd4Hqbl/50JVMF4/pKCFUIIIYRkPV8/0FFGQ8f9X/UeT/z94Z/U9oBtxkwkJdxiBHNXrMCKVLZZfb7jX5E+wuJT0H7uCFQv7wpFdAhe+T9in9kjPH32Hqo0dCnFaoKTHwKYhJTzS5C7z3507d8UJfMpEB38wliWJ/6P8eq9KuFiFHGe497Rewg1CJGrXCeUdmBJrs1Q0I1FFbp3eHbmvCnbl6DRIporpC4ULx4mOt/jtofwDzZlJ4QQQggh6fNlAh17F1RJbkWnJyGI4hp8knD8O7E/vL29P97G/oZHGRybFRtravI6uNZMdJW/AvLapT6kTCqzzwLRYNp87sUI8v3UBJ42QOStpVjasgo2eDfAVm6bcRzvv3ggWgff1i0Ga0TC79e6WNjxe1NZ2HbojwAk12ehPf0rHgbExi1KYF2rNtxsWfrry7j7pYatcQIDEcEdM5EWjzcMSvq8H74QFzK4IFmsXm/s7VTkLoPCpiReQeOqgKkRW9lAwf+bEEIIISQ7+rxt+OfBCOPiDPv8qFLeYoUze0c4mv+y32b8/TyaBTpF8eOiWehdLXemFurkg1fGOR4O5TvAp549XwZuMYI+qOqazBwC5nGo0tRQLFIP3pUTrc6WRX04vxoTLYa0JbdN3vgv/4r0EYgE7DgYoI14bdHTkhuF23yPvLJMHraXKhGEQvap6Flw9z6IT2McWqBC1XxItjgxp3DjyksWCMlRoOYIVK5WGLbsUeCtXXjPZ0mKpEgLDJk6GxMHt0LpBEuWZdCbAzjrHw6DyBW1RyzE8CaF2VmZeW78+wLcyExFkYYY0LEQTLOauMUIvNGgSPIhTGBgpPH7Is1XGT+3cONfRwghhBCS/XzeQOfsKdznJuQL3fD99N04dOgQDh0+htP756ObHZ8HAVjOnnsQZYAsL2tcTd+JE8dYPi7voaM4eWYHplT7aIJOmgX8th2X38WwNh4rw7g9OMrt9+hBLG9jg5DXyXcTBaw5iTusTJAVRtPZ+0yvY9vhY6exd1ajTG2UplXI6SXw6d8fQ7/SCmsfHrxljWchnGtMQ/9NZ9Fp5Tn02f8XOtU14IlfOGBVANVm/I1u82YiH+qiwYb7GH7oPn6q4mR8vW3F8cbHw/ccRbWixiQL6c3vj7dvI1ig4IyKI/5GrzWn0GntFQzZsQjf6u/hcRhrrBdogY7b/kDr/t/zrzEJ2nsEzyO5U6Imqpa2BTRv8ez0Vf7ZpFjjux+qo1guW7iUqIk61fjkZDh958ufvx9vuxZ2RQFjrjDsm70BfwfFQOJUGs18fsPh44f5fEdw/PTvWPRT/FIK6RV2aDPOPVGx45ML3/T6FYcPs/0eOYT1/YpA9Tb5bqKwA7/jeiD3fcmL6kM2mV7HlenoSRxc3p0v+yeqNAqbTnDzkXax7zafRgghhBCSyT7zqKw/MWv+Ptx7pzbeV0ZhbQ1rK0Adroe4uEXw8vxX9O8yAdv/eoT3Si0EViwfl9daCr2aNVjzfsJ1Zc1ZTBqzGmcfvoc6Rggrtl+ZIBx+e+bgL2UKvRCanRg7ci3OsdcptQLj67gyKcTRrEB5/pNXuiO398SBA3cRpBbBIb8HPIsVgL3uKS4v74eboaxxLBDByt4FBTw8WGgghVSuYMdMAbnUdJoJpXLjY2uFHJKPDmB68z/HjcnjcP7Oe2jE9nArUhQeBe0R/eQYDk3bhEiuOGIr2OUtBHf3RDd0CfgVt+6HsiCA/U22X/WLC7jrxz+XJBXu33uK0FgDdKGP4HebT06GUMq9D/M5nHBTyKziVkZD0AGM7T4Ma07fxZtwDfQS8+tkEOpiIXaw5zNmQPQtLPFdiEO33hiHyEkV1pCL1Hh+eiV+f5vC0MXoC5g5aoHxdeEaPSTsdcYySfUwsOMcd33iUzjaw9q4FGIIXgWakgghhBBCMtvnvY9OltYcs/cNRWUHNe7+9hMGb024JhvJ4Ry64sdVE1ExtxL3VtbH3j0Ww99ytEoYtWkGGuU34Pmh4eixMOGabF+C+V49Vu/PY2yHyfibTyeEEEIIyUyfuUcni7KvgM5zOqOigwCIeoS/9lOQ858hzo3czRbjpzXjUCGPEOonx/DnfyXIURRFC98BqJVPwq2+gBvHvnyQw8nlZGO6t1XISwSYkgghhBBCMt1/oEenE+bv74Bi/NAngVgOhRUf3+k/4Nb6kRix9cnXu+Em+SIcuhxA505l4cQPi+NuvKl9cwEHh3nBL0fGOXUwccsIfGse/SaygkImNi2qYYjCo4PTMWLx38jgom6fQIKms3diRGV7vD8/Fh0mU38OIYQQQj6P/0CPTjhiDPFzJqyghlIZjNc3z2DliG4YRkHOf4LASg6ZMBoqZRRCX9zGld96YWmPnBrkcKKg0Uvjznu5UMfe+we89buIbZP6YcBXCXI4nvBw4pbyUCHkJfXnEEIIIeTz+Q/P0SGEfHmV4fObL2rnCcPlKd0wI6XF7gghhBBCPgEFOoQQQgghhJAc57+5GAEhhBBCCCEkR6NAhxBCCCGEEJLjUKBDCCGEEEIIyXEo0CGEEEIIIYTkOBToEEIIIYQQQnIcCnQIIYQQQgghOQ4FOoQQQgghhJAchwIdQgghhBBCSI5DgQ4hhBBCCCEkx6FAhxBCCCGEEJLjUKBDCCGEEEIIyXEo0CGEEEIIIYTkOBToEEIIIYQQQnIcCnQIIYQQQgghOQ4FOoQQQgghhJAchwIdQgghhBBCSI5DgQ4hhBBCCCEkx6FAhxBCCCGEEJLjUKBDCCGEEEIIyWGA/wNgrIkSKNnuMQAAAABJRU5ErkJggg==;" vertex="1" parent="1">
          <mxGeometry x="440" y="99.99999999999999" width="346" height="171.74" as="geometry" />
        </mxCell>
        <mxCell id="7zlPPUElvvNQ2gCsmIP--5" value="Создать массив arr на K элементов и считать в него добавляемые элементы" style="shape=parallelogram;perimeter=parallelogramPerimeter;whiteSpace=wrap;html=1;fixedSize=1;" vertex="1" parent="1">
          <mxGeometry x="210" y="231.74" width="120" height="60" as="geometry" />
        </mxCell>
        <mxCell id="7zlPPUElvvNQ2gCsmIP--7" value="Создать новый массив на ints.Length + K элементов" style="shape=parallelogram;perimeter=parallelogramPerimeter;whiteSpace=wrap;html=1;fixedSize=1;" vertex="1" parent="1">
          <mxGeometry x="210" y="310" width="120" height="60" as="geometry" />
        </mxCell>
        <mxCell id="7zlPPUElvvNQ2gCsmIP--9" value="int i = ints.Length + K; i &amp;gt; K;i--&amp;nbsp;" style="strokeWidth=2;html=1;shape=mxgraph.flowchart.loop_limit;whiteSpace=wrap;" vertex="1" parent="1">
          <mxGeometry x="220" y="390" width="100" height="60" as="geometry" />
        </mxCell>
        <mxCell id="7zlPPUElvvNQ2gCsmIP--10" value="" style="strokeWidth=2;html=1;shape=mxgraph.flowchart.loop_limit;whiteSpace=wrap;rotation=-180;" vertex="1" parent="1">
          <mxGeometry x="220" y="555" width="100" height="60" as="geometry" />
        </mxCell>
        <mxCell id="7zlPPUElvvNQ2gCsmIP--11" value="ints[i] = ints[i-K]" style="rounded=0;whiteSpace=wrap;html=1;" vertex="1" parent="1">
          <mxGeometry x="210" y="470" width="120" height="60" as="geometry" />
        </mxCell>
        <mxCell id="7zlPPUElvvNQ2gCsmIP--12" value="int i = 0;i &amp;lt; K; i++" style="strokeWidth=2;html=1;shape=mxgraph.flowchart.loop_limit;whiteSpace=wrap;" vertex="1" parent="1">
          <mxGeometry x="219" y="630" width="100" height="60" as="geometry" />
        </mxCell>
        <mxCell id="7zlPPUElvvNQ2gCsmIP--13" value="" style="strokeWidth=2;html=1;shape=mxgraph.flowchart.loop_limit;whiteSpace=wrap;rotation=-180;" vertex="1" parent="1">
          <mxGeometry x="220" y="795" width="100" height="60" as="geometry" />
        </mxCell>
        <mxCell id="7zlPPUElvvNQ2gCsmIP--14" value="ints[i] = ints[i&lt;span style=&quot;background-color: initial;&quot;&gt;]&lt;/span&gt;" style="rounded=0;whiteSpace=wrap;html=1;" vertex="1" parent="1">
          <mxGeometry x="209" y="710" width="120" height="60" as="geometry" />
        </mxCell>
      </root>
    </mxGraphModel>
  </diagram>
</mxfile>
